<svg width="24" height="24" viewBox="0 0 24 24" fill="none" xmlns="http://www.w3.org/2000/svg">
<g id="bank">
<path id="Vector" fill-rule="evenodd" clip-rule="evenodd" d="M11.9148 4.50611C11.893 4.5095 11.882 4.51302 11.8802 4.51357C11.88 4.51366 11.8801 4.51363 11.8802 4.51357L4.51647 7.40659C4.48427 7.41925 4.42934 7.45775 4.38078 7.52852C4.33178 7.5999 4.31818 7.6618 4.31818 7.68858V10.3566C4.31818 10.514 4.454 10.6602 4.63636 10.6602H5.45298C5.4535 10.6602 5.45403 10.6602 5.45455 10.6602C5.45507 10.6602 5.45559 10.6602 5.45611 10.6602H8.72571C8.72623 10.6602 8.72675 10.6602 8.72727 10.6602C8.72779 10.6602 8.72831 10.6602 8.72883 10.6602H11.9984C11.999 10.6602 11.9995 10.6602 12 10.6602C12.0005 10.6602 12.001 10.6602 12.0016 10.6602H15.2712C15.2717 10.6602 15.2722 10.6602 15.2727 10.6602C15.2732 10.6602 15.2738 10.6602 15.2743 10.6602H18.5439C18.5444 10.6602 18.5449 10.6602 18.5455 10.6602C18.546 10.6602 18.5465 10.6602 18.547 10.6602H19.3636C19.546 10.6602 19.6818 10.514 19.6818 10.3566V7.68858C19.6818 7.6618 19.6682 7.5999 19.6192 7.52852C19.5707 7.45775 19.5157 7.41925 19.4835 7.40659L12.1199 4.51361M12.1199 4.51361C12.1201 4.51367 12.1202 4.5137 12.1199 4.51361C12.1182 4.51306 12.107 4.5095 12.0852 4.50611C12.0612 4.50237 12.0318 4.5 12 4.5C11.9682 4.5 11.9388 4.50237 11.9148 4.50611M19.0455 11.6602H19.3636C20.0813 11.6602 20.6818 11.0832 20.6818 10.3566V7.68858C20.6818 7.41802 20.5809 7.16249 20.4437 6.96266C20.3062 6.76221 20.1033 6.5757 19.8492 6.47585L12.4856 3.58284C12.3266 3.52038 12.1488 3.5 12 3.5C11.8512 3.5 11.6734 3.52038 11.5144 3.58284L4.15081 6.47585C3.89665 6.5757 3.69384 6.76221 3.55627 6.96266C3.41913 7.16249 3.31818 7.41802 3.31818 7.68858V10.3566C3.31818 11.0832 3.91873 11.6602 4.63636 11.6602H4.95455V16.2855H4.63636C3.91873 16.2855 3.31818 16.8626 3.31818 17.5891V19.5H3C2.72386 19.5 2.5 19.7239 2.5 20C2.5 20.2761 2.72386 20.5 3 20.5H21C21.2761 20.5 21.5 20.2761 21.5 20C21.5 19.7239 21.2761 19.5 21 19.5H20.6818V17.5891C20.6818 16.8626 20.0813 16.2855 19.3636 16.2855H19.0455V11.6602ZM18.0455 11.6602H15.7727V16.2855H18.0455V11.6602ZM4.63636 17.2855C4.454 17.2855 4.31818 17.4317 4.31818 17.5891V19.5H19.6818V17.5891C19.6818 17.4317 19.546 17.2855 19.3636 17.2855H4.63636ZM5.95455 16.2855H8.22727V11.6602H5.95455V16.2855ZM9.22727 11.6602V16.2855H11.5V11.6602H9.22727ZM12.5 11.6602V16.2855H14.7727V11.6602H12.5ZM12 7.24031C11.5898 7.24031 11.2727 7.56457 11.2727 7.94574C11.2727 8.32691 11.5898 8.65117 12 8.65117C12.4102 8.65117 12.7273 8.32691 12.7273 7.94574C12.7273 7.56457 12.4102 7.24031 12 7.24031ZM10.2727 7.94574C10.2727 6.99543 11.0546 6.24031 12 6.24031C12.9454 6.24031 13.7273 6.99543 13.7273 7.94574C13.7273 8.89605 12.9454 9.65117 12 9.65117C11.0546 9.65117 10.2727 8.89605 10.2727 7.94574Z" fill="black"/>
</g>
</svg>
