<svg width="24" height="24" viewBox="0 0 24 24" fill="none" xmlns="http://www.w3.org/2000/svg">
<g id="SvgjsG1008">
<path id="Vector" d="M10.6416 21.7952C16.1582 22.5426 21.2363 18.6765 21.9837 13.1598C22.7312 7.64321 18.865 2.56517 13.3484 1.81773C7.83173 1.07028 2.75369 4.93646 2.00625 10.4531C1.2588 15.9697 5.12498 21.0477 10.6416 21.7952Z" fill="#FFD21F"/>
<path id="Vector_2" d="M10.6416 21.7952C16.1582 22.5426 21.2363 18.6765 21.9837 13.1598C22.7312 7.64321 18.865 2.56517 13.3484 1.81773C7.83173 1.07028 2.75369 4.93646 2.00625 10.4531C1.2588 15.9697 5.12498 21.0477 10.6416 21.7952Z" fill="#FFD21F"/>
<path id="Vector_3" d="M10.6416 21.7952C16.1582 22.5426 21.2363 18.6765 21.9837 13.1598C22.7312 7.64321 18.865 2.56517 13.3484 1.81773C7.83173 1.07028 2.75369 4.93646 2.00625 10.4531C1.2588 15.9697 5.12498 21.0477 10.6416 21.7952Z" fill="#FFD21F"/>
<path id="Vector_4" d="M21.9837 13.1598C21.7073 15.1992 20.8709 16.9932 19.6218 18.3921C14.8502 23.8913 6.02685 22.6958 2.89064 16.1252C-0.510859 9.01009 5.31569 0.729407 13.3483 1.81774C18.8837 2.56774 22.7336 7.62443 21.9837 13.1598Z" fill="#FFD21F"/>
<path id="Vector_5" opacity="0.05" d="M18.69 19.3253C17.1936 16.9186 14.6384 15.1313 11.6002 14.7197C8.56194 14.308 5.62895 15.3093 3.54043 17.2727C6.90435 22.4754 14.0629 23.4453 18.69 19.3253Z" fill="#4A555A"/>
<path id="Vector_6" opacity="0.5" d="M20.4191 6.25154C18.8797 4.47477 16.7147 3.24899 14.1759 2.90501C5.56063 1.73773 -0.274251 11.3312 4.44002 18.4546C-1.69845 11.5197 4.06716 0.56055 13.3484 1.81806C16.345 2.22407 18.8698 3.92244 20.4191 6.25154Z" fill="#FAF077"/>
<path id="Vector_7" d="M10.9876 19.5533C15.0561 20.1045 18.8012 17.2532 19.3524 13.1847C19.9036 9.11618 17.0523 5.37113 12.9838 4.81989C8.91531 4.26865 5.17026 7.11996 4.61901 11.1885C4.06777 15.257 6.91908 19.002 10.9876 19.5533Z" fill="#FDE74A"/>
<path id="Vector_8" opacity="0.2" d="M9.02545 16.8296L8.7435 18.9106C9.97732 19.5016 11.3395 19.7709 12.7581 19.624L13.0626 17.3766L9.02545 16.8296Z" fill="#FAFDFF"/>
<path id="Vector_9" d="M11.0667 18.9707C15.1123 19.5189 18.8362 16.6837 19.3843 12.6381C19.9324 8.59262 17.0972 4.86873 13.0517 4.3206C9.00617 3.77247 5.28228 6.60767 4.73415 10.6532C4.18602 14.6987 7.02122 18.4226 11.0667 18.9707Z" fill="#FBB217"/>
<path id="Vector_10" d="M11.1231 18.555C14.8008 19.0533 18.1862 16.4759 18.6845 12.7981C19.1828 9.12037 16.6053 5.73502 12.9276 5.23672C9.24984 4.73842 5.86448 7.31588 5.36618 10.9936C4.86789 14.6714 7.44534 18.0567 11.1231 18.555Z" fill="#FFD21F"/>
<path id="Vector (Stroke)" fill-rule="evenodd" clip-rule="evenodd" d="M12.3946 9.10779C12.31 9.82749 12.4374 10.5528 12.7563 11.1964L11.9748 11.7166L11.2069 10.5629C11.0608 10.3435 10.7645 10.284 10.5451 10.4301C10.3257 10.5762 10.2662 10.8724 10.4123 11.0919L11.1802 12.2455L10.4238 12.749L10.1721 12.3708C10.0261 12.1514 9.72978 12.0919 9.51035 12.238C9.29093 12.384 9.23145 12.6803 9.37751 12.8997L9.62924 13.2779L9.18344 13.5747C8.72857 13.4907 8.27699 13.3897 7.82965 13.2719C7.57475 13.2048 7.3137 13.357 7.24656 13.6119C7.17943 13.8668 7.33164 14.1278 7.58654 14.195C7.9627 14.294 8.34171 14.3818 8.72306 14.4581C8.64576 14.8389 8.58018 15.222 8.52641 15.6069C8.48994 15.8679 8.67201 16.1091 8.93306 16.1456C9.19412 16.1821 9.43531 16 9.47178 15.7389C9.53617 15.278 9.6184 14.8198 9.71828 14.3653L10.1582 14.0725L10.4099 14.4507C10.556 14.6701 10.8522 14.7296 11.0717 14.5835C11.2911 14.4375 11.3506 14.1412 11.2045 13.9218L10.9528 13.5436L11.7091 13.0401L12.4771 14.1938C12.6231 14.4132 12.9194 14.4727 13.1388 14.3266C13.3582 14.1806 13.4177 13.8843 13.2717 13.6649L12.5037 12.5112L13.2851 11.9911C13.7629 12.5419 14.3946 12.9432 15.104 13.1398C15.2939 13.1924 15.4965 13.1229 15.6142 12.965C16.1848 12.199 16.4992 11.2093 16.5704 10.0172C16.5993 9.53447 16.3044 9.09168 15.8479 8.93223C14.7312 8.54224 13.7055 8.44903 12.7854 8.67208C12.6304 8.70039 12.4982 8.80454 12.4345 8.94901C12.4124 8.99871 12.3987 9.05236 12.3946 9.10779ZM13.3237 9.54046C13.3232 10.0862 13.4841 10.6229 13.7899 11.081L13.7906 11.0821C14.0964 11.543 14.5317 11.8996 15.0379 12.1094C15.3601 11.5624 15.5641 10.8555 15.6176 9.96025C15.621 9.90364 15.5866 9.85209 15.5331 9.8334C14.6854 9.53733 13.9535 9.45334 13.3237 9.54046ZM14.0336 9.78664C14.253 9.64059 14.5493 9.70006 14.6954 9.91949L14.6979 9.92336C14.844 10.1428 14.7845 10.4391 14.5651 10.5851C14.3457 10.7312 14.0494 10.6717 13.9033 10.4523L13.9008 10.4484C13.7547 10.229 13.8142 9.9327 14.0336 9.78664Z" fill="#C18300"/>
<path id="Vector_11" opacity="0.05" d="M12.0723 14.4133C9.99136 14.1314 7.99226 14.4963 6.2641 15.3641C8.19625 18.5164 12.7976 20.1031 16.621 16.7674C15.1444 15.4653 14.1533 14.6953 12.0723 14.4133Z" fill="#4A555A"/>
</g>
</svg>
