<svg width="24" height="24" viewBox="0 0 24 24" fill="none" xmlns="http://www.w3.org/2000/svg">
<path d="M15.2223 11.9516C15.2223 13.614 13.8791 14.9572 12.2168 14.9572C10.5544 14.9572 9.21117 13.614 9.21117 11.9516C9.21117 10.2893 10.5544 8.94605 12.2168 8.94605C13.8791 8.94605 15.2223 10.2893 15.2223 11.9516Z" stroke="#707070" stroke-width="1.00746" stroke-linecap="round" stroke-linejoin="round"/>
<path d="M12.2151 18.8946C15.1787 18.8946 17.9408 17.1483 19.8634 14.1259C20.619 12.9421 20.619 10.9524 19.8634 9.76865C17.9408 6.74626 15.1787 5 12.2151 5C9.25144 5 6.48932 6.74626 4.56675 9.76865C3.81115 10.9524 3.81115 12.9421 4.56675 14.1259C6.48932 17.1483 9.25144 18.8946 12.2151 18.8946Z" stroke="#707070" stroke-width="1.00746" stroke-linecap="round" stroke-linejoin="round"/>
</svg>
