<svg width="30" height="30" viewBox="0 0 30 30" fill="none" xmlns="http://www.w3.org/2000/svg">
<g id="SvgjsG1008">
<path id="Vector" d="M14.9996 29.3996C22.9525 29.3996 29.3996 22.9525 29.3996 14.9996C29.3996 7.04671 22.9525 0.599609 14.9996 0.599609C7.04671 0.599609 0.599609 7.04671 0.599609 14.9996C0.599609 22.9525 7.04671 29.3996 14.9996 29.3996Z" fill="#FFD21F"/>
<path id="Vector_2" d="M14.9996 29.3996C22.9525 29.3996 29.3996 22.9525 29.3996 14.9996C29.3996 7.04671 22.9525 0.599609 14.9996 0.599609C7.04671 0.599609 0.599609 7.04671 0.599609 14.9996C0.599609 22.9525 7.04671 29.3996 14.9996 29.3996Z" fill="#FFD21F"/>
<path id="Vector_3" d="M14.9996 29.3996C22.9525 29.3996 29.3996 22.9525 29.3996 14.9996C29.3996 7.04671 22.9525 0.599609 14.9996 0.599609C7.04671 0.599609 0.599609 7.04671 0.599609 14.9996C0.599609 22.9525 7.04671 29.3996 14.9996 29.3996Z" fill="#FFD21F"/>
<path id="Vector_4" d="M29.3997 14.9996C29.3997 17.9396 28.5597 20.6396 27.0597 22.8596C21.3597 31.5596 8.63974 31.5596 2.93974 22.8596C-3.24026 13.4396 3.41974 0.599609 14.9997 0.599609C22.9797 0.599609 29.3997 7.01961 29.3997 14.9996Z" fill="#FFD21F"/>
<path id="Vector_5" opacity="0.05" d="M25.9201 24.3592C23.3401 21.2392 19.3801 19.1992 15.0001 19.1992C10.6201 19.1992 6.66008 21.1792 4.08008 24.3592C9.84008 31.0792 20.1601 31.0792 25.9201 24.3592Z" fill="#4A555A"/>
<path id="Vector_6" opacity="0.5" d="M25.8595 5.51961C23.3395 3.29961 20.0395 1.97961 16.3795 1.97961C3.95953 1.97961 -2.46047 16.6796 5.57953 25.8596C-4.44047 17.2196 1.61953 0.599609 14.9995 0.599609C19.3195 0.599609 23.2195 2.51961 25.8595 5.51961Z" fill="#FAF077"/>
<path id="Vector_7" d="M15.0595 26.1599C20.9247 26.1599 25.6795 21.4052 25.6795 15.5399C25.6795 9.67466 20.9247 4.91992 15.0595 4.91992C9.19419 4.91992 4.43945 9.67466 4.43945 15.5399C4.43945 21.4052 9.19419 26.1599 15.0595 26.1599Z" fill="#FDE74A"/>
<path id="Vector_8" opacity="0.2" d="M11.7598 22.6797V25.6797C13.6198 26.2797 15.5998 26.3997 17.5798 25.9197V22.6797H11.7598Z" fill="#FAFDFF"/>
<path id="Vector_9" d="M15.06 25.3192C20.8921 25.3192 25.62 20.5913 25.62 14.7592C25.62 8.92709 20.8921 4.19922 15.06 4.19922C9.22787 4.19922 4.5 8.92709 4.5 14.7592C4.5 20.5913 9.22787 25.3192 15.06 25.3192Z" fill="#C18300"/>
<path id="Vector_10" d="M15.06 24.7195C20.3619 24.7195 24.66 20.4215 24.66 15.1195C24.66 9.8176 20.3619 5.51953 15.06 5.51953C9.75803 5.51953 5.45996 9.8176 5.45996 15.1195C5.45996 20.4215 9.75803 24.7195 15.06 24.7195Z" fill="#FFD21F"/>
<path id="Vector_11" opacity="0.05" d="M15 17.8193C12 17.8193 9.23996 18.7193 6.95996 20.2793C10.74 26.2193 19.32 26.2193 23.16 20.3393C20.82 18.7793 18 17.8193 15 17.8193Z" fill="#4A555A"/>
</g>
</svg>
