<svg width="30" height="30" viewBox="0 0 30 30" fill="none" xmlns="http://www.w3.org/2000/svg">
<g id="fish coin">
<g id="bg">
<path id="Vector" d="M14.9996 29.3996C22.9525 29.3996 29.3996 22.9525 29.3996 14.9996C29.3996 7.04671 22.9525 0.599609 14.9996 0.599609C7.04671 0.599609 0.599609 7.04671 0.599609 14.9996C0.599609 22.9525 7.04671 29.3996 14.9996 29.3996Z" fill="#FFD21F"/>
<path id="Vector_2" d="M14.9996 29.3996C22.9525 29.3996 29.3996 22.9525 29.3996 14.9996C29.3996 7.04671 22.9525 0.599609 14.9996 0.599609C7.04671 0.599609 0.599609 7.04671 0.599609 14.9996C0.599609 22.9525 7.04671 29.3996 14.9996 29.3996Z" fill="#FFD21F"/>
<path id="Vector_3" d="M14.9996 29.3996C22.9525 29.3996 29.3996 22.9525 29.3996 14.9996C29.3996 7.04671 22.9525 0.599609 14.9996 0.599609C7.04671 0.599609 0.599609 7.04671 0.599609 14.9996C0.599609 22.9525 7.04671 29.3996 14.9996 29.3996Z" fill="#FFD21F"/>
<path id="Vector_4" d="M29.3997 14.9996C29.3997 17.9396 28.5597 20.6396 27.0597 22.8596C21.3597 31.5596 8.63974 31.5596 2.93974 22.8596C-3.24026 13.4396 3.41974 0.599609 14.9997 0.599609C22.9797 0.599609 29.3997 7.01961 29.3997 14.9996Z" fill="#FFD21F"/>
<path id="Vector_5" opacity="0.05" d="M25.9201 24.3592C23.3401 21.2392 19.3801 19.1992 15.0001 19.1992C10.6201 19.1992 6.66008 21.1792 4.08008 24.3592C9.84008 31.0792 20.1601 31.0792 25.9201 24.3592Z" fill="#4A555A"/>
<path id="Vector_6" opacity="0.5" d="M25.8595 5.51961C23.3395 3.29961 20.0395 1.97961 16.3795 1.97961C3.95953 1.97961 -2.46047 16.6796 5.57953 25.8596C-4.44047 17.2196 1.61953 0.599609 14.9995 0.599609C19.3195 0.599609 23.2195 2.51961 25.8595 5.51961Z" fill="#FAF077"/>
<path id="Vector_7" d="M15.0595 26.1599C20.9247 26.1599 25.6795 21.4052 25.6795 15.5399C25.6795 9.67466 20.9247 4.91992 15.0595 4.91992C9.19419 4.91992 4.43945 9.67466 4.43945 15.5399C4.43945 21.4052 9.19419 26.1599 15.0595 26.1599Z" fill="#FDE74A"/>
<path id="Vector_8" opacity="0.2" d="M11.7598 22.6797V25.6797C13.6198 26.2797 15.5998 26.3997 17.5798 25.9197V22.6797H11.7598Z" fill="#FAFDFF"/>
<path id="Vector_9" d="M15.06 25.3192C20.8921 25.3192 25.62 20.5913 25.62 14.7592C25.62 8.92709 20.8921 4.19922 15.06 4.19922C9.22787 4.19922 4.5 8.92709 4.5 14.7592C4.5 20.5913 9.22787 25.3192 15.06 25.3192Z" fill="#C18300"/>
<path id="Vector_10" d="M15.06 24.7195C20.3619 24.7195 24.66 20.4215 24.66 15.1195C24.66 9.8176 20.3619 5.51953 15.06 5.51953C9.75803 5.51953 5.45996 9.8176 5.45996 15.1195C5.45996 20.4215 9.75803 24.7195 15.06 24.7195Z" fill="#FFD21F"/>
<path id="Vector_11" opacity="0.05" d="M15 17.8193C12 17.8193 9.23996 18.7193 6.95996 20.2793C10.74 26.2193 19.32 26.2193 23.16 20.3393C20.82 18.7793 18 17.8193 15 17.8193Z" fill="#4A555A"/>
</g>
<g id="Logo">
<path id="Vector_12" d="M13.9722 15.4403C14.5023 15.9046 14.8515 16.4676 14.9871 17.2319L15.0693 16.8456C15.2583 15.8019 16.0842 15.2102 16.8321 14.8732C17.4977 14.5404 18.2291 14.376 18.9236 14.1418C19.655 13.8747 20.1193 13.3775 20.3535 12.6461C20.5261 11.964 20.485 11.2202 20.485 10.5176C19.922 11.0805 19.2728 11.4298 18.4921 11.6147C17.8593 11.7791 17.1978 11.8818 16.565 12.0462C16.002 12.1777 15.435 12.379 15.0693 12.9091C15.0036 13.0077 14.9378 12.9748 14.9049 12.9091C14.6379 12.4776 14.2393 12.3461 13.8078 12.1777C13.0764 11.9106 12.3122 11.8448 11.5479 11.6476C11.0178 11.4832 10.4836 11.3476 10.0193 10.9819C9.81798 10.8504 9.68649 10.6819 9.48926 10.5176V12.1448C9.52213 13.0406 10.1549 13.8049 10.9192 14.1377C11.4493 14.3391 12.0492 14.4706 12.5792 14.6678C13.0764 14.8404 13.5736 15.0746 13.9722 15.4403Z" fill="#C18300"/>
<path id="Vector_13" fill-rule="evenodd" clip-rule="evenodd" d="M9.92881 15.1074V14.8115C9.96168 14.8526 10.048 14.9512 10.1425 15.0334C10.5698 15.3169 11.067 15.4977 11.5683 15.6375C11.6751 15.6703 11.7861 15.7032 11.8929 15.7361C12.3655 15.8758 12.8462 16.0196 13.2777 16.2785C13.8488 16.636 14.2022 17.1332 14.2392 17.8112V20.4821C14.2392 20.4862 14.2392 20.4903 14.2392 20.4944C13.8283 19.763 12.912 18.3536 11.1574 17.2852C11.2725 17.3715 12.7065 18.7357 13.5571 20.2808C13.4379 20.2273 13.3229 20.178 13.1708 20.1287C12.8914 20.0219 12.6079 19.9315 12.3203 19.8452C11.9463 19.7301 11.5724 19.6151 11.2108 19.4548C10.3561 19.0645 9.89183 18.4234 9.92881 17.4578V16.4593V15.1074Z" fill="#C18300"/>
<path id="Vector_14" fill-rule="evenodd" clip-rule="evenodd" d="M19.8432 15.0458L20.0199 14.9102V15.1156V17.7619C19.9829 18.4317 19.6296 18.9289 19.0666 19.2782C18.6352 19.537 18.1585 19.6767 17.6942 19.8164C17.5874 19.8493 17.4806 19.8822 17.3737 19.9151C17.0491 20.0055 16.7163 20.1164 16.404 20.2561C17.2463 18.7234 18.6681 17.3756 18.7831 17.2893C17.0532 18.3413 16.1492 19.7302 15.7383 20.4575C15.7383 20.4451 15.7383 20.4287 15.7383 20.4164V19.1015V18.1071C15.7014 17.1537 16.178 16.525 17.0245 16.1388C17.3819 15.9785 17.7559 15.8635 18.1257 15.7484C18.4092 15.6621 18.6927 15.5717 18.968 15.4649C19.2803 15.3663 19.5638 15.2594 19.8432 15.0458Z" fill="#C18300"/>
</g>
</g>
</svg>
