<svg width="17" height="16" viewBox="0 0 17 16" fill="none" xmlns="http://www.w3.org/2000/svg">
<g id="Frame 40048">
<g id="Vector">
<path d="M8.0814 13H6.12791C4.3093 13 3.5 12.1907 3.5 10.3721V8.4186C3.5 6.6 4.3093 5.7907 6.12791 5.7907H8.0814C9.9 5.7907 10.7093 6.6 10.7093 8.4186V10.3721C10.7093 12.1907 9.9 13 8.0814 13ZM6.12791 6.48837C4.68605 6.48837 4.19767 6.97674 4.19767 8.4186V10.3721C4.19767 11.814 4.68605 12.3023 6.12791 12.3023H8.0814C9.52326 12.3023 10.0116 11.814 10.0116 10.3721V8.4186C10.0116 6.97674 9.52326 6.48837 8.0814 6.48837H6.12791Z" fill="white"/>
<path d="M10.8721 10.2093H10.3605C10.1698 10.2093 10.0116 10.0512 10.0116 9.86047V8.4186C10.0116 6.97674 9.52326 6.48837 8.0814 6.48837H6.63953C6.44884 6.48837 6.2907 6.33023 6.2907 6.13953V5.62791C6.2907 3.8093 7.1 3 8.9186 3H10.8721C12.6907 3 13.5 3.8093 13.5 5.62791V7.5814C13.5 9.4 12.6907 10.2093 10.8721 10.2093ZM10.7093 9.51163H10.8721C12.314 9.51163 12.8023 9.02326 12.8023 7.5814V5.62791C12.8023 4.18605 12.314 3.69767 10.8721 3.69767H8.9186C7.47674 3.69767 6.98837 4.18605 6.98837 5.62791V5.7907H8.0814C9.9 5.7907 10.7093 6.6 10.7093 8.4186V9.51163Z" fill="white"/>
</g>
</g>
</svg>
