<svg width="12" height="11" viewBox="0 0 12 11" fill="none" xmlns="http://www.w3.org/2000/svg">
<g id="Group">
<path id="Vector" d="M4.97219 5.44031C5.50226 5.90464 5.85152 6.46759 5.98712 7.23188L6.0693 6.84562C6.25832 5.80191 7.08423 5.21019 7.83207 4.87325C8.49773 4.54041 9.22913 4.37604 9.92356 4.14182C10.655 3.87473 11.1193 3.37753 11.3535 2.6461C11.5261 1.96399 11.485 1.22024 11.485 0.517578C10.922 1.08053 10.2728 1.4298 9.49211 1.61471C8.85932 1.77908 8.19777 1.88181 7.56498 2.04617C7.00205 2.17766 6.435 2.37901 6.0693 2.90909C6.00356 3.00771 5.93781 2.97483 5.90494 2.90909C5.63785 2.47763 5.23928 2.34614 4.80783 2.17766C4.07643 1.91057 3.31215 1.84482 2.54787 1.64759C2.01781 1.48322 1.48364 1.34762 1.01932 0.981909C0.817979 0.850417 0.686491 0.681943 0.489258 0.517578V2.14479C0.52213 3.04058 1.15492 3.80487 1.91919 4.13771C2.44926 4.33906 3.04917 4.47055 3.57924 4.66779C4.07643 4.84037 4.57362 5.07459 4.97219 5.44031Z" fill="#C18300"/>
<path id="Vector_2" fill-rule="evenodd" clip-rule="evenodd" d="M0.92881 5.10738V4.81152C0.961682 4.85261 1.04797 4.95123 1.14248 5.03342C1.56982 5.31695 2.06701 5.49775 2.56831 5.63746C2.67514 5.67033 2.78608 5.7032 2.89292 5.73608C3.36546 5.87579 3.84621 6.0196 4.27766 6.27848C4.84881 6.63597 5.20219 7.13318 5.23917 7.81118V10.4821C5.23917 10.4862 5.23917 10.4903 5.23917 10.4944C4.82826 9.76301 3.91195 8.35359 2.1574 7.28521C2.27246 7.37151 3.7065 8.73573 4.55707 10.2808C4.43791 10.2273 4.32286 10.178 4.17082 10.1287C3.89141 10.0219 3.60789 9.93149 3.32026 9.8452C2.94634 9.73014 2.57242 9.61509 2.21082 9.45483C1.35615 9.06446 0.891828 8.42344 0.92881 7.4578V6.45928V5.10738Z" fill="#C18300"/>
<path id="Vector_3" fill-rule="evenodd" clip-rule="evenodd" d="M10.8432 5.04576L11.0199 4.91016V5.11561V7.76189C10.9829 8.43167 10.6296 8.92888 10.0666 9.27815C9.63519 9.53703 9.15854 9.67674 8.69422 9.81645C8.58739 9.84932 8.48055 9.88219 8.37372 9.91506C8.04911 10.0055 7.71628 10.1164 7.40399 10.2561C8.24634 8.72342 9.66806 7.37563 9.78311 7.28934C8.05322 8.34127 7.14923 9.73015 6.73833 10.4575C6.73833 10.4451 6.73833 10.4287 6.73833 10.4164V9.10146V8.10705C6.70135 7.15374 7.178 6.52504 8.02445 6.13878C8.38194 5.97853 8.75586 5.86347 9.12567 5.74842C9.40919 5.66213 9.69271 5.57172 9.96802 5.46489C10.2803 5.36627 10.5638 5.25943 10.8432 5.04576Z" fill="#C18300"/>
</g>
</svg>
