<svg width="24" height="24" viewBox="0 0 24 24" fill="none" xmlns="http://www.w3.org/2000/svg">
<g id="Headphone">
<path id="Vector" fill-rule="evenodd" clip-rule="evenodd" d="M11.5116 4.24647C7.40777 4.24647 4.16754 7.56462 4.24794 11.6722L4.24818 11.6844H4.24806V16.567C4.24806 17.7617 5.25423 18.7735 6.45455 18.7735C7.65599 18.7735 8.66103 17.7685 8.66103 16.567V14.3397C8.66103 13.852 8.27506 13.5045 7.82581 13.5045C7.33805 13.5045 6.99059 13.8905 6.99059 14.3397V16.6542C6.99059 16.9984 6.71156 17.2775 6.36736 17.2775C6.02315 17.2775 5.74412 16.9984 5.74412 16.6542V14.3397C5.74412 13.2513 6.60147 12.258 7.82581 12.258C8.91428 12.258 9.9075 13.1154 9.9075 14.3397V16.567C9.9075 18.4569 8.3444 20.02 6.45455 20.02C4.56356 20.02 3.00159 18.4478 3.00159 16.567V11.6904C2.911 6.89152 6.70821 3 11.5116 3C16.3157 3 20.1008 6.89081 20.1008 11.5972V16.4799C20.1008 18.3697 18.5377 19.9328 16.6479 19.9328C14.758 19.9328 13.1949 18.3697 13.1949 16.4799V14.2525C13.1949 13.1641 14.0523 12.1708 15.2766 12.1708C16.3651 12.1708 17.3583 13.0282 17.3583 14.2525V16.6542C17.3583 16.9984 17.0793 17.2775 16.7351 17.2775C16.3909 17.2775 16.1118 16.9984 16.1118 16.6542V14.2525C16.1118 13.7648 15.7259 13.4173 15.2766 13.4173C14.7889 13.4173 14.4414 13.8033 14.4414 14.2525V16.4799C14.4414 17.6813 15.4464 18.6863 16.6479 18.6863C17.8493 18.6863 18.8544 17.6813 18.8544 16.4799V11.5972C18.8544 7.56869 15.6168 4.24647 11.5116 4.24647Z" fill="black"/>
</g>
</svg>
