<svg width="36" height="36" viewBox="0 0 36 36" fill="none" xmlns="http://www.w3.org/2000/svg">
<g id="Icon">
<rect width="36" height="36" rx="18" fill="#080450"/>
<path id="Vector" d="M16.4482 22.6641C16.2192 22.7052 16.0448 22.9151 16.097 23.1549L16.0971 23.1555C16.2365 23.7838 16.8283 24.2263 17.6024 24.3739V25.039C17.6024 25.2823 17.8158 25.4538 18.0465 25.4538C18.2757 25.4538 18.4907 25.2827 18.4907 25.039V24.3946C19.0371 24.324 19.5169 24.0858 19.7679 23.6776L19.6401 23.599L19.7677 23.6779C19.9548 23.3754 20.0289 23.091 20.0077 22.8232C19.9865 22.5563 19.8721 22.3226 19.7115 22.1182C19.3998 21.7212 18.8898 21.4068 18.4613 21.1425L18.447 21.1337L18.4465 21.1334L18.1876 20.9722L18.1876 20.9722L18.1856 20.971C17.9315 20.8183 17.6705 20.6133 17.4673 20.3907C17.2613 20.1649 17.1297 19.9374 17.1048 19.7399C17.0832 19.563 17.145 19.3954 17.3298 19.2198C17.5814 18.9809 17.8967 18.9645 18.1323 18.9974C18.3451 19.0281 18.5605 19.1111 18.7427 19.2261C18.926 19.3417 19.0662 19.4832 19.14 19.624C19.2487 19.8335 19.5118 19.9072 19.7214 19.8196L19.7219 19.8195C19.9402 19.7275 20.0518 19.4789 19.9379 19.26L19.9377 19.2596C19.6816 18.7705 19.1044 18.3755 18.4913 18.2248V17.545C18.4913 17.3014 18.2763 17.1303 18.0471 17.1303C17.8164 17.1303 17.603 17.3017 17.603 17.545V18.1919C17.2611 18.2517 16.9484 18.3985 16.6962 18.638C16.339 18.9767 16.1666 19.3921 16.2224 19.836C16.2847 20.3378 16.613 20.7662 16.9321 21.0756C17.2533 21.387 17.5861 21.5977 17.6979 21.6645L17.9561 21.8252L17.9567 21.8255C18.481 22.1486 18.8254 22.387 18.9974 22.6126C19.0795 22.7202 19.115 22.816 19.117 22.9105C19.119 23.0066 19.0868 23.1204 18.9984 23.2634L18.9981 23.2638C18.9164 23.3971 18.7595 23.494 18.5493 23.5485C18.3411 23.6025 18.0993 23.6094 17.8791 23.5786L17.8789 23.5785C17.6841 23.5515 17.4685 23.4868 17.2943 23.3833C17.1197 23.2795 17.0023 23.1467 16.9671 22.9874L16.9671 22.9874C16.9153 22.7537 16.6747 22.623 16.4482 22.6641ZM16.4482 22.6641L16.4747 22.8117M16.4482 22.6641C16.4481 22.6641 16.4479 22.6641 16.4478 22.6642L16.4747 22.8117M16.4747 22.8117C16.6341 22.7826 16.7889 22.8763 16.8206 23.0198L17.7524 24.247C16.9494 24.1305 16.3718 23.7012 16.2435 23.123C16.2124 22.9796 16.3153 22.8403 16.4747 22.8117ZM13.6767 11.0028L13.6767 11.0028L13.6758 11.003C13.389 11.0614 13.1486 11.2224 13.0412 11.4679C12.9325 11.7162 12.9857 11.9914 13.1566 12.2177L13.1567 12.2179L15.3595 15.1249C14.7233 15.4304 13.7501 16.0709 12.9032 17.3531C11.9817 18.7482 11.2165 20.8926 11.1873 24.17C10.7919 24.4951 9.84969 25.4062 9.84969 26.7353C9.84969 26.9787 10.0639 27.15 10.2938 27.15H25.8002C26.0301 27.15 26.2443 26.9787 26.2443 26.7353C26.2443 25.4062 25.3021 24.4951 24.9067 24.17C24.8767 20.8475 24.0906 18.6894 23.1523 17.2961C22.2811 16.0023 21.2849 15.377 20.6616 15.0907L22.2684 12.0225C22.2684 12.0224 22.2685 12.0222 22.2686 12.0221C22.5251 11.5393 22.2999 10.958 21.7965 10.7206C21.7965 10.7205 21.7964 10.7205 21.7963 10.7205L18.0649 8.95293C17.8111 8.8323 17.5201 8.81553 17.2664 8.91409C17.013 9.01156 16.8184 9.21523 16.7395 9.46459L16.3775 10.4718L13.6767 11.0028ZM16.3921 13.0381L16.3922 13.0378L17.5852 9.71779L17.5853 9.71783L17.5872 9.71192C17.5914 9.6983 17.5967 9.6904 17.6001 9.6864C17.6034 9.68265 17.6054 9.68188 17.6057 9.68176L17.6057 9.68176L17.6057 9.68181L17.6091 9.68043C17.6098 9.68025 17.6132 9.67956 17.6201 9.68022C17.6299 9.68113 17.6446 9.68458 17.6632 9.69325C17.6633 9.6933 17.6634 9.69335 17.6636 9.6934L21.3947 11.4598L21.3948 11.4598C21.4806 11.5003 21.5052 11.593 21.4725 11.6552L21.4725 11.6553L19.7786 14.8886H16.2685L13.9293 11.8007L16.0493 11.3837L15.5506 12.7723C15.5506 12.7724 15.5506 12.7725 15.5505 12.7726C15.466 13.0058 15.6147 13.2356 15.8382 13.301C16.0602 13.3666 16.312 13.2597 16.3921 13.0381ZM24.723 25.1929C24.9649 25.4752 25.213 25.86 25.3115 26.3206H10.7825C10.881 25.8599 11.1291 25.4751 11.371 25.1927C11.6297 24.8907 11.8733 24.7153 11.894 24.7006C12.0054 24.6246 12.0745 24.5015 12.0745 24.3672C12.0745 20.8858 12.9121 18.7841 13.8321 17.5244C14.7344 16.289 15.7252 15.8505 16.1149 15.7181H19.9791C20.3687 15.8505 21.3596 16.289 22.2619 17.5244C23.1819 18.7841 24.0195 20.8858 24.0195 24.3672C24.0195 24.5011 24.0883 24.6252 24.2006 24.701C24.2401 24.7297 24.4743 24.9027 24.723 25.1929Z" fill="white" stroke="white" stroke-width="0.3"/>
</g>
</svg>
