<svg width="6" height="5" viewBox="0 0 6 5" fill="none" xmlns="http://www.w3.org/2000/svg">
<path d="M2.88403 0C3.10204 0.0242226 3.22315 0.218003 3.29581 0.387561C3.63493 1.40491 4.31316 2.08314 5.35473 2.42226C5.47584 2.4707 5.69384 2.54337 5.69384 2.76137C5.69384 2.95516 5.54851 3.02782 5.35473 3.10049C4.48272 3.41538 3.73182 3.87561 3.24737 4.69918C3.07781 4.98985 2.81137 5.20786 2.52069 4.67496C2.06047 3.80295 1.2369 3.29427 0.340667 2.88249C0.219554 2.83404 0.0257715 2.93093 0.00154895 2.76137C-0.0226736 2.54337 0.243776 2.4707 0.340667 2.44648C1.21268 2.22848 1.74557 1.59869 2.2058 0.920458C2.37536 0.702455 2.49647 0.436007 2.59336 0.169558C2.64181 0.0484454 2.76292 0.0484452 2.88403 0Z" fill="black"/>
</svg>
