<svg width="81" height="81" viewBox="0 0 81 81" fill="none" xmlns="http://www.w3.org/2000/svg">
<path d="M11.9659 11.956C9.61116 14.3066 7.55528 16.9386 5.84477 19.7924C2.27472 25.7687 0.311868 32.5671 0.147086 39.5266C-0.0176959 46.4861 1.6212 53.3698 4.9044 59.5084C8.80405 66.7814 14.8309 72.6908 22.1793 76.4466C24.9463 77.8594 27.8684 78.9454 30.8864 79.6827C39.1767 81.7017 47.8925 81.0558 55.7946 77.8368C57.9439 76.9538 60.0124 75.8856 61.9766 74.6442C67.9173 70.9042 72.784 65.6844 76.0995 59.4968C77.4363 57.0112 78.5065 54.3913 79.2921 51.6807C81.2473 44.8796 81.3812 37.6842 79.6803 30.8152C77.9794 23.9461 74.5035 17.6445 69.6008 12.5416C64.698 7.43868 58.5405 3.71354 51.745 1.7393C44.9494 -0.234935 37.7544 -0.388963 30.8806 1.29265C27.8627 2.02908 24.9407 3.11412 22.1735 4.52589C18.404 6.45463 14.9598 8.96167 11.9659 11.956Z" stroke="white" stroke-width="0.27"/>
</svg>
