<svg width="11" height="5" viewBox="0 0 11 5" fill="none" xmlns="http://www.w3.org/2000/svg">
<path d="M5.00971 0.0129271C6.68603 0.0790977 7.98738 0.498176 9.04611 1.46868C9.42108 1.79953 9.8181 2.04216 10.2813 2.26273C10.7004 2.46124 11.0753 2.74798 10.9871 3.2994C10.9209 3.69642 10.3254 4.09345 9.79604 4.09345C9.13434 4.09345 8.56086 3.78465 8.07561 3.40968C6.48752 2.15244 4.78914 2.13039 3.09077 3.145C2.49523 3.49791 1.96587 4.04933 1.14976 3.96111C0.730685 3.91699 0.267491 3.89494 0.0910361 3.4538C-0.151589 2.88032 0.113093 2.04216 0.6204 1.82159C1.54679 1.40251 2.36289 0.718745 3.33339 0.365835C3.90687 0.145266 4.56857 -0.0532435 5.00971 0.0129271Z" fill="#4399F8"/>
</svg>
