<svg width="55" height="55" viewBox="0 0 55 55" fill="none" xmlns="http://www.w3.org/2000/svg">
<path d="M0 27.5C0 12.3122 12.3122 0 27.5 0C42.6878 0 55 12.3122 55 27.5C55 42.6878 42.6878 55 27.5 55C12.3122 55 0 42.6878 0 27.5Z" fill="#080450"/>
<path fill-rule="evenodd" clip-rule="evenodd" d="M27.6804 42.1889C27.826 42.2918 28.0079 42.3383 28.1888 42.3188H28.179C29.2855 42.1371 30.3738 41.8684 31.4326 41.5156C32.4944 41.1619 33.522 40.7229 34.5041 40.2035C34.5861 40.1612 34.6585 40.1041 34.7171 40.0355C34.7757 39.9668 34.8194 39.888 34.8457 39.8035C34.872 39.7189 34.8804 39.6303 34.8703 39.5427C34.8603 39.4551 34.832 39.3703 34.7871 39.293C34.7423 39.2157 34.6817 39.1474 34.6088 39.0922C34.536 39.037 34.4523 38.9958 34.3626 38.971C34.2729 38.9463 34.1788 38.9384 34.0859 38.9479C33.9929 38.9573 33.9028 38.984 33.8208 39.0262C32.9112 39.5116 31.9586 39.9219 30.9739 40.2525C29.9896 40.5815 28.9773 40.8307 27.948 40.9975C27.7706 41.036 27.6156 41.137 27.5147 41.2798C27.4139 41.4226 27.3748 41.5963 27.4056 41.7654C27.4364 41.9344 27.5348 42.0859 27.6804 42.1889ZM14.9823 14.3628L14.2861 11.9685L40.6697 11.9746L40.019 14.3199C39.9741 14.451 39.9695 14.5914 40.0058 14.7248C40.042 14.8583 40.1177 14.9794 40.2239 15.074C41.9873 16.6605 44.2236 20.7426 45.2052 22.8455C45.1994 22.8408 45.1936 22.8361 45.1878 22.8314C45.1947 22.8389 45.2005 22.8436 45.2052 22.8455C45.9806 25.4022 46.1224 28.0924 45.6196 30.7089C45.1168 33.3253 43.9829 35.7979 42.3054 37.9361C40.6279 40.0742 38.4515 41.8207 35.9442 43.0409C33.4369 44.2611 30.6657 44.9223 27.8442 44.9735C25.0228 45.0247 22.2266 44.4647 19.6712 43.3365C17.1159 42.2082 14.8697 40.5421 13.106 38.4664C11.3423 36.3908 10.1081 33.9611 9.49866 31.3649C8.88924 28.7687 8.92087 26.0753 9.5911 23.4924C9.63688 23.3753 9.77837 22.9654 9.93945 22.4987C10.1791 21.8045 10.462 20.9847 10.5379 20.8161C11.5129 18.6643 12.9382 16.7197 14.7286 15.0985C14.8386 15.0098 14.9205 14.8941 14.9653 14.7643C15.0101 14.6345 15.016 14.4955 14.9823 14.3628ZM46.7398 22.5491C46.6962 22.3765 46.657 22.2217 46.588 22.0669V22.073C46.3852 21.448 46.1462 20.834 45.8722 20.2336C44.868 18.0223 43.4234 16.0127 41.6165 14.3137L42.4039 11.4197C42.4557 11.232 42.4271 11.0325 42.3243 10.8644C42.2214 10.6964 42.0525 10.5732 41.854 10.5215C41.7912 10.507 41.7267 10.4998 41.662 10.5H13.2644C13.0573 10.5 12.8587 10.5775 12.7123 10.7155C12.5658 10.8535 12.4836 11.0406 12.4836 11.2358C12.483 11.3149 12.4962 11.3936 12.5226 11.4688L13.3555 14.3321C10.885 16.6608 9.10505 19.5587 8.19308 22.7372C7.28111 25.9158 7.26893 29.264 8.15774 32.4483C9.04656 35.6327 10.8053 38.542 13.2589 40.8866C15.7125 43.2311 18.7752 44.929 22.1419 45.8111C25.5087 46.6932 29.062 46.7288 32.4478 45.9142C35.8337 45.0997 38.9339 43.4634 41.4398 41.1685C43.9456 38.8735 45.7696 36 46.7299 32.8341C47.6903 29.6683 47.7535 26.3206 46.9134 23.1245C46.8296 22.9045 46.7826 22.7183 46.7398 22.5491Z" fill="white"/>
<path d="M35.6719 26.3546C36.1368 26.1751 36.6333 26.0666 37.1404 26.0339C38.3332 25.9216 37.5345 26.8998 37.1957 27.3148L37.1763 27.3386C37.5835 27.7599 37.964 28.1937 38.3325 28.652C38.64 29.14 39.1255 29.2782 39.7666 29.1257L40.4587 28.905C40.4971 28.8928 40.5455 28.8762 40.6014 28.857C41.0781 28.6931 42.0949 28.3437 41.9989 28.9917C41.8468 29.4719 41.3459 29.9393 40.8112 30.4074C40.8091 30.731 40.7857 31.054 40.7413 31.375C40.6196 32.3193 40.1792 32.3536 39.7331 31.5607L39.1182 30.462C38.9186 30.0654 38.6212 29.9149 38.2751 29.9372C37.8953 29.958 37.5479 30.0286 37.1906 30.1012C36.5522 30.2309 35.8819 30.3671 34.9376 30.2372C34.931 30.5712 34.8878 30.9035 34.8087 31.2296C34.7015 31.4769 34.4971 31.5286 34.1443 31.2867C33.7578 30.859 33.465 30.3716 33.2811 29.8496C33.0227 29.6716 32.778 29.4786 32.5485 29.2719C33.2339 29.0255 33.8182 28.6019 34.2255 28.056C34.6268 27.4621 34.8202 26.7752 34.7814 26.0814L34.7664 26.0787L34.7814 26.0808L34.7814 26.0814C35.0899 26.1384 35.3892 26.2302 35.6719 26.3546Z" fill="white"/>
<path fill-rule="evenodd" clip-rule="evenodd" d="M34.4528 26.0256C33.279 25.8657 31.8555 26.0069 31.1906 26.6153L32.1869 27.236L31.0611 26.9732C31.09 27.5454 31.5812 28.338 32.3098 29.0452C32.9768 28.8243 33.5477 28.4243 33.9432 27.901C34.3121 27.3519 34.4888 26.7174 34.4511 26.077C34.4479 26.0599 34.4484 26.0425 34.4528 26.0256ZM33.1361 26.5021C33.0638 26.4888 32.9888 26.4945 32.9206 26.5187C32.8741 26.5351 32.8319 26.5597 32.7964 26.5909C32.761 26.6221 32.733 26.6594 32.7142 26.7004C32.6954 26.7415 32.6862 26.7855 32.687 26.83C32.6878 26.8744 32.6987 26.9183 32.719 26.959C32.7488 27.0189 32.7978 27.0698 32.8599 27.1054C32.9221 27.141 32.9945 27.1597 33.0682 27.1591C33.1419 27.1585 33.2137 27.1388 33.2745 27.1023C33.3353 27.0657 33.3824 27.0141 33.41 26.9538C33.4376 26.8935 33.4445 26.8272 33.4297 26.7632C33.4149 26.6991 33.3792 26.6402 33.327 26.5938C33.2748 26.5474 33.2084 26.5155 33.1361 26.5021Z" fill="white"/>
<path d="M9 22.4241C11.3333 20.7575 15.5 17.9239 19 19.4241C21.6512 20.5605 25 20.9238 27.5 20.4239C33.5 18.5 41.5 20 45.5 22" stroke="white" stroke-width="1.5"/>
</svg>
