<svg width="16" height="13" viewBox="0 0 16 13" fill="none" xmlns="http://www.w3.org/2000/svg">
<path d="M1.10521 11.8802C1.43678 11.217 1.98938 10.7308 2.49777 10.2224C3.49246 9.27187 4.50926 8.36559 5.63657 7.59195C5.81341 7.48142 5.72499 7.43722 5.65868 7.3267C5.54816 7.14986 5.54816 7.17197 5.37132 7.30459C3.6914 8.54243 2.16621 9.91289 0.663128 11.3497C0.486294 11.5044 0.353667 11.7697 0 11.6591C0.221042 11.2391 0.442083 10.8634 0.839959 10.6202C1.32625 10.156 1.61361 9.51502 2.0999 9.05083C2.51988 8.71926 2.87355 8.29928 3.24932 7.92351C3.6472 7.54774 4.00086 7.12776 4.53136 6.88461C3.71351 7.28249 3.20511 8.01193 2.56409 8.60874C2.40936 8.74137 2.32094 8.9182 2.0999 8.96241C1.92307 8.94031 1.85675 8.85189 1.94517 8.67506C3.1388 6.90671 4.59767 5.42573 6.3218 4.14368C7.84699 2.99426 9.4827 2.08799 11.1847 1.27013C12.1573 0.80594 13.152 0.430168 14.1246 0.0322916C14.5004 -0.122438 14.5225 0.319647 14.6109 0.496481C15.0972 1.6459 15.4066 2.86164 15.7161 4.05527C16.0034 5.20469 16.0477 6.37621 15.9592 7.56984C15.915 8.21087 14.9424 9.00662 14.1688 9.13924C11.6268 9.53712 9.65954 8.43191 8.64274 6.04465C8.59854 5.91202 8.4217 5.84571 8.46591 5.69098C8.20066 5.38152 8.51012 4.93944 8.24487 4.62998C8.11224 4.2542 7.95751 4.56366 7.80278 4.60787C7.40491 4.85102 7.00704 5.07206 6.63126 5.31521C6.3218 5.51415 6.21128 5.82361 6.34391 6.17727C6.43233 6.42042 6.45443 6.75199 6.58705 6.90671C6.98493 7.41511 6.71968 7.70247 6.34391 7.98982C4.68609 9.22766 3.09459 10.576 1.5915 12.0349C1.52519 12.1012 1.45888 12.1454 1.37046 12.1233C1.21573 12.057 1.12732 12.0128 1.10521 11.8802Z" fill="#3A91F8"/>
</svg>
