<svg width="76" height="41" viewBox="0 0 76 41" fill="none" xmlns="http://www.w3.org/2000/svg">
<path d="M17.9369 23.7304C17.9369 23.5314 17.9148 23.3103 17.9148 23.1113C17.7158 22.846 17.9369 22.4922 17.7158 22.2269C17.5611 21.0551 17.2515 19.9053 16.8978 18.7777C16.4998 17.5174 16.0134 16.3014 15.5712 15.0632C15.4385 14.6874 15.2837 14.621 14.9521 14.6652C14.4214 14.7537 13.9129 14.9969 13.4265 15.1959C11.5914 15.8813 9.86678 16.7878 8.12008 17.6722C6.48394 18.5124 4.95835 19.5295 3.47698 20.5908C2.37147 21.3867 1.28808 22.2269 0.248911 23.1113C0.00570083 23.1997 -0.0385209 23.1113 0.0278092 22.8902C1.02276 20.436 2.4378 18.2692 4.02973 16.1687C5.55532 14.1346 7.23568 12.2774 9.11504 10.5749C11.1049 8.76185 13.2717 7.16993 15.5712 5.75488C17.6495 4.49461 19.8384 3.49965 22.0936 2.59314C23.575 1.99617 25.1227 1.62029 26.6483 1.15598C26.8252 1.11176 27.0021 1.11176 27.1789 1.08965C27.3779 0.934881 27.6654 1.08965 27.8422 0.890661C28.2844 0.868551 28.6603 0.60323 29.1246 0.64745C29.3236 0.470569 29.611 0.62534 29.81 0.470569C32.5296 0.0504772 35.2712 -0.0600732 38.035 0.0283671C39.6711 0.0946974 41.263 0.337908 42.8771 0.62534C44.2258 0.868551 45.5524 1.2002 46.8569 1.57607C47.9845 1.90772 49.09 2.30571 50.1955 2.74791C51.7432 3.34488 53.2246 4.03029 54.7059 4.75993C55.8336 5.33479 56.8948 6.0202 57.9561 6.70562C60.8525 8.60708 63.5057 10.8181 65.8273 13.405C67.972 15.815 69.8734 18.4019 71.4875 21.2319C72.4603 22.9344 73.2563 24.6811 73.9417 26.4941C74.4502 27.8429 74.804 29.2358 75.1135 30.6508C75.3788 31.9332 75.6663 33.1935 75.7326 34.498C75.9316 34.7633 75.7105 35.1171 75.9095 35.3824C75.9316 36.0015 75.8874 36.6427 75.9758 37.2618C76.0864 38.0577 75.821 38.5441 75.0914 38.92C73.8532 39.5612 72.6151 40.1803 71.2221 40.3351C70.8684 40.4677 70.4925 40.5119 70.1388 40.313C70.1388 40.2466 70.1388 40.1803 70.1388 40.114C70.2935 39.915 70.1609 39.6275 70.3156 39.4286C70.2935 38.1904 70.6252 36.9743 70.5146 35.7362C70.4041 34.3874 70.3156 33.0608 70.0724 31.7342C69.6744 29.5674 68.9227 27.5112 67.9056 25.5655C66.5569 22.9565 64.6776 20.7234 62.4887 18.7777C61.0957 17.5396 59.5702 16.5446 57.9782 15.5939C57.5581 15.3507 57.2265 15.4612 56.9391 15.9255C56.0989 17.2963 55.4798 18.7335 54.9934 20.2591C54.5954 21.5194 54.308 22.8239 54.109 24.1284C53.9984 24.7696 53.9763 25.3886 53.9321 26.0298C53.8879 26.7152 53.7773 27.4007 53.7552 28.1082C53.711 29.3021 53.8436 30.474 54.0205 31.6237C54.2195 32.9061 54.507 34.1885 54.9713 35.4266C55.325 36.3552 55.723 37.2397 56.2758 38.0798C56.3421 38.1904 56.3863 38.3009 56.32 38.4336C56.2315 38.6326 56.121 38.4557 56.0104 38.4557C54.9934 38.4778 53.9763 38.3009 52.9593 38.5441C52.716 38.6105 52.4507 38.5663 52.2075 38.5663C49.488 38.7431 46.7684 38.9421 44.0489 38.7874C43.8499 38.6105 43.5625 38.7652 43.3635 38.6105C42.4349 38.5663 41.5505 38.2567 40.6661 38.0135C39.3837 37.6597 38.1897 37.1512 36.8852 36.51C37.5928 36.3995 38.1897 36.311 38.7867 36.2447C39.8701 36.112 40.8651 35.7583 41.9042 35.4266C43.2972 34.9844 44.5795 34.3432 45.8619 33.6578C47.277 32.9061 48.6257 32.0659 49.8417 31.0046C50.1292 30.7614 50.4166 30.5182 50.704 30.275C51.0357 29.9875 51.0357 29.479 50.6156 29.1695C49.9302 28.683 49.2669 28.683 48.5815 29.1916C47.4317 30.0539 46.2378 30.8277 44.9333 31.3805C42.855 32.2428 41.0419 31.7342 39.7817 29.8107C39.1184 28.7936 38.7204 27.6439 38.6762 26.4057C38.6762 26.273 38.7425 26.0962 38.4993 26.0741C38.3224 26.0519 38.2782 26.1404 38.1897 26.273C37.637 27.3343 37.438 28.3956 37.7475 29.6117C38.0792 30.8719 38.6983 31.8448 39.7374 32.6186C40.1354 32.9061 40.5555 33.1051 40.9977 33.2819C40.8651 33.7905 40.3565 33.6578 40.047 33.7905C38.5656 34.3653 36.6863 33.7241 35.6913 32.4197C35.3375 31.9332 34.9838 31.4468 34.7848 30.8719C34.6964 30.7393 34.63 30.5845 34.63 30.4297C34.5637 28.7936 34.4753 27.1353 35.4481 25.7203C35.9345 24.9907 36.3325 24.1505 37.1063 23.6419C37.6149 23.5535 37.836 23.045 38.3445 22.8239C37.9908 22.5807 37.7033 22.6028 37.438 22.6912C36.9074 22.8681 36.3767 22.846 35.8461 22.8681C35.2049 22.8681 34.5637 22.8239 33.9225 23.045C33.7456 23.1113 33.5245 23.0892 33.3476 22.9786C33.2371 22.9123 33.1265 22.8239 33.3034 22.6912C34.2984 22.2711 35.2933 21.8952 36.3767 21.7847C36.9737 21.7184 37.5707 21.652 38.1676 21.6299C39.4942 21.5857 40.6882 22.05 41.86 22.5364C43.4077 23.1997 44.8228 24.0841 46.1715 25.057C46.1936 25.057 46.2157 25.0791 46.2157 25.0791C46.5916 25.4329 47.277 25.6982 47.2991 26.1404C47.3433 26.5605 46.5916 26.6931 46.1936 26.9363C44.9775 27.666 43.9605 28.6167 42.9876 29.6117C42.8771 29.7222 42.7886 29.8991 42.7223 30.0539C42.6118 30.2971 42.3907 30.5403 42.7002 30.8056C42.9876 31.0267 43.2972 30.9604 43.5846 30.7835C44.3806 30.2971 45.1544 29.7885 45.9504 29.3021C46.6579 28.8599 47.3654 28.3956 48.1614 28.0419C48.6036 27.8429 48.891 28.0197 49.1784 28.2408C49.3995 28.3956 49.5764 28.3735 49.7533 28.2408C49.9523 28.0861 50.1292 27.8871 50.306 27.7102C51.102 26.9142 51.102 26.5384 50.306 25.7203C49.4216 24.8359 48.4709 24.0399 47.4981 23.2882C45.8619 22.0279 44.071 21.0108 42.1917 20.1928C41.1304 19.7285 40.0028 19.3747 38.8973 19.0209C37.438 18.5787 35.9787 18.0481 34.5195 17.5838C33.6351 17.3185 32.7507 17.1195 31.8442 16.8763C31.2251 16.6994 30.606 16.5225 30.009 16.3235C29.8543 16.2793 29.7437 16.2351 29.6553 16.3898C27.8865 19.0873 25.2111 20.7676 22.6906 22.6028C21.9831 23.1334 21.2313 23.6419 20.4133 24.0399C20.2143 24.1284 19.9711 24.3052 20.3027 24.6148C21.5188 25.8087 22.4253 27.2459 23.2655 28.7052C23.4423 28.9926 23.4202 29.28 23.2876 29.5453C22.8012 30.5403 22.3811 31.5574 22.0715 32.6408C21.9389 33.1051 21.7399 33.5473 21.6293 34.0337C21.5851 34.2106 21.4746 34.3432 21.2535 34.3432C19.75 34.3432 18.2465 34.3432 16.7209 34.3432C17.0083 33.3704 17.2958 32.4639 17.5611 31.5352C17.738 31.3584 17.5832 31.0488 17.7601 30.8719C18.2023 29.0368 18.2465 27.1574 18.1802 25.2781C18.0033 24.9907 18.1138 24.659 18.0917 24.3495C18.0254 24.1505 18.0696 23.9294 17.9369 23.7304Z" fill="black"/>
</svg>
