<svg width="20" height="19" viewBox="0 0 20 19" fill="none" xmlns="http://www.w3.org/2000/svg">
<path d="M5.6769 2.30262L5.6769 2.30261L5.67593 2.30281C5.38919 2.36116 5.14878 2.52217 5.04135 2.76767C4.93266 3.01604 4.98581 3.29118 5.15671 3.51751L5.15686 3.51771L7.35961 6.4247C6.72344 6.73018 5.75029 7.3707 4.90338 8.65289C3.98186 10.048 3.21668 12.1924 3.18747 15.4698C2.79202 15.7949 1.84985 16.706 1.84985 18.0351C1.84985 18.2785 2.06403 18.4498 2.29397 18.4498H17.8003C18.0303 18.4498 18.2444 18.2785 18.2444 18.0351C18.2444 16.706 17.3023 15.7949 16.9068 15.4698C16.8769 12.1473 16.0908 9.98924 15.1525 8.59586C14.2812 7.30206 13.285 6.67684 12.6618 6.3905L14.2685 3.32233C14.2686 3.32219 14.2687 3.32205 14.2687 3.32191C14.5253 2.83911 14.3001 2.25775 13.7967 2.02037C13.7966 2.02034 13.7966 2.02031 13.7965 2.02028L10.0651 0.252733C9.8113 0.132107 9.5202 0.115333 9.26655 0.21389C9.01316 0.311368 8.81857 0.51504 8.73963 0.764399L8.37765 1.7716L5.6769 2.30262ZM8.39226 4.33795L8.39238 4.33764L9.58535 1.0176L9.58547 1.01764L9.58732 1.01173C9.5916 0.998102 9.59681 0.990205 9.60026 0.986207C9.60352 0.98245 9.60553 0.981684 9.60585 0.981562L9.60585 0.98156L9.60587 0.98161L9.60921 0.980235C9.60992 0.980059 9.61331 0.979368 9.62026 0.980021C9.63004 0.980938 9.64471 0.984384 9.66338 0.993056C9.66349 0.993106 9.6636 0.993157 9.66371 0.993207L13.3948 2.75956L13.395 2.75962C13.4808 2.80014 13.5053 2.89283 13.4727 2.95503L13.4726 2.95515L11.7788 6.18844H8.2687L5.92946 3.10052L8.04947 2.6835L7.5508 4.0721C7.55076 4.0722 7.55073 4.0723 7.55069 4.0724C7.46618 4.30557 7.61481 4.53537 7.83831 4.60077C8.06039 4.66645 8.31211 4.55946 8.39226 4.33795ZM16.7232 16.4927C16.9651 16.775 17.2132 17.1598 17.3116 17.6204H2.78266C2.88112 17.1597 3.12922 16.7749 3.37115 16.4925C3.62987 16.1905 3.87345 16.0151 3.89419 16.0004C4.00552 15.9244 4.07461 15.8013 4.07461 15.667C4.07461 12.1856 4.91224 10.0839 5.83227 8.82416C6.73451 7.58878 7.7254 7.15026 8.11505 7.01787H11.9792C12.3689 7.15026 13.3598 7.58878 14.262 8.82416C15.1821 10.0839 16.0197 12.1856 16.0197 15.667C16.0197 15.8009 16.0884 15.925 16.2007 16.0008C16.2403 16.0295 16.4745 16.2025 16.7232 16.4927Z" fill="white" stroke="white" stroke-width="0.3"/>
<path d="M10.1882 12.272L10.1881 12.272L10.447 12.4332L10.4476 12.4335L10.4619 12.4423C10.8904 12.7066 11.4004 13.021 11.7121 13.418C11.8727 13.6224 11.9871 13.8562 12.0083 14.123C12.0295 14.3908 11.9554 14.6751 11.7684 14.9775C11.5173 15.3856 11.0377 15.6238 10.4912 15.6944V16.3388C10.4912 16.5825 10.2763 16.7536 10.0471 16.7536C9.81638 16.7536 9.60299 16.5821 9.60299 16.3388V15.6737C8.82884 15.5261 8.23705 15.0836 8.09768 14.4553L8.09754 14.4547C8.04545 14.215 8.21965 14.0051 8.44853 13.9639M10.1882 12.272L9.75358 9.62199C9.38827 9.66117 9.05826 9.80147 8.80002 10.0466L8.6968 9.93775C8.69679 9.93777 8.69677 9.93778 8.69675 9.9378C8.33963 10.2765 8.1672 10.6918 8.22292 11.1357C8.28519 11.6376 8.61354 12.066 8.93268 12.3754C9.2539 12.6868 9.58664 12.8975 9.69847 12.9642L9.95667 13.125L9.95725 13.1253C10.4815 13.4484 10.826 13.6868 10.998 13.9124C11.0801 14.02 11.1156 14.1158 11.1176 14.2103C11.1196 14.3064 11.0874 14.4202 10.999 14.5632L10.9987 14.5636C10.917 14.6969 10.76 14.7938 10.5499 14.8483C10.3417 14.9023 10.0999 14.9092 9.87969 14.8784L9.8795 14.8783C9.68465 14.8513 9.46907 14.7866 9.29492 14.6831C9.12031 14.5793 9.00288 14.4465 8.96766 14.2872L8.96765 14.2872C8.9159 14.0534 8.67506 13.9227 8.44853 13.9639M10.1882 12.272L10.1862 12.2708C9.93206 12.1181 9.67104 11.9131 9.46789 11.6905C9.26187 11.4647 9.13031 11.2373 9.10535 11.0398C9.08373 10.8629 9.14557 10.6952 9.33042 10.5196C9.58208 10.2807 9.89747 10.2643 10.133 10.2973C10.3458 10.328 10.5611 10.411 10.7433 10.5259C10.9266 10.6415 11.0668 10.7831 11.1406 10.9238C11.2493 11.1334 11.5124 11.207 11.722 11.1194L11.7224 11.1193C11.9407 11.0273 12.0524 10.7787 11.9385 10.5598L11.9383 10.5594C11.6821 10.0703 11.1049 9.67529 10.4918 9.52457V8.84479C10.4918 8.60117 10.2769 8.43008 10.0477 8.43008C9.81697 8.43008 9.60358 8.60154 9.60358 8.84479V9.4917L10.1882 12.272ZM8.44853 13.9639C8.44863 13.9639 8.44873 13.9639 8.44883 13.9639L8.4753 14.1115L8.44835 13.964C8.44841 13.964 8.44847 13.964 8.44853 13.9639Z" fill="white" stroke="white" stroke-width="0.3"/>
</svg>
