<svg width="24" height="24" viewBox="0 0 24 24" fill="none" xmlns="http://www.w3.org/2000/svg">
<path d="M4.87025 6.92285C4.77141 6.92285 4.67354 6.94238 4.58227 6.98032C4.491 7.01826 4.40813 7.07386 4.33841 7.14393C4.26869 7.21399 4.21351 7.29715 4.17603 7.38861C4.13855 7.48007 4.11951 7.57803 4.12001 7.67687C4.12051 7.87552 4.19978 8.06586 4.34042 8.20615C4.48106 8.34643 4.6716 8.42522 4.87025 8.42522H17.8907C18.7033 8.42522 19.2646 8.97325 19.2646 9.58553V10.8951C19.2643 10.9937 19.2835 11.0913 19.321 11.1824C19.3584 11.2735 19.4135 11.3563 19.483 11.4262C19.5525 11.496 19.635 11.5515 19.726 11.5894C19.8169 11.6274 19.9144 11.647 20.0129 11.6473C20.1116 11.6473 20.2093 11.6278 20.3005 11.59C20.3916 11.5522 20.4744 11.4967 20.5441 11.4269C20.6138 11.357 20.669 11.2741 20.7066 11.1828C20.7442 11.0916 20.7634 10.9938 20.7632 10.8951V9.58553C20.7632 8.07939 19.429 6.92285 17.8907 6.92285H4.87025Z" fill="#080450"/>
<path d="M17.9134 10.1449C16.8173 10.1449 15.9102 11.052 15.9102 12.1499V13.6523C15.9102 14.7484 16.8173 15.6555 17.9134 15.6555H19.9978C21.0939 15.6555 22.001 14.7484 22.001 13.6523V12.1499C22.001 11.0539 21.0939 10.1468 19.9978 10.1468L17.9134 10.1449ZM17.9134 11.6473H19.9978C20.0642 11.6457 20.1303 11.6577 20.192 11.6824C20.2537 11.7071 20.3097 11.744 20.3567 11.791C20.4037 11.838 20.4407 11.8941 20.4654 11.9558C20.4901 12.0174 20.502 12.0835 20.5005 12.1499V13.6523C20.502 13.7187 20.4901 13.7848 20.4654 13.8465C20.4407 13.9082 20.4037 13.9642 20.3567 14.0112C20.3097 14.0582 20.2537 14.0952 20.192 14.1199C20.1303 14.1446 20.0642 14.1565 19.9978 14.155H17.9153C17.8489 14.1565 17.7828 14.1446 17.7211 14.1199C17.6594 14.0952 17.6034 14.0582 17.5564 14.0112C17.5094 13.9642 17.4724 13.9082 17.4477 13.8465C17.423 13.7848 17.4111 13.7187 17.4126 13.6523V12.1499C17.4111 12.0835 17.423 12.0174 17.4477 11.9558C17.4724 11.8941 17.5094 11.838 17.5564 11.791C17.6034 11.744 17.6594 11.7071 17.7211 11.6824C17.7828 11.6577 17.847 11.6457 17.9134 11.6473ZM11.4844 15.4589C11.3856 15.4584 11.2876 15.4775 11.1962 15.5149C11.1047 15.5524 11.0215 15.6076 10.9515 15.6773C10.8814 15.747 10.8258 15.8299 10.7879 15.9212C10.7499 16.0124 10.7304 16.1103 10.7304 16.2092V20.1436C10.7304 20.2425 10.7499 20.3404 10.7879 20.4316C10.8258 20.5229 10.8814 20.6058 10.9515 20.6755C11.0215 20.7452 11.1047 20.8004 11.1962 20.8379C11.2876 20.8753 11.3856 20.8944 11.4844 20.8939C11.6831 20.8934 11.8734 20.8141 12.0137 20.6735C12.154 20.5328 12.2328 20.3423 12.2328 20.1436V16.2092C12.2323 16.0108 12.1533 15.8208 12.013 15.6805C11.8728 15.5403 11.6827 15.4594 11.4844 15.4589Z" fill="#080450"/>
<path d="M9.50206 17.4054C9.3039 17.4051 9.11368 17.4832 8.97293 17.6227C8.83198 17.7629 8.75242 17.9532 8.75171 18.152C8.751 18.3508 8.82921 18.5417 8.96915 18.6829L10.9534 20.6728C11.0935 20.8131 11.2834 20.8923 11.4818 20.893C11.6801 20.8938 11.8706 20.8159 12.0117 20.6766C12.152 20.5365 12.2312 20.3465 12.2319 20.1482C12.2326 19.9499 12.1548 19.7594 12.0154 19.6183L10.0331 17.6246C9.96347 17.5546 9.88073 17.4991 9.7896 17.4611C9.69848 17.4232 9.60077 17.4036 9.50206 17.4035V17.4054Z" fill="#080450"/>
<path d="M13.4611 17.4054C13.2624 17.4061 13.0721 17.4856 12.932 17.6265L10.9496 19.6164C10.8098 19.757 10.7312 19.9472 10.7312 20.1455C10.7312 20.3438 10.8098 20.5341 10.9496 20.6747C11.0195 20.7446 11.1025 20.8001 11.1938 20.8379C11.2852 20.8757 11.3831 20.8951 11.482 20.8949C11.5809 20.8948 11.6787 20.875 11.7699 20.8369C11.8612 20.7988 11.9441 20.7437 12.0137 20.6735L13.9921 18.6829C14.1315 18.5418 14.2093 18.3512 14.2086 18.1529C14.2079 17.9546 14.1287 17.7647 13.9884 17.6246C13.8479 17.4844 13.6595 17.4056 13.4611 17.4054ZM2.75182 5.01608C2.55318 5.01608 2.36264 5.09487 2.22199 5.23515C2.08135 5.37544 2.00209 5.56578 2.00159 5.76443V16.2715C2.00159 17.7758 3.33198 18.9285 4.87025 18.9285H7.00001C7.19866 18.928 7.389 18.8488 7.52929 18.7081C7.66958 18.5675 7.74836 18.3769 7.74836 18.1783C7.74786 17.98 7.66886 17.7899 7.52862 17.6497C7.38839 17.5094 7.19833 17.4304 7.00001 17.4299H4.87025C4.05765 17.4299 3.50017 16.8819 3.50017 16.2715V5.76443C3.49967 5.56611 3.42067 5.37605 3.28043 5.23582C3.1402 5.09559 2.95014 5.01658 2.75182 5.01608ZM20.0129 14.155C19.9144 14.1552 19.8169 14.1749 19.726 14.2128C19.635 14.2507 19.5525 14.3062 19.483 14.3761C19.4135 14.4459 19.3584 14.5287 19.321 14.6199C19.2835 14.711 19.2643 14.8086 19.2646 14.9071V16.2677C19.2646 16.88 18.7033 17.4281 17.8907 17.4281H16.001C15.9024 17.4278 15.8048 17.447 15.7137 17.4844C15.6226 17.5219 15.5397 17.577 15.4699 17.6465C15.4001 17.7159 15.3446 17.7985 15.3067 17.8894C15.2687 17.9804 15.2491 18.0779 15.2488 18.1764C15.2488 18.2751 15.2683 18.3728 15.3061 18.4639C15.3439 18.5551 15.3994 18.6379 15.4692 18.7076C15.5391 18.7773 15.622 18.8325 15.7133 18.8701C15.8045 18.9077 15.9023 18.9269 16.001 18.9266H17.8907C19.429 18.9266 20.7632 17.7739 20.7632 16.2696V14.9071C20.7634 14.8084 20.7442 14.7107 20.7066 14.6194C20.669 14.5282 20.6138 14.4453 20.5441 14.3754C20.4744 14.3055 20.3916 14.2501 20.3005 14.2123C20.2093 14.1744 20.1116 14.155 20.0129 14.155Z" fill="#080450"/>
<path d="M4.87025 3.10742C3.33387 3.10742 2.00159 4.26018 2.00159 5.76443C2.00159 7.26868 3.33387 8.42522 4.87025 8.42522C4.96877 8.42547 5.06638 8.40631 5.1575 8.36883C5.24861 8.33136 5.33146 8.2763 5.4013 8.20681C5.47114 8.13732 5.52661 8.05476 5.56454 7.96383C5.60248 7.8729 5.62213 7.77539 5.62237 7.67687C5.62287 7.57787 5.60377 7.47975 5.56618 7.38817C5.52858 7.29659 5.47323 7.21335 5.40331 7.14326C5.33339 7.07317 5.2503 7.01761 5.15881 6.97978C5.06732 6.94195 4.96925 6.9226 4.87025 6.92285C4.06332 6.92285 3.50017 6.36915 3.50017 5.76443C3.50017 5.15971 4.06332 4.606 4.87025 4.606H16.2145C16.7361 4.606 17.1443 5.01419 17.1443 5.53577V7.67687C17.1448 7.87519 17.2238 8.06525 17.364 8.20548C17.5042 8.34571 17.6943 8.42472 17.8926 8.42522C18.0913 8.42522 18.2818 8.34643 18.4224 8.20615C18.5631 8.06586 18.6423 7.87552 18.6428 7.67687V5.53577C18.6404 4.8925 18.3837 4.27628 17.9289 3.82142C17.474 3.36655 16.8578 3.10991 16.2145 3.10742H4.87025Z" fill="#080450"/>
</svg>
