<svg width="8" height="7" viewBox="0 0 8 7" fill="none" xmlns="http://www.w3.org/2000/svg">
<path d="M5.61109 0.633115C6.27527 0.518603 6.89362 0.175067 7.5807 0.106359C7.69521 0.106359 7.87843 -0.076861 7.97004 0.0376514C8.08455 0.175066 7.83263 0.266676 7.83263 0.404091C7.23716 0.747628 6.6417 1.06826 6.04624 1.4118C4.28275 2.3737 2.93151 3.77075 1.58027 5.21361C1.25963 5.55715 0.938994 5.90068 0.595457 6.24422C0.480945 6.35873 0.389338 6.51905 0.183217 6.45035C-0.0458076 6.38164 0.0687073 6.17551 0 6.0152C0.618366 4.68685 1.55736 3.63334 2.61088 2.67144C2.67958 2.60273 2.70248 2.53402 2.72539 2.44241C3.36666 2.12178 3.8018 1.52631 4.46597 1.22858C4.85531 1.02246 5.22175 0.839238 5.61109 0.633115Z" fill="#ECFBFE"/>
</svg>
