<svg width="25" height="23" viewBox="0 0 25 23" fill="none" xmlns="http://www.w3.org/2000/svg">
<path d="M5.33451 21.9214C5.48939 21.9547 5.65014 21.9422 5.79851 21.8852C5.94689 21.8282 6.07694 21.729 6.1739 21.5988C7.30881 20.083 8.23032 18.4064 8.91058 16.6195C8.97198 16.4341 9.06842 16.2634 9.1942 16.1175C9.31998 15.9716 9.47255 15.8534 9.64291 15.7699C9.81327 15.6864 9.99796 15.6393 10.1861 15.6314C10.3742 15.6234 10.5619 15.6548 10.7382 15.7237C12.0036 16.1631 13.3573 16.2508 14.6652 15.9784L15.3346 17.0624C15.5725 17.4477 15.9476 17.7187 16.3774 17.816C16.8072 17.9132 17.2565 17.8286 17.6264 17.5808C18.2153 17.1894 18.6859 16.6326 18.9841 15.9747C19.2636 15.3578 19.3807 14.6755 19.3248 13.9975C19.3227 13.9724 19.3204 13.9473 19.3178 13.9221C19.3158 13.9021 19.3136 13.8821 19.3113 13.862C20.6877 12.8689 21.8134 11.5442 22.5929 10.0007C23.3723 8.45716 23.7824 6.74041 23.7882 4.99643C23.7858 4.60981 23.6779 4.23188 23.4771 3.9067C23.2763 3.58153 22.9909 3.32252 22.6541 3.15988C21.1281 2.44225 19.4583 2.11897 17.7866 2.21753C16.1149 2.31608 14.4908 2.83356 13.0523 3.72597C12.7003 3.50319 12.3155 3.34207 11.9134 3.24903C11.4347 3.14074 10.9402 3.13193 10.4582 3.22311C9.9762 3.31429 9.51623 3.50366 9.10465 3.78037C8.73475 4.02817 8.4745 4.41886 8.38117 4.8665C8.28784 5.31415 8.36905 5.78208 8.60696 6.16735L9.27614 7.25105C8.49586 8.37781 8.01113 9.69699 7.86976 11.0784C7.85688 11.2741 7.80649 11.4651 7.72157 11.6401C7.63665 11.8151 7.51893 11.9707 7.37534 12.0975C7.23176 12.2244 7.06523 12.32 6.88559 12.3787C6.70594 12.4374 6.51683 12.4581 6.3294 12.4394C4.48632 12.343 2.63946 12.5208 0.844593 12.9675C0.690577 13.0054 0.549849 13.0875 0.438422 13.2045C0.326996 13.3215 0.249346 13.4688 0.214307 13.6295C0.177984 13.7921 0.18619 13.962 0.237993 14.12C0.289797 14.278 0.383118 14.4177 0.507346 14.5231C1.69897 15.4855 3.0607 16.1944 4.51501 16.6094C4.28934 18.0631 4.32319 19.5468 4.614 20.9861C4.63339 21.0821 4.65392 21.1778 4.67559 21.2734C4.7162 21.4348 4.79949 21.5811 4.91597 21.6956C5.03246 21.8102 5.17747 21.8884 5.33451 21.9214ZM17.1779 16.8544C16.9929 16.9783 16.7683 17.0206 16.5534 16.972C16.3385 16.9234 16.1509 16.7879 16.032 16.5953L15.5249 15.7741C16.4421 15.498 17.3247 15.1114 18.1549 14.6224C18.2735 14.5526 18.391 14.4806 18.5075 14.4066C18.5024 14.5901 18.4819 14.7727 18.4462 14.9524C18.3652 15.3407 18.2115 15.7086 17.9939 16.0349C17.7762 16.3613 17.4989 16.6398 17.1779 16.8544ZM9.30432 5.7002C9.18536 5.50756 9.14475 5.2736 9.19142 5.04978C9.23809 4.82595 9.36821 4.63061 9.55316 4.50671C9.87309 4.29165 10.2306 4.14438 10.6052 4.07332C10.9798 4.00226 11.3642 4.0088 11.7363 4.09257C11.9097 4.13356 12.0792 4.19021 12.2431 4.26187C11.3396 4.89894 10.5218 5.6588 9.81136 6.52132L9.30432 5.7002ZM5.4023 16.378C5.42561 16.2661 5.4053 16.1492 5.34584 16.0529C5.28637 15.9566 5.19262 15.8888 5.0852 15.8645C3.79596 15.551 2.57692 14.987 1.49143 14.2037C1.33636 14.0918 1.18402 13.9755 1.03458 13.8547L1.03926 13.8064C1.05138 13.8034 1.0635 13.8004 1.07562 13.7975C1.10587 13.79 1.13614 13.7827 1.16641 13.7754C2.83038 13.3763 4.53901 13.2152 6.24513 13.2967C6.55498 13.3336 6.86658 13.3008 7.15961 13.203C7.33543 13.1444 7.50456 13.0624 7.66263 12.9581C7.95577 12.7599 8.20122 12.4941 8.38003 12.1813C8.55885 11.8685 8.66623 11.5171 8.69389 11.1542C8.81507 9.76597 9.54821 7.077 13.1152 4.68753C14.4624 3.76633 16.0115 3.21505 17.6183 3.08497C19.225 2.9549 20.8373 3.25026 22.305 3.94358C22.4682 4.01916 22.6106 4.13596 22.7195 4.2834C22.8284 4.43084 22.9002 4.60424 22.9284 4.7879L21.6094 5.67151C21.5169 5.73346 21.4518 5.83113 21.4285 5.94304C21.4052 6.05496 21.4255 6.17194 21.4849 6.26826C21.5444 6.36457 21.6382 6.43234 21.7456 6.45664C21.8531 6.48095 21.9654 6.4598 22.0579 6.39785L22.9229 5.81835C22.8025 7.3541 22.3398 8.83941 21.5715 10.1562C20.8033 11.473 19.7506 12.5849 18.4973 13.4036C14.9303 15.7931 12.2771 15.3726 11.013 14.9092C10.6846 14.785 10.333 14.7411 9.98567 14.7809C9.6383 14.8207 9.30436 14.9431 9.00964 15.1387C8.59182 15.4228 8.27995 15.8474 8.12586 16.3417C7.5548 17.8229 6.81223 19.2251 5.9152 20.5172C5.78705 20.7018 5.65575 20.8841 5.52135 21.0641L5.47721 21.0485C5.47412 21.0349 5.47106 21.0212 5.46802 21.0076C5.12929 19.4871 5.10682 17.9086 5.4023 16.378Z" fill="#080450"/>
<path d="M19.6417 6.47622C19.8486 6.33763 20.0114 6.13825 20.1095 5.9033C20.2076 5.66835 20.2366 5.40838 20.1928 5.15626C20.1491 4.90415 20.0345 4.67121 19.8636 4.4869C19.6928 4.30259 19.4733 4.1752 19.2329 4.12083C18.9925 4.06646 18.742 4.08755 18.5132 4.18144C18.2843 4.27533 18.0873 4.43779 17.9471 4.6483C17.8069 4.8588 17.7297 5.10788 17.7254 5.36405C17.7211 5.62021 17.7899 5.87196 17.9229 6.08744C18.1013 6.3764 18.3827 6.57969 18.705 6.6526C19.0273 6.72551 19.3643 6.66206 19.6417 6.47622ZM18.7447 5.02355C18.8137 4.97735 18.8942 4.95349 18.9762 4.95498C19.0582 4.95648 19.1379 4.98326 19.2053 5.03194C19.2726 5.08062 19.3246 5.14902 19.3547 5.22848C19.3847 5.30794 19.3915 5.39489 19.3741 5.47835C19.3567 5.56181 19.3159 5.63801 19.2569 5.69734C19.1979 5.75666 19.1234 5.79643 19.0427 5.81162C18.962 5.82682 18.8788 5.81675 18.8036 5.78269C18.7284 5.74863 18.6646 5.69212 18.6203 5.62029C18.5608 5.52397 18.5405 5.40699 18.5638 5.29508C18.5872 5.18317 18.6522 5.08549 18.7447 5.02355Z" fill="#080450"/>
<path d="M18.8706 11.6133C18.9346 11.5704 18.986 11.5099 19.0192 11.4385C19.0523 11.3672 19.066 11.2877 19.0587 11.2087C19.0513 11.1298 19.0232 11.0545 18.9775 10.9911C18.9318 10.9277 18.8702 10.8786 18.7995 10.8493C18.351 10.6625 17.4551 10.1193 16.5036 8.5784C15.5521 7.03747 15.4491 5.96312 15.4724 5.46034C15.475 5.4037 15.4669 5.34707 15.4485 5.29369C15.4301 5.24031 15.4018 5.19123 15.3652 5.14924C15.3286 5.10725 15.2845 5.07318 15.2352 5.04897C15.186 5.02476 15.1327 5.01089 15.0783 5.00815C15.0239 5.00541 14.9695 5.01385 14.9183 5.03299C14.867 5.05214 14.8199 5.08161 14.7796 5.11972C14.7393 5.15784 14.7066 5.20385 14.6833 5.25513C14.6601 5.30641 14.6468 5.36196 14.6441 5.4186C14.6094 6.15906 14.7834 7.38914 15.8063 9.04555C16.8291 10.702 17.8315 11.3771 18.4928 11.6513C18.5541 11.6768 18.6204 11.6866 18.6861 11.68C18.7518 11.6734 18.8151 11.6505 18.8706 11.6133Z" fill="#080450"/>
<path d="M8.91058 16.6195C8.23032 18.4064 7.30881 20.083 6.1739 21.5988C6.07694 21.729 5.94689 21.8282 5.79851 21.8852C5.65014 21.9422 5.48939 21.9547 5.33451 21.9214C5.26374 21.9065 5.19542 21.8825 5.13104 21.85L5.29609 22.1173C5.50831 22.1664 6.01132 22.156 6.3256 21.7214C7.47161 20.1907 8.40233 18.4977 9.08926 16.6933L9.0921 16.6847C9.14514 16.5246 9.22844 16.3771 9.33708 16.2511C9.44573 16.1251 9.57752 16.023 9.72467 15.9508C9.87182 15.8787 10.0313 15.838 10.1938 15.8312C10.3563 15.8243 10.5185 15.8516 10.6707 15.9111L10.6775 15.9135C11.9331 16.3494 13.2733 16.4476 14.5739 16.2002L14.9015 16.3609L14.6652 15.9784C13.3573 16.2508 12.0036 16.1631 10.7382 15.7237C10.5619 15.6548 10.3742 15.6234 10.1861 15.6314C9.99796 15.6393 9.81327 15.6864 9.64291 15.7699C9.47255 15.8534 9.31998 15.9716 9.1942 16.1175C9.06842 16.2634 8.97198 16.4341 8.91058 16.6195Z" fill="#080450"/>
<path d="M18.9841 15.9747C18.6859 16.6326 18.2153 17.1894 17.6264 17.5808C17.5917 17.604 17.5563 17.6258 17.5203 17.6462L17.73 17.7491C19.7294 16.2711 19.5665 14.6457 19.5142 13.9581L19.3202 13.9458C19.3218 13.9631 19.3233 13.9803 19.3248 13.9975C19.3807 14.6755 19.2636 15.3578 18.9841 15.9747Z" fill="#080450"/>
<path fill-rule="evenodd" clip-rule="evenodd" d="M15.7165 15.7147C15.6528 15.735 15.589 15.7549 15.5249 15.7741L16.032 16.5953C16.1509 16.7879 16.3385 16.9234 16.5534 16.972C16.7683 17.0206 16.9929 16.9783 17.1779 16.8544C17.4989 16.6398 17.7762 16.3613 17.9939 16.0349C18.2115 15.7086 18.3652 15.3407 18.4462 14.9524C18.466 14.8524 18.4812 14.7515 18.4916 14.6501C18.4999 14.5692 18.5052 14.488 18.5075 14.4066C18.4417 14.4484 18.3756 14.4895 18.3092 14.53C18.2577 14.5614 18.2068 14.5919 18.1549 14.6224C17.3826 15.0772 16.5651 15.4435 15.7165 15.7147ZM17.0741 16.6861C17.374 16.4857 17.6329 16.2256 17.8361 15.9208C18.0392 15.6163 18.1826 15.2732 18.2583 14.9109C18.2671 14.8666 18.2749 14.8221 18.2817 14.7774C17.5035 15.239 16.6796 15.6118 15.8244 15.8893L16.1935 16.4871C16.2849 16.6351 16.429 16.7392 16.5941 16.7766C16.7593 16.8139 16.932 16.7813 17.0741 16.6861Z" fill="#080450"/>
<path fill-rule="evenodd" clip-rule="evenodd" d="M18.7046 11.8791C18.8007 11.8694 18.8932 11.836 18.9745 11.7815C19.0681 11.7187 19.1434 11.6301 19.192 11.5257C19.2405 11.4213 19.2605 11.3049 19.2498 11.1895C19.239 11.074 19.198 10.9638 19.1311 10.871C19.0642 10.7783 18.9741 10.7064 18.8706 10.6635C18.4622 10.4934 17.5968 9.97898 16.6651 8.47021C15.7333 6.96126 15.643 5.92767 15.6642 5.47001C15.66 5.40754 15.6472 5.27132 15.6293 5.22618C15.6024 5.14808 15.561 5.07625 15.5074 5.01481C15.4539 4.95338 15.3892 4.90352 15.3172 4.8681C15.2452 4.83268 15.1671 4.81239 15.0876 4.80838C15.008 4.80437 14.9284 4.81672 14.8535 4.84473C14.7785 4.87274 14.7095 4.91586 14.6505 4.97163C14.5915 5.0274 14.5437 5.09472 14.5097 5.16975C14.4757 5.24476 14.4562 5.32601 14.4523 5.40885C14.4155 6.19575 14.6029 7.46653 15.6448 9.15374C16.6866 10.8409 17.719 11.5456 18.4217 11.8371C18.5114 11.8743 18.6084 11.8887 18.7046 11.8791ZM18.8839 11.604C18.8795 11.6072 18.8751 11.6103 18.8706 11.6133L18.8821 11.6054L18.8672 11.577L18.8706 11.6133C18.8151 11.6505 18.7518 11.6734 18.6861 11.68C18.6204 11.6866 18.5541 11.6768 18.4928 11.6513C17.8315 11.3771 16.8291 10.702 15.8063 9.04555C14.7834 7.38914 14.6094 6.15906 14.6441 5.4186C14.6468 5.36196 14.6601 5.30641 14.6833 5.25513C14.7066 5.20385 14.7393 5.15784 14.7796 5.11972C14.8199 5.08161 14.867 5.05214 14.9183 5.03299C14.9695 5.01385 15.0239 5.00541 15.0783 5.00815C15.1327 5.01089 15.186 5.02476 15.2352 5.04897C15.2845 5.07318 15.3286 5.10725 15.3652 5.14924C15.4018 5.19123 15.4301 5.24031 15.4485 5.29369C15.4669 5.34707 15.475 5.4037 15.4724 5.46034C15.4491 5.96312 15.5521 7.03747 16.5036 8.5784C17.4551 10.1193 18.351 10.6625 18.7995 10.8493C18.8702 10.8786 18.9318 10.9277 18.9775 10.9911C19.0232 11.0545 19.0513 11.1298 19.0587 11.2087C19.066 11.2877 19.0523 11.3672 19.0192 11.4385C18.9883 11.5049 18.9417 11.5618 18.8839 11.604Z" fill="#080450"/>
<path fill-rule="evenodd" clip-rule="evenodd" d="M5.33451 21.9214C5.48939 21.9547 5.65014 21.9422 5.79851 21.8852C5.94689 21.8282 6.07694 21.729 6.1739 21.5988C7.30881 20.083 8.23032 18.4064 8.91058 16.6195C8.97198 16.4341 9.06842 16.2634 9.1942 16.1175C9.31998 15.9716 9.47255 15.8534 9.64291 15.7699C9.81327 15.6864 9.99796 15.6393 10.1861 15.6314C10.3742 15.6234 10.5619 15.6548 10.7382 15.7237C12.0036 16.1631 13.3573 16.2508 14.6652 15.9784L14.9015 16.3609L14.5739 16.2002L15.1731 17.1706C15.4386 17.6005 15.8571 17.9029 16.3367 18.0114C16.8161 18.1199 17.3173 18.0255 17.73 17.7491L17.5203 17.6462C17.5563 17.6258 17.5917 17.604 17.6264 17.5808C18.2153 17.1894 18.6859 16.6326 18.9841 15.9747C19.2636 15.3578 19.3807 14.6755 19.3248 13.9975C19.3227 13.9724 19.3204 13.9473 19.3178 13.9221C19.3186 13.93 19.3194 13.9379 19.3202 13.9458L19.5142 13.9581C20.8735 12.9545 21.9867 11.6307 22.7628 10.0938C23.5567 8.52176 23.9743 6.77331 23.9802 4.99712L23.9802 4.99513C23.9775 4.57059 23.8591 4.15559 23.6386 3.79851C23.4181 3.44144 23.1047 3.15703 22.7349 2.97843L22.7331 2.9776C21.1789 2.24671 19.4783 1.91747 17.7757 2.01784C16.1111 2.11598 14.4928 2.62198 13.0522 3.49397C12.7098 3.29128 12.34 3.14285 11.9551 3.05379C11.4517 2.93991 10.9307 2.93045 10.4239 3.02633C9.91708 3.1222 9.43342 3.32131 9.00064 3.61225C8.58798 3.88874 8.29765 4.32463 8.19352 4.82406C8.08938 5.32354 8.18 5.84565 8.44546 6.27554L9.04448 7.24563C8.28913 8.3757 7.81909 9.68657 7.67882 11.0572L7.67819 11.0647C7.66706 11.2337 7.62354 11.3987 7.55019 11.5499C7.47684 11.7011 7.37515 11.8354 7.25113 11.945C7.12711 12.0546 6.98326 12.1372 6.82809 12.1879C6.67292 12.2386 6.50957 12.2564 6.34767 12.2403L6.33903 12.2396C4.47781 12.1423 2.61278 12.3219 0.800241 12.7729C0.241635 12.857 0.0521025 13.3491 0.0271619 13.5847C-0.0171666 13.7836 -0.00708146 13.9914 0.0562785 14.1847C0.119696 14.378 0.233939 14.549 0.386019 14.6782L0.389679 14.6812C0.582257 14.8367 0.779204 14.9857 0.980205 15.1281C1.99659 15.8479 3.11661 16.3969 4.29934 16.7539C4.12062 18.0229 4.13575 19.3122 4.3431 20.574L4.6221 21.0258C4.61938 21.0126 4.61668 20.9994 4.614 20.9861C4.32319 19.5468 4.28934 18.0631 4.51501 16.6094C3.13899 16.2168 1.84584 15.561 0.701253 14.6763C1.84584 15.561 3.13899 16.2168 4.51501 16.6094C4.28934 18.0631 4.32319 19.5468 4.614 20.9861C4.61668 20.9994 4.61938 21.0126 4.6221 21.0258L5.13104 21.85C5.19542 21.8825 5.26374 21.9065 5.33451 21.9214ZM17.6264 17.5808C17.5917 17.604 17.5563 17.6258 17.5203 17.6462L17.73 17.7491C19.7294 16.2711 19.5665 14.6457 19.5142 13.9581L19.3202 13.9458C19.3218 13.9631 19.3233 13.9803 19.3248 13.9975C19.3807 14.6755 19.2636 15.3578 18.9841 15.9747C18.6859 16.6326 18.2153 17.1894 17.6264 17.5808ZM1.03458 13.8547C1.18402 13.9755 1.33636 14.0918 1.49143 14.2037C1.3888 14.1297 1.28736 14.0536 1.18716 13.9757C1.14246 13.9409 1.09801 13.9058 1.05381 13.8702L1.03458 13.8547ZM1.49143 14.2037C1.33636 14.0918 1.18402 13.9755 1.03458 13.8547L1.05381 13.8702C1.09801 13.9058 1.14246 13.9409 1.18716 13.9757C1.28736 14.0536 1.3888 14.1297 1.49143 14.2037ZM1.03458 13.8547L1.03926 13.8064L1.07562 13.7975L1.0776 13.797C1.10719 13.7897 1.1368 13.7825 1.16641 13.7754C1.13614 13.7827 1.10587 13.79 1.07562 13.7975L1.03926 13.8064M1.07562 13.7975C1.10587 13.79 1.13614 13.7827 1.16641 13.7754C1.1368 13.7825 1.10719 13.7897 1.0776 13.797L1.07562 13.7975ZM5.52135 21.0641C5.65575 20.8841 5.78705 20.7018 5.9152 20.5172C5.82555 20.6463 5.73435 20.7743 5.64163 20.9013C5.60976 20.9449 5.57772 20.9884 5.54549 21.0317L5.52135 21.0641ZM5.9152 20.5172C5.78705 20.7018 5.65575 20.8841 5.52135 21.0641L5.54549 21.0317C5.57772 20.9884 5.60976 20.9449 5.64163 20.9013C5.73435 20.7743 5.82555 20.6463 5.9152 20.5172ZM5.52135 21.0641L5.47721 21.0485L5.52135 21.0641ZM17.0741 16.6861C17.374 16.4857 17.6329 16.2256 17.8361 15.9208C18.0392 15.6163 18.1826 15.2732 18.2583 14.9109C18.2671 14.8666 18.2749 14.8221 18.2817 14.7774C17.5035 15.239 16.6796 15.6118 15.8244 15.8893L16.1935 16.4871C16.2849 16.6351 16.429 16.7392 16.5941 16.7766C16.7593 16.8139 16.932 16.7813 17.0741 16.6861ZM9.65703 4.67492C9.51491 4.77013 9.41493 4.92023 9.37907 5.09222C9.34321 5.26421 9.37441 5.44399 9.46582 5.59201L9.83493 6.18977C10.4321 5.49438 11.0994 4.86823 11.8254 4.32214C11.7821 4.30964 11.7386 4.29821 11.6948 4.28783C11.3476 4.20983 10.989 4.20379 10.6396 4.27008C10.2898 4.33643 9.95575 4.47412 9.65703 4.67492ZM13.2191 4.85574C9.70625 7.20893 9.0017 9.83966 8.88522 11.1713C8.85508 11.5643 8.73869 11.9449 8.54502 12.2836C8.35115 12.6228 8.08502 12.9109 7.76721 13.1259L7.7654 13.1271C7.72335 13.1548 7.68059 13.1811 7.63718 13.2059C7.20903 13.4507 6.71768 13.5528 6.22998 13.4962C4.62059 13.4199 3.009 13.5617 1.43563 13.9176C2.54182 14.7497 3.79659 15.3456 5.12762 15.6694C5.28411 15.7053 5.42063 15.8043 5.50734 15.9447C5.59405 16.0851 5.62386 16.2556 5.59029 16.4188C5.32116 17.8138 5.32106 19.2494 5.58867 20.6422C6.55219 19.2987 7.34447 17.8302 7.9453 16.2733C8.11363 15.7384 8.45199 15.2791 8.90466 14.9712L8.90645 14.97C9.22598 14.758 9.58804 14.6252 9.96467 14.5821C10.341 14.5389 10.7218 14.5864 11.0777 14.7209C12.1765 15.1234 14.4071 15.509 17.4304 13.8261C17.743 13.6521 18.0642 13.4559 18.3935 13.2354L18.3953 13.2341C19.6233 12.432 20.6547 11.3425 21.4074 10.0523C22.0917 8.87952 22.5286 7.57027 22.6911 6.21148L22.1617 6.56606C22.0264 6.6567 21.8621 6.68765 21.7049 6.65209C21.5477 6.61653 21.4105 6.51737 21.3234 6.37644C21.2364 6.23551 21.2067 6.06435 21.2408 5.9006C21.275 5.73685 21.3702 5.59394 21.5055 5.5033L22.7112 4.69562C22.6804 4.591 22.6317 4.49262 22.5673 4.40532C22.4779 4.28427 22.3609 4.18837 22.227 4.12632L22.2257 4.12573C20.7875 3.44634 19.2076 3.15691 17.6331 3.28437C16.0587 3.41183 14.5407 3.95204 13.2206 4.85472L13.2191 4.85574Z" fill="#080450"/>
<path fill-rule="evenodd" clip-rule="evenodd" d="M4.6221 21.0258L5.13104 21.85C5.05257 21.8105 4.97997 21.7586 4.91597 21.6956C4.79949 21.5811 4.7162 21.4348 4.67559 21.2734C4.65691 21.191 4.63908 21.1085 4.6221 21.0258ZM15.5249 15.7741C15.589 15.7549 15.6528 15.735 15.7165 15.7147C16.5651 15.4435 17.3826 15.0772 18.1549 14.6224C18.2068 14.5919 18.2577 14.5614 18.3092 14.53C18.3756 14.4895 18.4417 14.4484 18.5075 14.4066C18.5052 14.488 18.4999 14.5692 18.4916 14.6501C18.4812 14.7515 18.466 14.8524 18.4462 14.9524C18.3652 15.3407 18.2115 15.7086 17.9939 16.0349C17.7762 16.3613 17.4989 16.6398 17.1779 16.8544C16.9929 16.9783 16.7683 17.0206 16.5534 16.972C16.3385 16.9234 16.1509 16.7879 16.032 16.5953L15.5249 15.7741ZM11.7363 4.09257C11.8334 4.11552 11.9293 4.14338 12.0236 4.17604C12.0978 4.20171 12.171 4.23033 12.2431 4.26187C12.1793 4.30687 12.1159 4.35247 12.053 4.39869C11.2791 4.96681 10.5709 5.62644 9.94276 6.36439C9.89856 6.41632 9.85476 6.46863 9.81136 6.52132L9.30432 5.7002C9.18536 5.50756 9.14475 5.2736 9.19142 5.04978C9.23809 4.82595 9.36821 4.63061 9.55316 4.50671C9.87309 4.29165 10.2306 4.14438 10.6052 4.07332C10.9798 4.00226 11.3642 4.0088 11.7363 4.09257ZM18.8821 11.6054L18.8672 11.577L18.8706 11.6133L18.8821 11.6054ZM19.6417 6.47622C19.8486 6.33763 20.0114 6.13825 20.1095 5.9033C20.2076 5.66835 20.2366 5.40838 20.1928 5.15626C20.1491 4.90415 20.0345 4.67121 19.8636 4.4869C19.6928 4.30259 19.4733 4.1752 19.2329 4.12083C18.9925 4.06646 18.742 4.08755 18.5132 4.18144C18.2843 4.27533 18.0873 4.43779 17.9471 4.6483C17.8069 4.8588 17.7297 5.10788 17.7254 5.36405C17.7211 5.62021 17.7899 5.87196 17.9229 6.08744C18.1013 6.3764 18.3827 6.57969 18.705 6.6526C19.0273 6.72551 19.3643 6.66206 19.6417 6.47622ZM18.7046 11.8791C18.8007 11.8694 18.8932 11.836 18.9745 11.7815C19.0681 11.7187 19.1434 11.6301 19.192 11.5257C19.2405 11.4213 19.2605 11.3049 19.2498 11.1895C19.239 11.074 19.198 10.9638 19.1311 10.871C19.0642 10.7783 18.9741 10.7064 18.8706 10.6635C18.4622 10.4934 17.5968 9.97898 16.6651 8.47021C15.7333 6.96126 15.643 5.92767 15.6642 5.47001C15.66 5.40754 15.6472 5.27132 15.6293 5.22618C15.6024 5.14808 15.561 5.07625 15.5074 5.01481C15.4539 4.95338 15.3892 4.90352 15.3172 4.8681C15.2452 4.83268 15.1671 4.81239 15.0876 4.80838C15.008 4.80437 14.9284 4.81672 14.8535 4.84473C14.7785 4.87274 14.7095 4.91586 14.6505 4.97163C14.5915 5.0274 14.5437 5.09472 14.5097 5.16975C14.4757 5.24476 14.4562 5.32601 14.4523 5.40885C14.4155 6.19575 14.6029 7.46653 15.6448 9.15374C16.6866 10.8409 17.719 11.5456 18.4217 11.8371C18.5114 11.8743 18.6084 11.8887 18.7046 11.8791ZM19.7456 6.64443C19.9844 6.48445 20.1723 6.25429 20.2856 5.98306C20.3988 5.71184 20.4323 5.41173 20.3818 5.12068C20.3313 4.82964 20.199 4.56073 20.0018 4.34797C19.8045 4.13521 19.5511 3.98815 19.2736 3.92538C18.9961 3.86262 18.707 3.88696 18.4428 3.99535C18.1786 4.10373 17.9512 4.29129 17.7893 4.53429C17.6275 4.77729 17.5384 5.06483 17.5334 5.36055C17.5285 5.65626 17.6078 5.94687 17.7614 6.19563C17.9674 6.5292 18.2922 6.76388 18.6643 6.84804C19.0364 6.93221 19.4253 6.85897 19.7456 6.64443ZM9.37907 5.09222C9.41493 4.92023 9.51491 4.77013 9.65703 4.67492C9.95575 4.47412 10.2898 4.33643 10.6396 4.27008C10.989 4.20379 11.3476 4.20983 11.6948 4.28783C11.7386 4.29821 11.7821 4.30964 11.8254 4.32214C11.0994 4.86823 10.4321 5.49438 9.83493 6.18977L9.46582 5.59201C9.37441 5.44399 9.34321 5.26421 9.37907 5.09222ZM17.0741 16.6861C17.374 16.4857 17.6329 16.2256 17.8361 15.9208C18.0392 15.6163 18.1826 15.2732 18.2583 14.9109C18.2671 14.8666 18.2749 14.8221 18.2817 14.7774C17.5035 15.239 16.6796 15.6118 15.8244 15.8893L16.1935 16.4871C16.2849 16.6351 16.429 16.7392 16.5941 16.7766C16.7593 16.8139 16.932 16.7813 17.0741 16.6861Z" fill="#080450"/>
<path d="M25 1.00001C25 1.5523 24.5523 2.00002 24 2.00002C23.4477 2.00002 23 1.5523 23 1.00001C23 0.447719 23.4477 0 24 0C24.5523 0 25 0.447719 25 1.00001Z" fill="#080450"/>
</svg>
