<svg width="24" height="24" viewBox="0 0 24 24" fill="none" xmlns="http://www.w3.org/2000/svg">
<path d="M12.5293 7.03837H7.19065C7.01366 7.03837 6.84392 7.10868 6.71877 7.23383C6.59362 7.35898 6.52331 7.52872 6.52331 7.70571C6.52331 7.88269 6.59362 8.05243 6.71877 8.17758C6.84392 8.30273 7.01366 8.37304 7.19065 8.37304H12.5293C12.7063 8.37304 12.876 8.30273 13.0012 8.17758C13.1263 8.05243 13.1967 7.88269 13.1967 7.70571C13.1967 7.52872 13.1263 7.35898 13.0012 7.23383C12.876 7.10868 12.7063 7.03837 12.5293 7.03837ZM12.5293 10.6086H7.19065C7.01366 10.6086 6.84392 10.6789 6.71877 10.8041C6.59362 10.9292 6.52331 11.099 6.52331 11.2759C6.52331 11.4529 6.59362 11.6227 6.71877 11.7478C6.84392 11.873 7.01366 11.9433 7.19065 11.9433H12.5293C12.7063 11.9433 12.876 11.873 13.0012 11.7478C13.1263 11.6227 13.1967 11.4529 13.1967 11.2759C13.1967 11.099 13.1263 10.9292 13.0012 10.8041C12.876 10.6789 12.7063 10.6086 12.5293 10.6086ZM12.5293 14.2589H7.19065C7.01366 14.2589 6.84392 14.3292 6.71877 14.4544C6.59362 14.5795 6.52331 14.7493 6.52331 14.9263C6.52331 15.1032 6.59362 15.273 6.71877 15.3981C6.84392 15.5233 7.01366 15.5936 7.19065 15.5936H12.5293C12.7063 15.5936 12.876 15.5233 13.0012 15.3981C13.1263 15.273 13.1967 15.1032 13.1967 14.9263C13.1967 14.7493 13.1263 14.5795 13.0012 14.4544C12.876 14.3292 12.7063 14.2589 12.5293 14.2589Z" fill="#080450"/>
<path d="M18.7689 2H5.59572C5.25338 2.00087 4.91457 2.06928 4.59871 2.2013C4.28284 2.33332 3.99613 2.52636 3.75498 2.76936C3.51384 3.01236 3.32301 3.30055 3.19342 3.61742C3.06383 3.93429 2.99803 4.27361 2.99979 4.61595V20.8922C2.99935 21.0592 3.04338 21.2234 3.12735 21.3678C3.21133 21.5121 3.33221 21.6316 3.47761 21.7138C3.623 21.796 3.78765 21.838 3.95465 21.8355C4.12165 21.8331 4.28499 21.7862 4.42788 21.6997L6.88367 20.2249C6.92072 20.2018 6.96349 20.1896 7.00713 20.1896C7.05077 20.1896 7.09354 20.2018 7.13059 20.2249L9.85998 21.8599C10.0035 21.9514 10.1702 22 10.3405 22C10.5118 21.9991 10.6798 21.9531 10.8276 21.8665L13.5704 20.2249C13.6074 20.2018 13.6502 20.1896 13.6938 20.1896C13.7375 20.1896 13.7802 20.2018 13.8173 20.2249L16.2597 21.6997C16.4031 21.7849 16.5668 21.8298 16.7335 21.8298C16.9003 21.8298 17.064 21.7849 17.2073 21.6997C17.3509 21.6176 17.4703 21.4991 17.5535 21.3562C17.6366 21.2133 17.6807 21.0509 17.6811 20.8856V9.6343H19.7766C20.1973 9.63254 20.6002 9.46465 20.8977 9.16717C21.1952 8.8697 21.3631 8.46674 21.3648 8.04605V4.61595C21.3666 4.27361 21.3008 3.93429 21.1712 3.61742C21.0416 3.30055 20.8508 3.01236 20.6096 2.76936C20.3685 2.52636 20.0818 2.33332 19.7659 2.2013C19.45 2.06928 19.1112 2.00087 18.7689 2ZM16.3465 20.1915L14.5046 19.0838C14.2593 18.9381 13.9792 18.8612 13.6938 18.8612C13.4085 18.8612 13.1284 18.9381 12.883 19.0838L10.3471 20.6053L7.81794 19.0771C7.56965 18.9286 7.28551 18.8507 6.99619 18.8519C6.70688 18.853 6.42338 18.9332 6.1763 19.0838L4.33446 20.1982V4.61595C4.3318 4.44864 4.36246 4.28248 4.42466 4.12714C4.48685 3.97179 4.57934 3.83038 4.69672 3.71113C4.8141 3.59189 4.95404 3.49719 5.10839 3.43255C5.26273 3.36792 5.42839 3.33465 5.59572 3.33467H16.6201C16.4438 3.6704 16.3501 4.04326 16.3465 4.42242V20.1915ZM20.0302 8.04605C20.0302 8.1133 20.0034 8.1778 19.9559 8.22536C19.9083 8.27292 19.8438 8.29963 19.7766 8.29963H17.6811V4.44244C17.6785 4.29792 17.7046 4.15432 17.7581 4.02003C17.8116 3.88573 17.8913 3.76345 17.9926 3.66031C18.0938 3.55717 18.2147 3.47525 18.348 3.41934C18.4812 3.36343 18.6243 3.33464 18.7689 3.33467C19.1034 3.33467 19.4242 3.46755 19.6607 3.70408C19.8973 3.94062 20.0302 4.26142 20.0302 4.59593V8.04605Z" fill="#080450"/>
</svg>
