<svg width="24" height="24" viewBox="0 0 24 24" fill="none" xmlns="http://www.w3.org/2000/svg">
<g clip-path="url(#clip0_0_59)">
<path d="M5.33471 21.9212C5.48959 21.9546 5.65034 21.9421 5.79871 21.8851C5.94708 21.828 6.07714 21.7288 6.1741 21.5987C7.309 20.0829 8.2305 18.4063 8.91075 16.6194C8.97216 16.434 9.06859 16.2633 9.19437 16.1174C9.32015 15.9715 9.47272 15.8533 9.64308 15.7698C9.81343 15.6863 9.99812 15.6392 10.1862 15.6313C10.3744 15.6234 10.5621 15.6548 10.7384 15.7237C12.0038 16.163 13.3574 16.2508 14.6654 15.9783L15.3348 17.0623C15.5727 17.4476 15.9478 17.7187 16.3775 17.8159C16.8073 17.9131 17.2566 17.8285 17.6265 17.5807C18.2154 17.1894 18.686 16.6326 18.9842 15.9746C19.2636 15.3577 19.3808 14.6755 19.3249 13.9975C19.3228 13.9723 19.3205 13.9472 19.3179 13.9221C19.3159 13.902 19.3137 13.882 19.3114 13.8619C20.6877 12.8688 21.8135 11.5442 22.5929 10.0007C23.3724 8.45714 23.7824 6.74041 23.7882 4.99643C23.7858 4.60982 23.6779 4.23189 23.4771 3.90672C23.2763 3.58155 22.9909 3.32254 22.6542 3.1599C21.1282 2.44228 19.4584 2.119 17.7867 2.21756C16.115 2.31611 14.4909 2.83358 13.0524 3.72599C12.7004 3.50321 12.3157 3.34209 11.9136 3.24906C11.4349 3.14076 10.9403 3.13196 10.4584 3.22313C9.97637 3.31431 9.5164 3.50368 9.10482 3.78039C8.73492 4.02818 8.47468 4.41887 8.38135 4.86651C8.28801 5.31415 8.36923 5.78208 8.60713 6.16735L9.27631 7.25104C8.49604 8.37779 8.01131 9.69697 7.86995 11.0784C7.85706 11.274 7.80667 11.465 7.72175 11.64C7.63683 11.8151 7.51911 11.9706 7.37553 12.0975C7.23195 12.2243 7.06542 12.3199 6.88578 12.3787C6.70614 12.4374 6.51702 12.458 6.32959 12.4394C4.48653 12.3429 2.63969 12.5208 0.844831 12.9675C0.690816 13.0053 0.550089 13.0874 0.438663 13.2044C0.327238 13.3215 0.249588 13.4687 0.21455 13.6294C0.178227 13.792 0.186433 13.962 0.238236 14.12C0.290038 14.2779 0.383359 14.4176 0.507587 14.5231C1.6992 15.4855 3.06092 16.1944 4.51522 16.6093C4.28955 18.063 4.3234 19.5467 4.61421 20.986C4.63359 21.0819 4.65412 21.1777 4.67579 21.2732C4.71641 21.4346 4.79969 21.5809 4.91618 21.6955C5.03266 21.8101 5.17767 21.8883 5.33471 21.9212ZM17.178 16.8544C16.993 16.9783 16.7684 17.0206 16.5535 16.9719C16.3386 16.9233 16.1511 16.7878 16.0321 16.5952L15.5251 15.7741C16.4422 15.4979 17.3248 15.1113 18.155 14.6224C18.2736 14.5525 18.3911 14.4806 18.5076 14.4066C18.5025 14.59 18.482 14.7726 18.4463 14.9523C18.3653 15.3406 18.2116 15.7085 17.994 16.0349C17.7763 16.3612 17.499 16.6397 17.178 16.8544ZM9.30449 5.7002C9.18553 5.50757 9.14492 5.27361 9.19159 5.04978C9.23826 4.82596 9.36838 4.63062 9.55333 4.50672C9.87325 4.29167 10.2307 4.14439 10.6053 4.07333C10.9799 4.00227 11.3643 4.00881 11.7365 4.09259C11.9098 4.13357 12.0794 4.19022 12.2433 4.26189C11.3397 4.89895 10.5219 5.65881 9.81152 6.52132L9.30449 5.7002ZM5.4025 16.3779C5.42581 16.266 5.4055 16.1491 5.34604 16.0528C5.28657 15.9565 5.19282 15.8887 5.0854 15.8644C3.79617 15.551 2.57714 14.9869 1.49166 14.2037C1.33659 14.0918 1.18425 13.9754 1.03482 13.8547L1.03949 13.8064C1.05161 13.8034 1.06373 13.8004 1.07586 13.7974C1.10611 13.79 1.13637 13.7826 1.16665 13.7754C2.8306 13.3763 4.53922 13.2152 6.24533 13.2967C6.55518 13.3336 6.86677 13.3007 7.15979 13.203C7.33561 13.1444 7.50475 13.0624 7.66282 12.9581C7.95595 12.7598 8.2014 12.494 8.38021 12.1813C8.55902 11.8685 8.66641 11.5171 8.69407 11.1542C8.81524 9.76594 9.54838 7.077 13.1153 4.68754C14.4626 3.76635 16.0116 3.21507 17.6184 3.085C19.2251 2.95492 20.8374 3.25028 22.3051 3.94359C22.4682 4.01918 22.6107 4.13598 22.7196 4.28342C22.8284 4.43085 22.9002 4.60426 22.9285 4.78791L21.6094 5.67152C21.517 5.73346 21.4519 5.83113 21.4286 5.94305C21.4052 6.05496 21.4255 6.17194 21.485 6.26826C21.5445 6.36457 21.6383 6.43234 21.7457 6.45664C21.8532 6.48094 21.9655 6.45979 22.0579 6.39785L22.923 5.81835C22.8026 7.35409 22.3399 8.83939 21.5716 10.1562C20.8033 11.4729 19.7507 12.5849 18.4974 13.4035C14.9305 15.793 12.2773 15.3725 11.0132 14.9091C10.6847 14.7849 10.3332 14.741 9.98584 14.7808C9.63846 14.8206 9.30453 14.943 9.00981 15.1386C8.59199 15.4228 8.28012 15.8473 8.12604 16.3416C7.55498 17.8228 6.81242 19.225 5.9154 20.5171C5.78725 20.7016 5.65595 20.884 5.52155 21.064L5.47741 21.0484C5.47432 21.0347 5.47126 21.0211 5.46822 21.0075C5.12949 19.487 5.10702 17.9085 5.4025 16.3779Z" fill="#E9E9F2"/>
<path d="M19.6418 6.47622C19.8487 6.33763 20.0115 6.13825 20.1096 5.90331C20.2077 5.66836 20.2367 5.40839 20.1929 5.15627C20.1491 4.90416 20.0346 4.67122 19.8637 4.48691C19.6929 4.30261 19.4734 4.17522 19.233 4.12084C18.9926 4.06647 18.7421 4.08757 18.5133 4.18145C18.2844 4.27534 18.0874 4.43781 17.9472 4.64831C17.807 4.85881 17.7298 5.10789 17.7255 5.36406C17.7212 5.62022 17.79 5.87196 17.923 6.08744C18.1014 6.37639 18.3828 6.57969 18.7051 6.6526C19.0274 6.72551 19.3644 6.66206 19.6418 6.47622ZM18.7448 5.02355C18.8137 4.97736 18.8943 4.9535 18.9763 4.95499C19.0583 4.95649 19.138 4.98327 19.2054 5.03195C19.2727 5.08063 19.3247 5.14903 19.3548 5.22848C19.3848 5.30794 19.3916 5.3949 19.3742 5.47836C19.3568 5.56181 19.316 5.63802 19.257 5.69734C19.198 5.75666 19.1235 5.79643 19.0428 5.81163C18.9621 5.82682 18.8789 5.81675 18.8037 5.78269C18.7285 5.74864 18.6647 5.69212 18.6204 5.62029C18.5609 5.52398 18.5406 5.407 18.5639 5.29508C18.5873 5.18317 18.6523 5.0855 18.7448 5.02355Z" fill="#E9E9F2"/>
<path d="M18.8707 11.6133C18.9347 11.5703 18.9861 11.5099 19.0192 11.4385C19.0524 11.3671 19.0661 11.2876 19.0587 11.2087C19.0514 11.1298 19.0233 11.0545 18.9776 10.9911C18.9319 10.9277 18.8703 10.8786 18.7996 10.8492C18.3511 10.6625 17.4552 10.1193 16.5037 8.57838C15.5522 7.03747 15.4492 5.96312 15.4725 5.46035C15.4751 5.40371 15.467 5.34708 15.4486 5.2937C15.4302 5.24032 15.402 5.19124 15.3654 5.14925C15.3288 5.10725 15.2846 5.07318 15.2354 5.04898C15.1861 5.02477 15.1328 5.0109 15.0784 5.00816C15.024 5.00542 14.9697 5.01386 14.9184 5.033C14.8672 5.05215 14.82 5.08162 14.7797 5.11973C14.7394 5.15785 14.7067 5.20386 14.6834 5.25514C14.6602 5.30642 14.6469 5.36197 14.6443 5.41861C14.6096 6.15906 14.7836 7.38913 15.8064 9.04553C16.8292 10.7019 17.8316 11.377 18.4929 11.6513C18.5542 11.6767 18.6205 11.6866 18.6862 11.68C18.7519 11.6734 18.8152 11.6505 18.8707 11.6133Z" fill="#E9E9F2"/>
<path d="M8.91075 16.6194C8.2305 18.4063 7.309 20.0829 6.1741 21.5987C6.07714 21.7288 5.94708 21.828 5.79871 21.8851C5.65034 21.9421 5.48959 21.9546 5.33471 21.9212C5.26394 21.9064 5.19562 21.8823 5.13125 21.8499L5.2963 22.1172C5.50851 22.1663 6.01151 22.1558 6.32579 21.7213C7.4718 20.1906 8.4025 18.4976 9.08944 16.6932L9.09227 16.6846C9.14531 16.5245 9.22861 16.3771 9.33725 16.251C9.4459 16.125 9.57768 16.0229 9.72483 15.9508C9.87198 15.8786 10.0315 15.838 10.194 15.8311C10.3565 15.8243 10.5186 15.8515 10.6709 15.911L10.6777 15.9134C11.9332 16.3493 13.2735 16.4476 14.574 16.2001L14.9016 16.3609L14.6654 15.9783C13.3574 16.2508 12.0038 16.163 10.7384 15.7237C10.5621 15.6548 10.3744 15.6234 10.1862 15.6313C9.99812 15.6392 9.81343 15.6863 9.64308 15.7698C9.47272 15.8533 9.32015 15.9715 9.19437 16.1174C9.06859 16.2633 8.97216 16.434 8.91075 16.6194Z" fill="#E9E9F2"/>
<path d="M18.9842 15.9746C18.686 16.6326 18.2154 17.1894 17.6265 17.5807C17.5918 17.6039 17.5564 17.6257 17.5204 17.6461L17.7301 17.749C19.7295 16.271 19.5666 14.6456 19.5143 13.9581L19.3203 13.9458C19.3219 13.963 19.3234 13.9802 19.3249 13.9975C19.3808 14.6755 19.2636 15.3577 18.9842 15.9746Z" fill="#E9E9F2"/>
<path fill-rule="evenodd" clip-rule="evenodd" d="M15.7167 15.7146C15.653 15.735 15.5891 15.7548 15.5251 15.7741L16.0321 16.5952C16.1511 16.7878 16.3386 16.9233 16.5535 16.9719C16.7684 17.0206 16.993 16.9783 17.178 16.8544C17.499 16.6397 17.7763 16.3612 17.994 16.0349C18.2116 15.7085 18.3653 15.3406 18.4463 14.9523C18.4661 14.8523 18.4813 14.7515 18.4917 14.6501C18.5 14.5692 18.5053 14.4879 18.5076 14.4066C18.4418 14.4483 18.3757 14.4895 18.3093 14.5299C18.2578 14.5613 18.2069 14.5918 18.155 14.6224C17.3828 15.0772 16.5652 15.4434 15.7167 15.7146ZM17.0742 16.686C17.3741 16.4856 17.633 16.2256 17.8362 15.9208C18.0393 15.6163 18.1827 15.2731 18.2584 14.9109C18.2672 14.8665 18.275 14.822 18.2818 14.7774C17.5036 15.2389 16.6797 15.6117 15.8245 15.8892L16.1936 16.487C16.285 16.635 16.4291 16.7392 16.5942 16.7765C16.7594 16.8139 16.9321 16.7813 17.0742 16.686Z" fill="#E9E9F2"/>
<path fill-rule="evenodd" clip-rule="evenodd" d="M18.7046 11.879C18.8008 11.8694 18.8933 11.8359 18.9746 11.7815C19.0682 11.7187 19.1435 11.6301 19.1921 11.5257C19.2406 11.4212 19.2606 11.3049 19.2499 11.1894C19.2391 11.0739 19.1981 10.9638 19.1312 10.871C19.0643 10.7782 18.9742 10.7064 18.8707 10.6635C18.4623 10.4934 17.5969 9.97895 16.6652 8.47019C15.7335 6.96125 15.6431 5.92767 15.6643 5.47002C15.6601 5.40755 15.6473 5.27132 15.6294 5.22618C15.6025 5.14808 15.5611 5.07626 15.5075 5.01482C15.454 4.95338 15.3894 4.90353 15.3173 4.86811C15.2453 4.83269 15.1673 4.8124 15.0877 4.80839C15.0081 4.80438 14.9286 4.81673 14.8536 4.84474C14.7786 4.87275 14.7096 4.91587 14.6507 4.97164C14.5917 5.02741 14.5438 5.09473 14.5098 5.16976C14.4758 5.24477 14.4563 5.32601 14.4525 5.40886C14.4156 6.19575 14.603 7.46652 15.6449 9.15371C16.6867 10.8409 17.7191 11.5456 18.4218 11.837C18.5115 11.8743 18.6085 11.8887 18.7046 11.879ZM18.884 11.604C18.8796 11.6072 18.8752 11.6103 18.8707 11.6133L18.8822 11.6053L18.8673 11.577L18.8707 11.6133C18.8152 11.6505 18.7519 11.6734 18.6862 11.68C18.6205 11.6866 18.5542 11.6767 18.4929 11.6513C17.8316 11.377 16.8292 10.7019 15.8064 9.04553C14.7836 7.38913 14.6096 6.15906 14.6443 5.41861C14.6469 5.36197 14.6602 5.30642 14.6834 5.25514C14.7067 5.20386 14.7394 5.15785 14.7797 5.11973C14.82 5.08162 14.8672 5.05215 14.9184 5.033C14.9697 5.01386 15.024 5.00542 15.0784 5.00816C15.1328 5.0109 15.1861 5.02477 15.2354 5.04898C15.2846 5.07318 15.3288 5.10725 15.3654 5.14925C15.402 5.19124 15.4302 5.24032 15.4486 5.2937C15.467 5.34708 15.4751 5.40371 15.4725 5.46035C15.4492 5.96312 15.5522 7.03747 16.5037 8.57838C17.4552 10.1193 18.3511 10.6625 18.7996 10.8492C18.8703 10.8786 18.9319 10.9277 18.9776 10.9911C19.0233 11.0545 19.0514 11.1298 19.0587 11.2087C19.0661 11.2876 19.0524 11.3671 19.0192 11.4385C18.9884 11.5049 18.9418 11.5618 18.884 11.604Z" fill="#E9E9F2"/>
<path fill-rule="evenodd" clip-rule="evenodd" d="M5.33471 21.9212C5.48959 21.9546 5.65034 21.9421 5.79871 21.8851C5.94708 21.828 6.07714 21.7288 6.1741 21.5987C7.309 20.0829 8.2305 18.4063 8.91075 16.6194C8.97216 16.434 9.06859 16.2633 9.19437 16.1174C9.32015 15.9715 9.47272 15.8533 9.64308 15.7698C9.81343 15.6863 9.99812 15.6392 10.1862 15.6313C10.3744 15.6234 10.5621 15.6548 10.7384 15.7237C12.0038 16.163 13.3574 16.2508 14.6654 15.9783L14.9016 16.3609L14.574 16.2001L15.1732 17.1705C15.4387 17.6004 15.8572 17.9028 16.3368 18.0113C16.8163 18.1198 17.3174 18.0254 17.7301 17.749L17.5204 17.6461C17.5564 17.6257 17.5918 17.6039 17.6265 17.5807C18.2154 17.1894 18.686 16.6326 18.9842 15.9746C19.2636 15.3577 19.3808 14.6755 19.3249 13.9975C19.3228 13.9723 19.3205 13.9472 19.3179 13.9221C19.3187 13.93 19.3195 13.9379 19.3203 13.9458L19.5143 13.9581C20.8736 12.9545 21.9868 11.6306 22.7629 10.0938C23.5567 8.52174 23.9743 6.77331 23.9802 4.99713L23.9802 4.99514C23.9776 4.5706 23.8591 4.1556 23.6386 3.79853C23.4181 3.44146 23.1047 3.15705 22.7349 2.97845L22.7332 2.97762C21.179 2.24675 19.4784 1.9175 17.7759 2.01788C16.1113 2.11602 14.493 2.62201 13.0524 3.49399C12.7099 3.2913 12.3401 3.14288 11.9552 3.05381C11.4518 2.93993 10.9309 2.93047 10.424 3.02635C9.91724 3.12222 9.43359 3.32133 9.00082 3.61227C8.58816 3.88876 8.29783 4.32465 8.1937 4.82407C8.08956 5.32354 8.18018 5.84565 8.44563 6.27554L9.04465 7.24562C8.28931 8.37568 7.81927 9.68654 7.67901 11.0572L7.67838 11.0647C7.66724 11.2337 7.62372 11.3987 7.55037 11.5498C7.47702 11.701 7.37534 11.8354 7.25131 11.9449C7.12729 12.0545 6.98345 12.1371 6.82828 12.1878C6.67311 12.2386 6.50976 12.2564 6.34787 12.2403L6.33922 12.2396C4.47802 12.1422 2.613 12.3218 0.800479 12.7729C0.241877 12.8569 0.0523462 13.3491 0.0274058 13.5847C-0.0169224 13.7835 -0.00683726 13.9914 0.0565222 14.1846C0.119939 14.378 0.234181 14.549 0.38626 14.6781L0.38992 14.6811C0.582496 14.8367 0.779442 14.9857 0.980442 15.128C1.99682 15.8478 3.11683 16.3968 4.29955 16.7538C4.12083 18.0228 4.13597 19.3121 4.34331 20.5739L4.6223 21.0257C4.61958 21.0125 4.61688 20.9992 4.61421 20.986C4.3234 19.5467 4.28955 18.063 4.51522 16.6093C3.13921 16.2167 1.84607 15.5609 0.701492 14.6763C0.701489 14.6763 0.701494 14.6763 0.701492 14.6763C1.84607 15.5609 3.13921 16.2167 4.51522 16.6093C4.28955 18.063 4.3234 19.5467 4.61421 20.986C4.61688 20.9992 4.61958 21.0125 4.6223 21.0257L5.13125 21.8499C5.19562 21.8823 5.26394 21.9064 5.33471 21.9212ZM17.6265 17.5807C17.5918 17.6039 17.5564 17.6257 17.5204 17.6461L17.7301 17.749C19.7295 16.271 19.5666 14.6456 19.5143 13.9581L19.3203 13.9458C19.3219 13.963 19.3234 13.9802 19.3249 13.9975C19.3808 14.6755 19.2636 15.3577 18.9842 15.9746C18.686 16.6326 18.2154 17.1894 17.6265 17.5807ZM0.701492 14.6763C0.701489 14.6763 0.701494 14.6763 0.701492 14.6763V14.6763ZM18.3093 14.5299C18.3091 14.5301 18.3096 14.5298 18.3093 14.5299V14.5299ZM18.3093 14.5299C18.3091 14.5301 18.3096 14.5298 18.3093 14.5299V14.5299ZM1.03482 13.8547C1.18425 13.9754 1.33659 14.0918 1.49166 14.2037C1.38903 14.1296 1.28759 14.0536 1.1874 13.9756C1.1427 13.9409 1.09825 13.9057 1.05405 13.8702L1.03482 13.8547ZM1.49166 14.2037C1.33659 14.0918 1.18425 13.9754 1.03482 13.8547L1.05405 13.8702C1.09825 13.9057 1.1427 13.9409 1.1874 13.9756C1.28759 14.0536 1.38903 14.1296 1.49166 14.2037ZM1.03482 13.8547L1.03949 13.8064L1.07586 13.7974L1.07784 13.7969C1.10743 13.7896 1.13703 13.7825 1.16665 13.7754C1.13637 13.7826 1.10611 13.79 1.07586 13.7974L1.03949 13.8064M1.07586 13.7974C1.10611 13.79 1.13637 13.7826 1.16665 13.7754C1.13703 13.7825 1.10743 13.7896 1.07784 13.7969L1.07586 13.7974ZM7.2257 13.1798C7.2257 13.1798 7.22571 13.1798 7.2257 13.1798V13.1798ZM5.52155 21.064C5.65595 20.884 5.78725 20.7016 5.9154 20.5171C5.82575 20.6462 5.73455 20.7742 5.64183 20.9011C5.60996 20.9448 5.57792 20.9882 5.54569 21.0316L5.52155 21.064ZM5.9154 20.5171C5.78725 20.7016 5.65595 20.884 5.52155 21.064L5.54569 21.0316C5.57792 20.9882 5.60996 20.9448 5.64183 20.9011C5.73455 20.7742 5.82575 20.6462 5.9154 20.5171ZM5.52155 21.064L5.47741 21.0484L5.52155 21.064ZM17.0742 16.686C17.3741 16.4856 17.633 16.2256 17.8362 15.9208C18.0393 15.6163 18.1827 15.2731 18.2584 14.9109C18.2672 14.8665 18.275 14.822 18.2818 14.7774C17.5036 15.2389 16.6797 15.6117 15.8245 15.8892L16.1936 16.487C16.285 16.635 16.4291 16.7392 16.5942 16.7765C16.7594 16.8139 16.9321 16.7813 17.0742 16.686ZM9.6572 4.67494C9.51508 4.77014 9.4151 4.92024 9.37924 5.09223C9.34338 5.26421 9.37458 5.44399 9.46599 5.59202L9.8351 6.18977C10.4322 5.49439 11.0996 4.86824 11.8255 4.32215C11.7823 4.30966 11.7387 4.29822 11.6949 4.28785C11.3477 4.20984 10.9892 4.20381 10.6397 4.2701C10.29 4.33645 9.95592 4.47413 9.6572 4.67494ZM13.2192 4.85575C9.70642 7.20892 9.00188 9.83963 8.8854 11.1712C8.85526 11.5643 8.73887 11.9448 8.5452 12.2836C8.35133 12.6227 8.0852 12.9109 7.76739 13.1258L7.76558 13.127C7.72354 13.1548 7.68077 13.181 7.63736 13.2059C7.20922 13.4507 6.71787 13.5528 6.23018 13.4962C4.6208 13.4198 3.00922 13.5616 1.43586 13.9176C2.54204 14.7497 3.79681 15.3455 5.12782 15.6693C5.28431 15.7052 5.42083 15.8042 5.50754 15.9446C5.59425 16.085 5.62406 16.2555 5.59049 16.4187C5.32136 17.8137 5.32127 19.2493 5.58887 20.6421C6.55238 19.2986 7.34466 17.8301 7.94548 16.2732C8.11381 15.7383 8.45217 15.279 8.90483 14.9712L8.90662 14.97C9.22615 14.7579 9.58821 14.6251 9.96484 14.582C10.3412 14.5389 10.722 14.5864 11.0779 14.7208C12.1767 15.1233 14.4072 15.5089 17.4305 13.8261C17.7431 13.652 18.0643 13.4559 18.3935 13.2353L18.3954 13.2341C19.6234 12.4319 20.6548 11.3425 21.4075 10.0523C22.0918 8.8795 22.5287 7.57026 22.6911 6.21148L22.1618 6.56606C22.0265 6.6567 21.8622 6.68764 21.705 6.65208C21.5477 6.61652 21.4105 6.51737 21.3235 6.37644C21.2365 6.23551 21.2068 6.06435 21.2409 5.9006C21.2751 5.73686 21.3703 5.59394 21.5056 5.5033L22.7112 4.69563C22.6804 4.59101 22.6318 4.49263 22.5673 4.40534C22.478 4.28429 22.361 4.18839 22.227 4.12633L22.2258 4.12574C20.7876 3.44636 19.2077 3.15694 17.6333 3.2844C16.0588 3.41185 14.5409 3.95205 13.2207 4.85473L13.2192 4.85575Z" fill="#E9E9F2"/>
<path fill-rule="evenodd" clip-rule="evenodd" d="M4.6223 21.0257L5.13125 21.8499C5.05277 21.8104 4.98017 21.7584 4.91618 21.6955C4.79969 21.5809 4.71641 21.4346 4.67579 21.2732C4.65712 21.1909 4.63929 21.1084 4.6223 21.0257ZM15.5251 15.7741C15.5891 15.7548 15.653 15.735 15.7167 15.7146C16.5652 15.4434 17.3828 15.0772 18.155 14.6224C18.2069 14.5918 18.2578 14.5613 18.3093 14.5299C18.3757 14.4895 18.4418 14.4483 18.5076 14.4066C18.5053 14.4879 18.5 14.5692 18.4917 14.6501C18.4813 14.7515 18.4661 14.8523 18.4463 14.9523C18.3653 15.3406 18.2116 15.7085 17.994 16.0349C17.7763 16.3612 17.499 16.6397 17.178 16.8544C16.993 16.9783 16.7684 17.0206 16.5535 16.9719C16.3386 16.9233 16.1511 16.7878 16.0321 16.5952L15.5251 15.7741ZM11.7365 4.09259C11.8336 4.11554 11.9294 4.1434 12.0238 4.17606C12.0979 4.20172 12.1711 4.23035 12.2433 4.26189C12.1794 4.30688 12.1161 4.35249 12.0531 4.3987C11.2792 4.96682 10.5711 5.62645 9.94293 6.36439C9.89873 6.41631 9.85493 6.46863 9.81152 6.52132L9.30449 5.7002C9.18553 5.50757 9.14492 5.27361 9.19159 5.04978C9.23826 4.82596 9.36838 4.63062 9.55333 4.50672C9.87325 4.29167 10.2307 4.14439 10.6053 4.07333C10.9799 4.00227 11.3643 4.00881 11.7365 4.09259ZM18.8822 11.6053L18.8673 11.577L18.8707 11.6133L18.8822 11.6053ZM19.6418 6.47622C19.8487 6.33763 20.0115 6.13825 20.1096 5.90331C20.2077 5.66836 20.2367 5.40839 20.1929 5.15627C20.1491 4.90416 20.0346 4.67122 19.8637 4.48691C19.6929 4.30261 19.4734 4.17522 19.233 4.12084C18.9926 4.06647 18.7421 4.08757 18.5133 4.18145C18.2844 4.27534 18.0874 4.43781 17.9472 4.64831C17.807 4.85881 17.7298 5.10789 17.7255 5.36406C17.7212 5.62022 17.79 5.87196 17.923 6.08744C18.1014 6.37639 18.3828 6.57969 18.7051 6.6526C19.0274 6.72551 19.3644 6.66206 19.6418 6.47622ZM18.7046 11.879C18.8008 11.8694 18.8933 11.8359 18.9746 11.7815C19.0682 11.7187 19.1435 11.6301 19.1921 11.5257C19.2406 11.4212 19.2606 11.3049 19.2499 11.1894C19.2391 11.0739 19.1981 10.9638 19.1312 10.871C19.0643 10.7782 18.9742 10.7064 18.8707 10.6635C18.4623 10.4934 17.5969 9.97895 16.6652 8.47019C15.7335 6.96125 15.6431 5.92767 15.6643 5.47002C15.6601 5.40755 15.6473 5.27132 15.6294 5.22618C15.6025 5.14808 15.5611 5.07626 15.5075 5.01482C15.454 4.95338 15.3894 4.90353 15.3173 4.86811C15.2453 4.83269 15.1673 4.8124 15.0877 4.80839C15.0081 4.80438 14.9286 4.81673 14.8536 4.84474C14.7786 4.87275 14.7096 4.91587 14.6507 4.97164C14.5917 5.02741 14.5438 5.09473 14.5098 5.16976C14.4758 5.24477 14.4563 5.32601 14.4525 5.40886C14.4156 6.19575 14.603 7.46652 15.6449 9.15371C16.6867 10.8409 17.7191 11.5456 18.4218 11.837C18.5115 11.8743 18.6085 11.8887 18.7046 11.879ZM19.7457 6.64443C19.9845 6.48444 20.1724 6.25429 20.2857 5.98306C20.3989 5.71184 20.4324 5.41173 20.3819 5.12069C20.3313 4.82965 20.1991 4.56075 20.0018 4.34799C19.8046 4.13523 19.5512 3.98817 19.2737 3.9254C18.9962 3.86263 18.7071 3.88698 18.4429 3.99537C18.1787 4.10375 17.9513 4.2913 17.7894 4.5343C17.6276 4.7773 17.5385 5.06484 17.5335 5.36056C17.5286 5.65627 17.6079 5.94688 17.7615 6.19563C17.9675 6.52919 18.2922 6.76387 18.6644 6.84804C19.0365 6.93221 19.4254 6.85897 19.7457 6.64443ZM9.37924 5.09223C9.4151 4.92024 9.51508 4.77014 9.6572 4.67494C9.95592 4.47413 10.29 4.33645 10.6397 4.2701C10.9892 4.20381 11.3477 4.20984 11.6949 4.28785C11.7387 4.29822 11.7823 4.30966 11.8255 4.32215C11.0996 4.86824 10.4322 5.49439 9.8351 6.18977L9.46599 5.59202C9.37458 5.44399 9.34338 5.26421 9.37924 5.09223ZM17.0742 16.686C17.3741 16.4856 17.633 16.2256 17.8362 15.9208C18.0393 15.6163 18.1827 15.2731 18.2584 14.9109C18.2672 14.8665 18.275 14.822 18.2818 14.7774C17.5036 15.2389 16.6797 15.6117 15.8245 15.8892L16.1936 16.487C16.285 16.635 16.4291 16.7392 16.5942 16.7765C16.7594 16.8139 16.9321 16.7813 17.0742 16.686Z" fill="#E9E9F2"/>
</g>
<defs>
<clipPath id="clip0_0_59">
<rect width="24" height="24" fill="white"/>
</clipPath>
</defs>
</svg>
