<svg width="10" height="11" viewBox="0 0 10 11" fill="none" xmlns="http://www.w3.org/2000/svg">
<path d="M3.0636 1.11917C3.35053 0.810165 3.65953 0.501163 3.92439 0.170089C4.07889 -0.00648337 4.18924 -0.0726987 4.38789 0.103874C5.66804 1.18538 7.1689 1.5606 8.82426 1.49438C9.02291 1.33988 9.30984 1.47231 9.50848 1.31781C9.64091 1.29574 9.79541 1.29574 9.92784 1.27367C9.97198 1.31781 10.0161 1.38403 9.99405 1.4061C9.68505 1.8696 9.53055 2.42139 9.06705 2.7966C8.36076 4.20918 7.72069 5.66591 7.10268 7.12263C6.94818 7.49785 6.63918 7.65235 6.28604 7.80685C4.78518 8.51314 3.35053 9.32979 1.84966 10.0361C1.51859 10.1906 1.14337 10.4113 0.701944 10.3451C0.0177274 10.5217 -0.0705587 10.4554 0.0397989 9.79329C0.370872 7.82892 0.635732 5.86455 1.34202 3.9664C1.65102 3.14975 2.11452 2.42139 2.62217 1.7151C2.77667 1.53853 2.88702 1.31781 3.0636 1.11917Z" fill="#1C5E99"/>
</svg>
