<svg width="7" height="10" viewBox="0 0 7 10" fill="none" xmlns="http://www.w3.org/2000/svg">
<path d="M4.21481 4.05447C3.71087 4.58133 3.41308 5.22271 3.1382 5.88701C2.7946 6.68874 2.54263 7.51337 2.29066 8.36092C2.13031 8.88777 2.24484 9.11684 2.7946 9.18556C2.95495 9.20846 3.09239 9.20846 3.1382 9.39172C2.17612 9.46044 1.25986 9.02521 0.297786 9.16265C7.09976e-07 9.20846 0 8.93359 0 8.72743C0 7.97151 0.251973 7.2614 0.412319 6.52839C0.664292 5.47468 1.0537 4.51261 1.58055 3.59634C2.38228 2.19904 3.41308 0.984985 4.69585 0C4.81038 0.0687199 4.81038 0.183252 4.83329 0.274879C4.90201 0.458132 4.62713 0.755918 4.99364 0.824638C5.38305 0.893358 5.77246 1.16824 6.13897 0.687199C6.32222 0.458133 6.57419 0.0687202 6.9865 0.435226C7.05522 0.733013 6.84907 0.870452 6.66581 1.0308C5.84118 1.80962 5.10817 2.68008 4.58131 3.68797C4.51259 3.89413 4.39807 4.03157 4.21481 4.05447Z" fill="#1C5E99"/>
</svg>
