<svg width="8" height="8" viewBox="0 0 8 8" fill="none" xmlns="http://www.w3.org/2000/svg">
<path d="M3.81802 0C4.47047 0.0966591 4.34965 0.676614 4.44631 1.01492C4.95377 2.46481 5.89619 3.3589 7.34607 3.79387C7.51523 3.8422 7.78104 3.89053 7.8052 4.15634C7.85353 4.47048 7.56355 4.42215 7.3944 4.51881C6.74195 4.83295 5.99284 4.95378 5.46122 5.4854C4.88127 6.08952 4.56713 6.88696 4.27715 7.66023C4.22882 7.78105 4.34965 8.0227 4.08384 7.99854C3.89052 7.99854 3.84219 7.85355 3.81802 7.6844C3.47972 6.40366 2.82727 5.38874 1.52237 4.85712C1.13574 4.71213 0.749105 4.56714 0.338305 4.47048C0.193316 4.44632 0.0241647 4.49465 0 4.253C0 4.03552 0.120819 4.03552 0.289972 3.98719C1.93317 3.64888 2.94809 2.56147 3.52804 1.03909C3.67303 0.676614 3.91468 0.386636 3.81802 0Z" fill="white"/>
</svg>
