<svg width="6" height="5" viewBox="0 0 6 5" fill="none" xmlns="http://www.w3.org/2000/svg">
<path d="M5.9508 2.68221C5.77867 3.07566 5.43441 3.2232 5.16392 3.29697C4.32786 3.54287 3.81146 4.10844 3.36884 4.77238C3.17212 5.06746 3.07376 5.06746 2.80327 4.82156C2.68032 4.7232 2.50819 4.57565 2.45901 4.47729C2.01639 3.56746 1.25409 3.14943 0.319668 2.97729C0.221308 2.9527 0.147541 2.82975 0 2.73139C1.32787 2.38713 2.13934 1.52648 2.68032 0.346148C2.7295 0.198607 2.82786 -0.0227038 3.07376 0.00188631C3.31966 0.00188631 3.31966 0.198607 3.39343 0.346148C3.86064 1.52648 4.64753 2.36254 5.9508 2.68221Z" fill="black"/>
</svg>
