<svg width="22" height="22" viewBox="0 0 22 22" fill="none" xmlns="http://www.w3.org/2000/svg">
<circle opacity="0.5" cx="11" cy="11" r="11" fill="#D9D9D9"/>
<path fill-rule="evenodd" clip-rule="evenodd" d="M11.1567 6.87198C11.1741 7.86046 11.4792 8.81773 12.0281 9.62941L11.0669 10.4758L9.81745 9.05679C9.5798 8.7869 9.16836 8.76077 8.89847 8.99842C8.62858 9.23607 8.60244 9.64751 8.84009 9.9174L10.0896 11.3364L9.15927 12.1556L8.74968 11.6904C8.51203 11.4205 8.10059 11.3944 7.8307 11.632C7.56081 11.8697 7.53467 12.2811 7.77232 12.551L8.18191 13.0162L7.63358 13.499C7.00326 13.4688 6.37426 13.415 5.74792 13.3377C5.39102 13.2936 5.06597 13.5472 5.0219 13.9041C4.97783 14.261 5.23143 14.5861 5.58832 14.6301C6.11501 14.6952 6.64348 14.7444 7.17301 14.7777C7.13826 15.3066 7.11977 15.8366 7.11758 16.3668C7.11609 16.7264 7.40641 17.0191 7.76601 17.0206C8.12562 17.0221 8.41834 16.7317 8.41982 16.3721C8.42245 15.7372 8.44968 15.1027 8.50147 14.47L9.04252 13.9935L9.45211 14.4587C9.68976 14.7286 10.1012 14.7547 10.3711 14.5171C10.641 14.2794 10.6671 13.868 10.4295 13.5981L10.0199 13.1329L10.9502 12.3137L12.1997 13.7327C12.4373 14.0026 12.8488 14.0288 13.1187 13.7911C13.3885 13.5535 13.4147 13.142 13.177 12.8721L11.9275 11.4531L12.8886 10.6068C13.6354 11.264 14.5629 11.6909 15.5581 11.8266C15.8244 11.8629 16.0856 11.732 16.2158 11.4968C16.8469 10.3568 17.0906 8.96123 16.9686 7.33651C16.9191 6.67866 16.4394 6.13406 15.7929 6.00212C14.2119 5.67942 12.8082 5.74129 11.6052 6.21136C11.4007 6.27804 11.2411 6.44306 11.1815 6.65003C11.1607 6.72127 11.152 6.79631 11.1567 6.87198ZM12.4919 7.28674C12.5912 8.02469 12.907 8.72068 13.4044 9.28405L13.4056 9.28541C13.9034 9.85251 14.5571 10.2548 15.28 10.4457C15.6153 9.64721 15.7616 8.65419 15.67 7.43409C15.6642 7.35693 15.6083 7.29353 15.5325 7.27807C14.3323 7.03309 13.3274 7.0536 12.4919 7.28674ZM13.4967 7.48953C13.7666 7.25188 14.1781 7.27802 14.4157 7.54791L14.4199 7.55268C14.6576 7.82257 14.6314 8.23401 14.3615 8.47166C14.0916 8.70931 13.6802 8.68318 13.4426 8.41329L13.4384 8.40852C13.2007 8.13863 13.2268 7.72718 13.4967 7.48953Z" fill="#403D72"/>
</svg>
