<svg width="24" height="24" viewBox="0 0 24 24" fill="none" xmlns="http://www.w3.org/2000/svg">
<path fill-rule="evenodd" clip-rule="evenodd" d="M7.46249 4.121C5.06468 4.121 3.12079 6.0649 3.12079 8.4627V15.1673C3.12079 17.5651 5.06468 19.509 7.46249 19.509H15.5369C17.9347 19.509 19.8786 17.5651 19.8786 15.1673V14.7666H16.6575C14.9599 14.7655 13.5831 13.3904 13.582 11.6923C13.582 9.9936 14.9598 8.6184 16.6571 8.61736H19.8786V8.4627C19.8786 6.0649 17.9347 4.121 15.5369 4.121H7.46249ZM20.9996 9.16387V8.4627C20.9996 5.44578 18.5538 3 15.5369 3H7.46249C4.44557 3 1.99979 5.44578 1.99979 8.4627V15.1673C1.99979 18.1842 4.44557 20.63 7.46249 20.63H15.5369C18.5538 20.63 20.9996 18.1842 20.9996 15.1673V14.22C20.9997 14.2154 20.9998 14.2107 20.9998 14.2061C20.9998 14.2014 20.9997 14.1967 20.9996 14.1921V9.19184C20.9997 9.18719 20.9998 9.18253 20.9998 9.17786C20.9998 9.17318 20.9997 9.16852 20.9996 9.16387ZM19.8786 9.73836H16.6578C15.5781 9.73902 14.7032 10.6133 14.703 11.6916C14.7037 12.7707 15.5783 13.6449 16.6578 13.6456H19.8786V9.73836ZM6.23717 7.79976C6.23717 7.4902 6.48812 7.23926 6.79768 7.23926H11.8413C12.1508 7.23926 12.4018 7.4902 12.4018 7.79976C12.4018 8.10931 12.1508 8.36026 11.8413 8.36026H6.79768C6.48812 8.36026 6.23717 8.10931 6.23717 7.79976ZM16.2337 11.6345C16.2337 11.325 16.4847 11.074 16.7942 11.074H17.0857C17.3952 11.074 17.6462 11.325 17.6462 11.6345C17.6462 11.9441 17.3952 12.195 17.0857 12.195H16.7942C16.4847 12.195 16.2337 11.9441 16.2337 11.6345Z" fill="#BBBBBB"/>
</svg>
