<svg width="30" height="7" viewBox="0 0 30 7" fill="none" xmlns="http://www.w3.org/2000/svg">
<path d="M30.0001 6.11525C29.2054 6.35807 28.5211 6.04902 27.8367 5.93864C26.9316 5.78412 26.0486 5.40884 25.1656 5.16601C24.2606 4.92319 23.3996 4.50376 22.5166 4.15056C20.7727 3.46623 18.9625 3.20132 17.1524 3.46623C15.9382 3.64283 14.7462 4.06226 13.6204 4.59206C12.5387 5.09979 11.3908 5.43092 10.2649 5.80619C8.27817 6.46845 6.24726 6.5126 4.21635 6.4243C3.11259 6.38015 2.05299 6.0711 1.03753 5.67374C0.684328 5.54129 0.286977 5.49714 0 5.21017C0.132451 5.03356 0.331126 5.12186 0.485652 5.12186C1.54526 5.12186 2.60486 5.21017 3.66447 5.09979C4.9669 4.96734 6.26934 4.72451 7.54969 4.37131C9.38193 3.86358 10.9934 2.93642 12.649 2.07549C13.51 1.63399 14.3488 1.12626 15.2539 0.728906C15.872 0.464004 16.5122 0.287401 17.1744 0.1991C17.5056 0.15495 17.7925 0.000424709 18.1458 0.000424709C20.7065 -0.0216505 22.936 0.817206 24.9007 2.42869C26.2915 3.5766 27.6381 4.74659 29.1833 5.69582C29.4041 5.82827 29.669 5.96072 30.0001 6.11525Z" fill="#3F97F6"/>
</svg>
