<svg width="7" height="9" viewBox="0 0 7 9" fill="none" xmlns="http://www.w3.org/2000/svg">
<path d="M6.99994 5.51338C6.53467 6.76959 5.83678 7.83969 4.58057 8.39801C4.34794 8.51433 4.13857 8.70043 3.85941 8.65391C2.88236 8.95633 2.46363 8.81675 1.90531 8.00254C1.50984 7.44422 1.23068 6.81611 0.95152 6.21127C0.718889 5.74601 0.532784 5.25748 0.253626 4.79222C-0.0487947 4.30369 -0.0255302 3.72211 0.0442593 3.18706C0.160575 2.32632 0.439728 1.51211 0.67236 0.674633C0.858465 0.488527 0.765415 0.139579 1.06784 0C2.13794 0.907264 3.34762 1.60516 4.41773 2.48916C4.76667 2.76832 4.90625 3.21032 5.23194 3.48948C5.8833 4.16411 6.41836 4.86201 6.99994 5.51338Z" fill="#3694F0"/>
</svg>
