<svg width="13" height="13" viewBox="0 0 13 13" fill="none" xmlns="http://www.w3.org/2000/svg">
<path d="M9.20837 3.24967H11.9167V4.33301H10.8334V11.3747C10.8334 11.5183 10.7763 11.6561 10.6747 11.7577C10.5731 11.8593 10.4354 11.9163 10.2917 11.9163H2.70837C2.56472 11.9163 2.42694 11.8593 2.32536 11.7577C2.22378 11.6561 2.16671 11.5183 2.16671 11.3747V4.33301H1.08337V3.24967H3.79171V1.62467C3.79171 1.48102 3.84878 1.34324 3.95036 1.24166C4.05194 1.14008 4.18971 1.08301 4.33337 1.08301H8.66671C8.81037 1.08301 8.94814 1.14008 9.04972 1.24166C9.15131 1.34324 9.20837 1.48102 9.20837 1.62467V3.24967ZM9.75004 4.33301H3.25004V10.833H9.75004V4.33301ZM4.87504 2.16634V3.24967H8.12504V2.16634H4.87504Z" fill="#080450"/>
</svg>
