<svg width="4" height="10" viewBox="0 0 4 10" fill="none" xmlns="http://www.w3.org/2000/svg">
<path d="M3.61624 0C3.71398 0.53755 3.20086 0.806325 3.00539 1.22171C2.41897 2.49228 1.95472 3.78729 1.68595 5.18003C1.39274 6.54834 1.2217 7.94108 0.879627 9.28496C0.830759 9.48043 0.855191 9.5293 1.02623 9.55373C1.17283 9.57817 1.34387 9.57817 1.49048 9.57817C1.12397 9.99355 0.561983 9.79808 0.12217 9.99355C0 10.0424 0 9.79808 0 9.65147C0.0244341 8.69854 0.268775 7.77005 0.439814 6.84155C0.635286 5.83975 0.977361 4.91125 1.27057 3.95832C1.58821 2.88322 2.12576 1.93029 2.76105 1.0018C3.00539 0.61085 3.12756 0.146605 3.61624 0Z" fill="#3E97F8"/>
</svg>
