<svg width="17" height="17" viewBox="0 0 17 17" fill="none" xmlns="http://www.w3.org/2000/svg">
<path d="M7.82081 0.308991C8.17996 -0.102813 8.82 -0.102813 9.17915 0.308992L9.59527 0.786123C9.85881 1.08831 10.2903 1.18002 10.654 1.01116L11.2282 0.744526C11.7238 0.514401 12.3085 0.774732 12.4691 1.29701L12.6552 1.90214C12.773 2.28539 13.1299 2.54468 13.5308 2.53833L14.1638 2.52831C14.7102 2.51965 15.1384 2.9953 15.0727 3.53775L14.9966 4.16624C14.9483 4.56429 15.1689 4.94633 15.5377 5.10359L16.1201 5.3519C16.6227 5.56621 16.8205 6.17493 16.5399 6.64375L16.2147 7.18695C16.0087 7.53097 16.0548 7.96969 16.3278 8.26337L16.7588 8.72708C17.1308 9.1273 17.0639 9.76385 16.6168 10.078L16.0988 10.4419C15.7708 10.6725 15.6344 11.092 15.7644 11.4713L15.9695 12.0703C16.1466 12.5872 15.8266 13.1415 15.2903 13.2466L14.6691 13.3684C14.2756 13.4455 13.9804 13.7734 13.9448 14.1728L13.8886 14.8033C13.8401 15.3476 13.3223 15.7238 12.7897 15.6018L12.1726 15.4603C11.7818 15.3708 11.3788 15.5502 11.1839 15.9006L10.876 16.4538C10.6104 16.9313 9.9843 17.0643 9.54738 16.7362L9.04116 16.356C8.72055 16.1152 8.27941 16.1152 7.9588 16.356L7.45258 16.7362C7.01566 17.0643 6.3896 16.9313 6.12393 16.4538L5.8161 15.9006C5.62115 15.5502 5.21815 15.3708 4.82732 15.4603L4.21023 15.6018C3.67762 15.7238 3.15981 15.3476 3.11131 14.8033L3.05512 14.1728C3.01953 13.7734 2.72435 13.4455 2.33088 13.3684L1.70961 13.2466C1.17341 13.1415 0.853384 12.5872 1.03044 12.0703L1.23559 11.4713C1.36552 11.092 1.2292 10.6725 0.901128 10.4419L0.383115 10.078C-0.0639747 9.76385 -0.130878 9.1273 0.24113 8.72708L0.672152 8.26337C0.945132 7.96969 0.991243 7.53097 0.785289 7.18695L0.460097 6.64375C0.179429 6.17493 0.377215 5.56621 0.879846 5.3519L1.46221 5.10359C1.83104 4.94633 2.05161 4.56429 2.00339 4.16624L1.92725 3.53775C1.86153 2.9953 2.28981 2.51965 2.83615 2.52831L3.46917 2.53833C3.87008 2.54468 4.22696 2.28539 4.34481 1.90214L4.53088 1.29701C4.69148 0.774731 5.27619 0.514401 5.77178 0.744526L6.34599 1.01116C6.70966 1.18002 7.14115 1.08831 7.4047 0.786123L7.82081 0.308991Z" fill="#008000"/>
</svg>
