<svg width="11" height="11" viewBox="0 0 11 11" fill="none" xmlns="http://www.w3.org/2000/svg">
<path d="M5.61803 9.68647C5.08908 9.68647 4.56014 9.56411 4.07188 9.36016C3.58362 9.15621 3.13606 8.87068 2.72917 8.50357C2.36298 8.09567 2.07816 7.68777 1.87472 7.1575C1.66573 6.66728 1.55512 6.14058 1.54922 5.60749C1.54922 5.07723 1.67128 4.54696 1.87472 4.05748C2.07816 3.568 2.36298 3.11932 2.72917 2.71142C3.13606 2.34431 3.58362 2.05878 4.07188 1.85483C5.06248 1.44686 6.17358 1.44686 7.16418 1.85483C7.65244 2.05878 8.1 2.34431 8.50689 2.71142C8.87308 3.11932 9.1579 3.568 9.36134 4.05748C9.56478 4.54696 9.68684 5.07723 9.68684 5.60749C9.68684 6.13776 9.56478 6.66803 9.36134 7.1575C9.1579 7.68777 8.87308 8.09567 8.50689 8.50357C8.1 8.87068 7.65244 9.15621 7.16418 9.36016C6.67592 9.56411 6.14698 9.68647 5.61803 9.68647Z" fill="#E64F4F"/>
<path d="M5.5697 10.083C3.07983 10.083 1.05603 8.0592 1.05603 5.56933C1.05603 3.07947 3.07983 1.05566 5.5697 1.05566C8.05956 1.05566 10.0834 3.07947 10.0834 5.56933C10.0834 8.0592 8.05956 10.083 5.5697 10.083ZM5.5697 1.68548C3.42833 1.68548 1.68584 3.42796 1.68584 5.56933C1.68584 7.7107 3.42833 9.45318 5.5697 9.45318C7.71107 9.45318 9.45355 7.7107 9.45355 5.56933C9.45355 3.42796 7.71107 1.68548 5.5697 1.68548Z" fill="#E64F4F"/>
<path d="M5.61862 6.40205C5.44647 6.40205 5.30371 6.25929 5.30371 6.08714V3.98776C5.30371 3.81561 5.44647 3.67285 5.61862 3.67285C5.79077 3.67285 5.93352 3.81561 5.93352 3.98776V6.08714C5.93352 6.25929 5.79077 6.40205 5.61862 6.40205Z" fill="white"/>
<path d="M5.61848 7.76637C5.5639 7.76637 5.50932 7.75377 5.45893 7.73278C5.40855 7.71179 5.36236 7.68239 5.32037 7.6446C5.28258 7.60262 5.25319 7.56063 5.2322 7.50605C5.21063 7.45558 5.19922 7.40137 5.19861 7.34649C5.19861 7.29191 5.2112 7.23733 5.2322 7.18694C5.25319 7.13656 5.28258 7.09037 5.32037 7.04838C5.36236 7.01059 5.40855 6.9812 5.45893 6.96021C5.56116 6.91821 5.67581 6.91821 5.77804 6.96021C5.82842 6.9812 5.87461 7.01059 5.9166 7.04838C5.95439 7.09037 5.98378 7.13656 6.00477 7.18694C6.02576 7.23733 6.03836 7.29191 6.03836 7.34649C6.03836 7.40108 6.02576 7.45566 6.00477 7.50605C5.98378 7.56063 5.95439 7.60262 5.9166 7.6446C5.87461 7.68239 5.82842 7.71179 5.77804 7.73278C5.72765 7.75377 5.67307 7.76637 5.61848 7.76637Z" fill="white"/>
</svg>
