<svg width="19" height="19" viewBox="0 0 19 19" fill="none" xmlns="http://www.w3.org/2000/svg">
<path fill-rule="evenodd" clip-rule="evenodd" d="M18.9996 9.4998C18.9996 14.7464 14.7464 18.9996 9.4998 18.9996C4.2532 18.9996 0 14.7464 0 9.4998C0 4.2532 4.2532 0 9.4998 0C14.7464 0 18.9996 4.2532 18.9996 9.4998ZM9.4998 17.7605C14.0621 17.7605 17.7605 14.0621 17.7605 9.4998C17.7605 4.93754 14.0621 1.2391 9.4998 1.2391C4.93754 1.2391 1.2391 4.93754 1.2391 9.4998C1.2391 14.0621 4.93754 17.7605 9.4998 17.7605Z" fill="#080450"/>
<path d="M5.36945 11.9267V7.51033H6.17702V11.9267H5.36945Z" fill="#080450"/>
<path d="M8.54086 12.0024C8.21699 12.0024 7.93098 11.9477 7.68282 11.8384C7.43466 11.7248 7.23908 11.565 7.09608 11.3589C6.95307 11.1486 6.87946 10.8941 6.87526 10.5955H7.72699C7.7354 10.8016 7.809 10.9761 7.94781 11.1191C8.09081 11.2579 8.28639 11.3273 8.53455 11.3273C8.74906 11.3273 8.91941 11.2769 9.04559 11.1759C9.17177 11.0708 9.23486 10.932 9.23486 10.7595C9.23486 10.5787 9.17808 10.4378 9.06452 10.3368C8.95516 10.2359 8.80795 10.1538 8.62288 10.0908C8.43781 10.0277 8.24013 9.96037 8.02982 9.88887C7.68913 9.7711 7.42836 9.61968 7.24749 9.43461C7.07084 9.24954 6.98251 9.00349 6.98251 8.69645C6.97831 8.43567 7.03929 8.21275 7.16548 8.02768C7.29586 7.83841 7.47252 7.6933 7.69544 7.59235C7.91836 7.4872 8.17493 7.43462 8.46515 7.43462C8.75958 7.43462 9.01825 7.4872 9.24117 7.59235C9.4683 7.6975 9.64495 7.84472 9.77114 8.03399C9.90152 8.22326 9.97093 8.44829 9.97934 8.70906H9.11499C9.11078 8.55344 9.0498 8.41674 8.93203 8.29897C8.81846 8.177 8.65863 8.11601 8.45253 8.11601C8.27588 8.1118 8.12656 8.15597 8.00459 8.2485C7.88682 8.33683 7.82793 8.46722 7.82793 8.63966C7.82793 8.78688 7.8742 8.90465 7.96673 8.99297C8.05927 9.0771 8.18545 9.1486 8.34528 9.20748C8.50511 9.26637 8.68807 9.32946 8.89417 9.39676C9.11289 9.47247 9.31267 9.56079 9.49354 9.66174C9.6744 9.76269 9.81951 9.89728 9.92886 10.0655C10.0382 10.2296 10.0929 10.442 10.0929 10.7027C10.0929 10.9341 10.034 11.1486 9.91625 11.3463C9.79848 11.544 9.62392 11.7038 9.39259 11.8258C9.16126 11.9435 8.87735 12.0024 8.54086 12.0024Z" fill="#080450"/>
<path d="M12.8669 12.0024C12.4252 12.0024 12.0383 11.9057 11.706 11.7122C11.3779 11.5187 11.1193 11.2516 10.93 10.9109C10.7449 10.566 10.6524 10.1686 10.6524 9.71852C10.6524 9.26847 10.7449 8.8731 10.93 8.53241C11.1193 8.18751 11.3779 7.91832 11.706 7.72484C12.0383 7.53136 12.4252 7.43462 12.8669 7.43462C13.3043 7.43462 13.6892 7.53136 14.0215 7.72484C14.3537 7.91832 14.6124 8.18751 14.7975 8.53241C14.9825 8.8731 15.0751 9.26847 15.0751 9.71852C15.0751 10.1686 14.9825 10.566 14.7975 10.9109C14.6124 11.2516 14.3537 11.5187 14.0215 11.7122C13.6892 11.9057 13.3043 12.0024 12.8669 12.0024ZM12.8669 11.2769C13.2875 11.2769 13.6219 11.1381 13.87 10.8605C14.1224 10.5829 14.2486 10.2022 14.2486 9.71852C14.2486 9.23482 14.1224 8.85417 13.87 8.57657C13.6219 8.29897 13.2875 8.16017 12.8669 8.16017C12.4463 8.16017 12.1098 8.29897 11.8574 8.57657C11.6051 8.85417 11.4789 9.23482 11.4789 9.71852C11.4789 10.2022 11.6051 10.5829 11.8574 10.8605C12.1098 11.1381 12.4463 11.2769 12.8669 11.2769Z" fill="#080450"/>
</svg>
