<svg width="15" height="15" viewBox="0 0 15 15" fill="none" xmlns="http://www.w3.org/2000/svg">
<path d="M7.3334 0C7.85217 1.2631 8.41605 2.36832 9.18294 3.36076C10.3333 4.87197 11.7317 6.08996 13.4459 6.92451C13.8293 7.10495 14.1902 7.30795 14.6188 7.39817C14.7316 7.42073 14.8443 7.53351 14.8669 7.64629C14.912 7.84928 14.709 7.78161 14.5962 7.82673C12.8369 8.50339 11.2806 9.47327 10.0175 10.8943C9.09271 11.9318 8.46115 13.1272 7.87472 14.3452C7.76194 14.5708 7.67172 14.9768 7.53639 14.9993C7.19805 15.0219 7.26572 14.6159 7.13039 14.4129C6.45373 13.1272 5.75451 11.8416 4.71697 10.804C3.7922 9.87927 2.7321 9.08983 1.53667 8.50339C1.063 8.27783 0.611892 8.02973 0.13823 7.80417C0.0480085 7.75906 0.00290326 7.69139 0.00290326 7.60117C-0.0196521 7.44328 0.0931164 7.44329 0.205893 7.39817C3.36364 6.18018 5.68685 4.03742 7.06273 0.924773C7.15295 0.631553 7.17551 0.383442 7.3334 0Z" fill="black"/>
</svg>
