<svg width="24" height="24" viewBox="0 0 24 24" fill="none" xmlns="http://www.w3.org/2000/svg">
<path fill-rule="evenodd" clip-rule="evenodd" d="M7.45307 8.47879C7.45307 9.32613 7.37522 9.99563 8.05352 10.6737C9.34966 11.9698 11.5386 11.0244 11.5386 9.23137V8.47879H7.45307ZM11.9955 13.7662C10.0475 13.7662 8.45517 15.3582 8.45517 17.3063V20.9363H4.53748C4.31678 20.9363 4.1156 20.8456 3.96941 20.6994C3.92418 20.6994 3.73252 20.4104 3.73252 20.1314V12.0879C4.99246 12.4265 6.30788 11.8929 6.99571 10.8065C8.1609 12.646 10.8303 12.646 11.9955 10.8065C13.1607 12.646 15.8301 12.646 16.9953 10.8065C17.6831 11.8929 18.9978 12.4262 20.2585 12.0879V20.1316C20.2585 20.3523 20.1678 20.5537 20.0216 20.6997C20.0216 20.7449 19.7325 20.9366 19.4535 20.9366H15.5358V17.3065C15.5358 15.3583 13.9435 13.7662 11.9955 13.7662ZM13.8499 15.4521C12.1833 13.7857 9.36942 15.0011 9.36942 17.3063V20.9363H14.6216V17.3065C14.6216 16.5849 14.3261 15.9282 13.8499 15.4521ZM21.1727 11.6634V20.1316C21.1727 20.6049 20.9794 21.0349 20.6682 21.3461L20.6673 21.3451C20.3549 21.6573 19.9254 21.8508 19.4537 21.8508C14.4818 21.8508 9.50989 21.8508 4.53772 21.8508C4.06441 21.8508 3.63443 21.6575 3.32325 21.3463L3.3242 21.3454C3.01207 21.033 2.81875 20.6035 2.81875 20.1319V11.6634C2.03783 11.1227 1.53904 10.2261 1.53904 9.23137C1.53904 9.0471 1.48976 8.03404 1.57071 7.85405L3.82323 2.67594C4.00417 2.25977 4.39963 2.00026 4.85223 2.00026H19.1385C19.5911 2.00026 19.9868 2.25977 20.1678 2.67594L22.3996 7.80858C22.4972 8.0119 22.4522 8.90282 22.4522 9.23114C22.4522 10.2263 21.9534 11.1227 21.1727 11.6634ZM19.1388 2.91451H4.85247L4.65915 3.04045L2.69209 7.56478C8.89444 7.56478 15.097 7.56478 21.2996 7.56478L19.3326 3.04045L19.1388 2.91451ZM21.5379 9.23137V8.47879H17.4524C17.4524 9.32613 17.3745 9.99563 18.0528 10.6737C19.349 11.9698 21.5379 11.0244 21.5379 9.23137ZM16.5382 9.23137V8.47879H12.4526C12.4526 9.32613 12.3748 9.99563 13.0531 10.6737C14.3492 11.9701 16.5382 11.0242 16.5382 9.23137ZM6.53883 9.23137V8.47879H2.45329C2.45329 9.32613 2.37544 9.99563 3.05374 10.6737C4.34987 11.9698 6.53883 11.0244 6.53883 9.23137Z" fill="#BBBBBB"/>
<path fill-rule="evenodd" clip-rule="evenodd" d="M8.20148 10.5257C9.3629 11.6872 11.3294 10.8421 11.3294 9.23137V8.68803H7.66138C7.66131 8.69661 7.66125 8.70517 7.66119 8.71369C7.65577 9.45654 7.652 9.97644 8.20148 10.5257ZM7.45307 8.47879H11.5386V9.23137C11.5386 11.0244 9.34966 11.9698 8.05352 10.6737C7.4397 10.0601 7.4451 9.45349 7.45168 8.71577C7.45237 8.63828 7.45307 8.55934 7.45307 8.47879ZM20.0216 20.6997C20.1678 20.5537 20.2585 20.3523 20.2585 20.1316V12.0879C20.1888 12.1066 20.1191 12.1226 20.0492 12.136C18.9291 12.3513 17.7961 11.8965 17.1235 10.993C17.0786 10.9328 17.0359 10.8707 16.9953 10.8065C16.9544 10.871 16.9117 10.9333 16.8673 10.9932C15.6892 12.5837 13.3016 12.5838 12.1235 10.9933C12.0791 10.9333 12.0364 10.8711 11.9955 10.8065C11.9546 10.8711 11.9119 10.9333 11.8675 10.9933C10.6894 12.5838 8.30181 12.5837 7.12369 10.9932C7.07927 10.9333 7.03656 10.871 6.99571 10.8065C6.95512 10.8706 6.91235 10.9328 6.86753 10.993C6.1948 11.8965 5.06133 12.3515 3.94176 12.1361C3.87192 12.1227 3.80214 12.1066 3.73252 12.0879V20.1314C3.73252 20.4104 3.92418 20.6994 3.96941 20.6994C4.1156 20.8456 4.31678 20.9363 4.53748 20.9363H8.45517V17.3063C8.45517 15.3582 10.0475 13.7662 11.9955 13.7662C13.9435 13.7662 15.5358 15.3583 15.5358 17.3065V20.9366H19.4535C19.7325 20.9366 20.0216 20.7449 20.0216 20.6997ZM15.7451 20.7273V17.3065C15.7451 15.2427 14.0591 13.5569 11.9955 13.5569C9.93194 13.5569 8.24593 15.2427 8.24593 17.3063V20.7271H4.53748C4.37524 20.7271 4.22646 20.6606 4.11737 20.5515L4.05831 20.4924C4.04703 20.4748 4.03421 20.4526 4.02116 20.4265C3.97616 20.3365 3.94176 20.2273 3.94176 20.1314V12.3489C5.1066 12.5578 6.27928 12.0918 6.99539 11.1705C8.25643 12.8035 10.7343 12.8037 11.9955 11.1709C13.2567 12.8037 15.7346 12.8035 16.9956 11.1705C17.7117 12.0919 18.8839 12.5576 20.0492 12.3489V20.1316C20.0492 20.294 19.9826 20.4429 19.8737 20.5516L19.8143 20.611C19.7967 20.6222 19.7746 20.635 19.7486 20.6479C19.6586 20.6929 19.5494 20.7273 19.4535 20.7273H15.7451ZM3.3242 21.3454C3.01207 21.033 2.81875 20.6035 2.81875 20.1319V11.6634C2.03783 11.1227 1.53904 10.2261 1.53904 9.23137C1.53904 9.19517 1.53714 9.12696 1.5347 9.03937C1.5247 8.68116 1.50567 7.99868 1.57071 7.85405L3.82323 2.67594C4.00417 2.25977 4.39963 2.00026 4.85223 2.00026H19.1385C19.5911 2.00026 19.9868 2.25977 20.1678 2.67594L22.3996 7.80858C22.4771 7.97004 22.4647 8.56506 22.4563 8.96766C22.4541 9.07207 22.4522 9.16353 22.4522 9.23114C22.4522 10.2263 21.9534 11.1227 21.1727 11.6634V20.1316C21.1727 20.5298 21.0359 20.8973 20.8072 21.1892C20.7781 21.2263 20.7476 21.2622 20.7156 21.2968C20.7001 21.3135 20.6843 21.33 20.6682 21.3461L20.6673 21.3451C20.3549 21.6573 19.9254 21.8508 19.4537 21.8508H4.53772C4.13956 21.8508 3.77206 21.714 3.48015 21.4853C3.44333 21.4565 3.4077 21.4262 3.37337 21.3945C3.35687 21.3793 3.34068 21.3637 3.32479 21.3479C3.32427 21.3473 3.32376 21.3468 3.32325 21.3463L3.3242 21.3454ZM3.03634 21.3375C2.76985 21.0067 2.60951 20.587 2.60951 20.1319V11.7707C1.82612 11.187 1.3298 10.2584 1.3298 9.23137C1.3298 9.19837 1.32802 9.13462 1.32561 9.04792C1.32493 9.02351 1.3242 8.99729 1.32344 8.96941C1.32008 8.84538 1.3164 8.69418 1.31528 8.54265C1.31417 8.39172 1.31556 8.23742 1.32268 8.10781C1.32623 8.04315 1.33136 7.98156 1.33892 7.92808C1.34568 7.88022 1.35668 7.82049 1.37922 7.7697L3.63134 2.59251C3.84542 2.10013 4.31612 1.79102 4.85223 1.79102H19.1385C19.6746 1.79102 20.1455 2.10009 20.3596 2.59251L22.5902 7.72231C22.6322 7.81265 22.6484 7.94155 22.6575 8.05355C22.6677 8.17877 22.6712 8.32571 22.6717 8.4723C22.6722 8.61952 22.6696 8.7701 22.6669 8.90318C22.6664 8.92715 22.6659 8.95045 22.6654 8.97301C22.6633 9.07735 22.6614 9.16594 22.6614 9.23114C22.6614 10.2586 22.1651 11.187 21.382 11.7707V20.1316C21.382 20.663 21.1647 21.1455 20.8162 21.494L20.6682 21.642L20.6593 21.6331C20.3285 21.8995 19.9089 22.0601 19.4537 22.0601H4.53772C4.00634 22.0601 3.52385 21.8428 3.17529 21.4943L3.02743 21.3464L3.03634 21.3375ZM18.2008 10.5257C19.3622 11.6872 21.3287 10.8421 21.3287 9.23137V8.68803H17.6607C17.6606 8.69662 17.6606 8.70517 17.6605 8.7137C17.6551 9.45654 17.6513 9.97644 18.2008 10.5257ZM17.4524 8.47879C17.4524 8.55934 17.4517 8.63828 17.451 8.71578C17.4444 9.4535 17.439 10.0601 18.0528 10.6737C19.349 11.9698 21.5379 11.0244 21.5379 9.23137V8.47879H17.4524ZM13.0531 10.6737C14.3492 11.9701 16.5382 11.0242 16.5382 9.23137V8.47879H12.4526C12.4526 8.55934 12.4519 8.63828 12.4512 8.71577C12.4446 9.45349 12.4392 10.0601 13.0531 10.6737ZM12.6609 8.68803C12.6609 8.69661 12.6608 8.70517 12.6607 8.71369C12.6553 9.45654 12.6515 9.97642 13.201 10.5257C14.3624 11.6873 16.3289 10.8419 16.3289 9.23137V8.68803H12.6609ZM3.2017 10.5257C4.36312 11.6872 6.32958 10.8421 6.32958 9.23137V8.68803H2.66159C2.66153 8.69661 2.66147 8.70517 2.66141 8.71369C2.65598 9.45654 2.65221 9.97644 3.2017 10.5257ZM2.45329 8.47879C2.45329 8.55934 2.45259 8.63828 2.4519 8.71577C2.44532 9.45349 2.43992 10.0601 3.05374 10.6737C4.34987 11.9698 6.53883 11.0244 6.53883 9.23137V8.47879H2.45329ZM13.702 15.6C12.1701 14.0684 9.57866 15.1835 9.57866 17.3063V20.7271H14.4123V17.3065C14.4123 16.6431 14.1409 16.0389 13.702 15.6C13.702 15.6 13.702 15.6 13.702 15.6ZM13.8499 15.4521C12.1833 13.7857 9.36942 15.0011 9.36942 17.3063V20.9363H14.6216V17.3065C14.6216 16.5849 14.3261 15.9282 13.8499 15.4521ZM4.85247 2.91451L4.65915 3.04045L2.69209 7.56478H21.2996L19.3326 3.04045L19.1388 2.91451H4.85247ZM19.0767 3.12375H4.91462L4.82599 3.18149L3.01123 7.35554H20.9805L19.1658 3.1816L19.0767 3.12375Z" fill="#BBBBBB"/>
</svg>
