<svg width="58" height="53" viewBox="0 0 58 53" fill="none" xmlns="http://www.w3.org/2000/svg">
<path d="M57.0696 16.1874L38.6345 29.5705C37.6264 30.3029 36.2169 30.0778 35.4845 29.0697L28.1486 18.9639C27.4162 17.9557 27.6413 16.5463 28.6494 15.8138L47.0829 2.43242C48.0911 1.69998 49.5005 1.9251 50.2329 2.93323L57.5688 13.039C58.3013 14.0455 58.0778 15.4566 57.0696 16.1874Z" fill="#E3D3D3"/>
<path d="M56.9171 14.1855L38.482 27.5685C37.4739 28.301 36.0645 28.0759 35.332 27.0677L27.9961 16.9619C27.2637 15.9538 27.4888 14.5444 28.4969 13.8119L46.9304 0.430503C47.9386 -0.301943 49.348 -0.076825 50.0804 0.931308L57.4163 11.0371C58.1488 12.0436 57.9253 13.4547 56.9171 14.1855Z" fill="#323199"/>
<path d="M40.2128 12.0666L33.1689 17.1806C32.5898 17.5999 31.7807 17.4726 31.3615 16.8935C30.9422 16.3144 31.0695 15.5053 31.6486 15.0861L38.6924 9.972C39.2715 9.55276 40.0807 9.68 40.4999 10.2591C40.9192 10.8382 40.7919 11.6473 40.2128 12.0666Z" fill="white"/>
<path d="M1.98368 20.027H47.1017V22.5996H1.98368V20.027Z" fill="#ECF7FD"/>
<path d="M2.71937 20.5793H46.3676V22.0491H2.71937V20.5793Z" fill="#ECF7FD"/>
<path d="M5.87757 24.1433H42.7658V47.9519H5.87757V24.1433Z" fill="#323199"/>
<path d="M3.01307 49.4196H45.632C46.079 49.4196 46.4395 49.0575 46.4395 48.6121C46.4395 48.1652 46.0773 47.8047 45.632 47.8047H3.01307C2.56609 47.8047 2.20559 48.1668 2.20559 48.6121C2.20396 49.0575 2.56609 49.4196 3.01307 49.4196Z" fill="#4F7399"/>
<path d="M2.13052 50.8888H46.6613C47.1083 50.8888 47.4688 50.5267 47.4688 50.0813C47.4688 49.6344 47.1066 49.2739 46.6613 49.2739H2.13215C1.68518 49.2739 1.32467 49.636 1.32467 50.0813C1.32303 50.5267 1.68518 50.8888 2.13052 50.8888Z" fill="#CDCDFF"/>
<path d="M0.809122 52.359H47.8358C48.2827 52.359 48.6432 51.9968 48.6432 51.5515C48.6432 51.1045 48.2811 50.744 47.8358 50.744H0.807488C0.360516 50.744 0 51.1062 0 51.5515C0 51.9968 0.362151 52.359 0.809122 52.359Z" fill="#4F7399"/>
<path d="M4.51195 26.9348H8.86258C9.32587 26.9348 9.69943 26.5596 9.69943 26.098V25.421C9.69943 24.9577 9.32424 24.5841 8.86258 24.5841H4.51195C4.04866 24.5841 3.6751 24.9593 3.6751 25.421V26.098C3.67347 26.5613 4.04866 26.9348 4.51195 26.9348ZM4.36513 47.9506H9.0094C9.47268 47.9506 9.84625 47.5755 9.84625 47.1138V46.4368C9.84625 45.9735 9.47105 45.6 9.0094 45.6H4.36513C3.90185 45.6 3.52828 45.9752 3.52828 46.4368V47.1138C3.52665 47.5771 3.90185 47.9506 4.36513 47.9506Z" fill="#CDCDFF"/>
<path d="M38.2309 45.5996H38.4315V26.9345H38.3777C37.9617 26.9345 37.6224 26.5968 37.6224 26.1792V25.3375C37.6224 24.9215 37.9601 24.5822 38.3777 24.5822H42.8947C43.3107 24.5822 43.65 24.9199 43.65 25.3375V26.1792C43.65 26.5952 43.3123 26.9345 42.8947 26.9345H42.8409V45.5996H43.0415C43.4575 45.5996 43.7968 45.9373 43.7968 46.3549V47.1967C43.7968 47.6126 43.4591 47.952 43.0415 47.952H38.2309C37.8149 47.952 37.4756 47.6143 37.4756 47.1967V46.3549C37.4756 45.9373 37.8132 45.5996 38.2309 45.5996ZM29.4121 45.5996H29.6128V26.9345H29.559C29.143 26.9345 28.8037 26.5968 28.8037 26.1792V25.3375C28.8037 24.9215 29.1413 24.5822 29.559 24.5822H34.076C34.492 24.5822 34.8313 24.9199 34.8313 25.3375V26.1792C34.8313 26.5952 34.4936 26.9345 34.076 26.9345H34.0221V45.5996H34.2228C34.6388 45.5996 34.9781 45.9373 34.9781 46.3549V47.1967C34.9781 47.6126 34.6404 47.952 34.2228 47.952H29.4121C28.9962 47.952 28.6569 47.6143 28.6569 47.1967V46.3549C28.6585 45.9373 28.9962 45.5996 29.4121 45.5996ZM11.1891 45.5996H11.3897V26.9345H11.3359C10.9199 26.9345 10.5806 26.5968 10.5806 26.1792V25.3375C10.5806 24.9215 10.9183 24.5822 11.3359 24.5822H15.8529C16.2689 24.5822 16.6082 24.9199 16.6082 25.3375V26.1792C16.6082 26.5952 16.2705 26.9345 15.8529 26.9345H15.7991V45.5996H15.9997C16.4157 45.5996 16.755 45.9373 16.755 46.3549V47.1967C16.755 47.6126 16.4173 47.952 15.9997 47.952H11.1891C10.7731 47.952 10.4338 47.6143 10.4338 47.1967V46.3549C10.4338 45.9373 10.7731 45.5996 11.1891 45.5996Z" fill="#96909A"/>
<path d="M39.8996 26.4942H44.309V46.7743H39.8996V26.4942Z" fill="#CDCDFF"/>
<path d="M31.3763 26.4942H35.7857V46.7743H31.3763V26.4942Z" fill="#CDCDFF"/>
<path d="M13.0062 26.4942H17.4155V46.7743H13.0062V26.4942Z" fill="#CDCDFF"/>
<path d="M4.48284 26.4942H8.8922V46.7743H4.48284V26.4942Z" fill="#CDCDFF"/>
<path d="M12.8888 47.9501H17.5331C17.9964 47.9501 18.37 47.5749 18.37 47.1133V46.4363C18.37 45.973 17.9948 45.5994 17.5331 45.5994H12.8888C12.4256 45.5994 12.052 45.9746 12.052 46.4363V47.1133C12.0504 47.5765 12.4256 47.9501 12.8888 47.9501ZM39.7822 47.9501H44.4264C44.8897 47.9501 45.2633 47.5749 45.2633 47.1133V46.4363C45.2633 45.973 44.8881 45.5994 44.4264 45.5994H39.7822C39.3189 45.5994 38.9453 45.9746 38.9453 46.4363V47.1133C38.9453 47.5765 39.3205 47.9501 39.7822 47.9501ZM31.2587 47.9501H35.903C36.3663 47.9501 36.7398 47.5749 36.7398 47.1133V46.4363C36.7398 45.973 36.3646 45.5994 35.903 45.5994H31.2587C30.7954 45.5994 30.4219 45.9746 30.4219 46.4363V47.1133C30.4219 47.5765 30.7971 47.9501 31.2587 47.9501Z" fill="#CDCDFF"/>
<path d="M19.5464 32.0786H28.3635V47.951H19.5464V32.0786Z" fill="#202334"/>
<path d="M20.1335 33.2536H27.7761V47.9498H20.1335V33.2536Z" fill="#B78B10"/>
<path d="M39.9304 26.9348H44.281C44.7443 26.9348 45.1179 26.5596 45.1179 26.098V25.421C45.1179 24.9577 44.7427 24.5841 44.281 24.5841H39.9304C39.4671 24.5841 39.0936 24.9593 39.0936 25.421V26.098C39.0919 26.5613 39.4671 26.9348 39.9304 26.9348ZM31.4053 26.9348H35.756C36.2192 26.9348 36.5928 26.5596 36.5928 26.098V25.421C36.5928 24.9577 36.2176 24.5841 35.756 24.5841H31.4053C30.942 24.5841 30.5685 24.9593 30.5685 25.421V26.098C30.5685 26.5613 30.9437 26.9348 31.4053 26.9348ZM13.0354 26.9348H17.3861C17.8494 26.9348 18.2229 26.5596 18.2229 26.098V25.421C18.2229 24.9577 17.8477 24.5841 17.3861 24.5841H13.0354C12.5722 24.5841 12.1986 24.9593 12.1986 25.421V26.098C12.1986 26.5613 12.5722 26.9348 13.0354 26.9348Z" fill="#CDCDFF"/>
<path d="M3.8938 24.584H45.485C46.0119 24.584 46.4409 24.1566 46.4409 23.6281C46.4409 23.1012 46.0135 22.6721 45.485 22.6721H3.8938C3.36689 22.6721 2.93787 23.0995 2.93787 23.6281C2.9395 24.1566 3.36689 24.584 3.8938 24.584Z" fill="#96909A"/>
<path d="M0.44382 20.3971H47.9925C48.428 20.3971 48.5895 19.8246 48.2176 19.5978L23.29 4.34695L0.207287 19.606C-0.151595 19.8409 0.0164234 20.3971 0.44382 20.3971Z" fill="#323199"/>
<path d="M5.75668 18.5194H42.7199C42.9744 18.5194 43.069 18.185 42.8521 18.0512L23.5181 6.22277L5.61802 18.0561C5.40759 18.1948 5.50546 18.5194 5.75668 18.5194Z" fill="#4F7399"/>
<path d="M23.7355 17.8971C21.2192 17.8971 19.1793 15.8573 19.1793 13.341C19.1793 10.8247 21.2192 8.7848 23.7355 8.7848C26.2518 8.7848 28.2917 10.8247 28.2917 13.341C28.2917 15.8573 26.2518 17.8971 23.7355 17.8971Z" fill="#ECF7FD"/>
</svg>
