<svg width="16" height="16" viewBox="0 0 16 16" fill="none" xmlns="http://www.w3.org/2000/svg">
<path d="M6.92414 16C6.12005 16 5.30851 15.7685 4.68311 15.2981L1.49651 12.9087C0.655195 12.2814 0 10.9598 0 9.89944V4.36636C0 3.2239 0.833884 2.00676 1.90601 1.60354L5.61377 0.20721C6.35086 -0.0690701 7.50488 -0.0690701 8.24197 0.20721L11.9423 1.60354C12.8134 1.93209 13.5505 2.80574 13.7887 3.77646C13.8259 3.94073 13.7887 4.11995 13.6845 4.25436C13.5803 4.38876 13.4165 4.47089 13.2452 4.47089L7.35597 4.47836C6.41042 4.5381 6.17961 4.69491 6.17961 6.07632V10.1309C6.17961 11.5571 6.36575 11.7363 7.81014 11.7363H12.2178C12.4486 11.7363 12.657 11.8782 12.7389 12.0948C12.8208 12.3113 12.7613 12.5577 12.59 12.7145C12.5081 12.7817 12.4411 12.8489 12.3592 12.9087L9.17263 15.3056C8.53233 15.7685 7.72824 16 6.92414 16ZM6.92414 1.12566C6.5891 1.12566 6.24663 1.17047 6.00093 1.26754L2.29316 2.66387C1.66775 2.90282 1.10936 3.70178 1.10936 4.38128V9.91437C1.10936 10.6163 1.60075 11.6019 2.15915 12.0201L5.34574 14.4095C6.20195 15.0442 7.63889 15.0442 8.4951 14.4095L10.5575 12.8639H7.80269C5.74779 12.8639 5.05537 12.1769 5.05537 10.1384V6.08377C5.05537 4.49329 5.43508 3.48525 7.31874 3.36578L7.80269 3.3583H12.3816C12.1582 3.03722 11.8604 2.78335 11.5477 2.66387L7.84736 1.26754C7.59422 1.17047 7.25918 1.12566 6.92414 1.12566Z" fill="#080450"/>
<path d="M15.4416 7.9804H5.61379C5.30854 7.9804 5.0554 7.72652 5.0554 7.42037C5.0554 7.11423 5.30854 6.86035 5.61379 6.86035H15.4416C15.7469 6.86035 16 7.11423 16 7.42037C16 7.72652 15.7469 7.9804 15.4416 7.9804Z" fill="#080450"/>
<path d="M13.2527 12.8564H7.80272C5.74781 12.8564 5.0554 12.1694 5.0554 10.1309V6.07631C5.0554 4.48583 5.4351 3.47777 7.31876 3.3583L7.80272 3.35083H13.2527C15.3076 3.35083 16 4.03781 16 6.07631V10.2205C15.9851 12.1918 15.2927 12.8564 13.2527 12.8564ZM7.80272 4.47088L7.34855 4.47836C6.403 4.53809 6.17219 4.69491 6.17219 6.07631V10.1309C6.17219 11.5571 6.35833 11.7363 7.80272 11.7363H13.2527C14.6747 11.7363 14.8683 11.5496 14.8832 10.2205V6.08377C14.8832 4.65756 14.6971 4.47836 13.2527 4.47836H7.80272V4.47088Z" fill="#080450"/>
<path d="M8.48043 10.9971H7.48276C7.1775 10.9971 6.92436 10.7432 6.92436 10.4371C6.92436 10.1309 7.1775 9.87706 7.48276 9.87706H8.48043C8.78568 9.87706 9.03883 10.1309 9.03883 10.4371C9.03883 10.7432 8.79313 10.9971 8.48043 10.9971Z" fill="#080450"/>
<path d="M12.4785 10.9971H10.0439C9.73864 10.9971 9.4855 10.7432 9.4855 10.4371C9.4855 10.1309 9.73864 9.87706 10.0439 9.87706H12.4785C12.7838 9.87706 13.0369 10.1309 13.0369 10.4371C13.0369 10.7432 12.7912 10.9971 12.4785 10.9971Z" fill="#080450"/>
</svg>
