<svg width="19" height="5" viewBox="0 0 19 5" fill="none" xmlns="http://www.w3.org/2000/svg">
<path d="M6.16443 0.0589039C7.24411 -0.143538 8.14384 0.53127 9.06607 1.00363C10.1907 1.58846 11.2029 1.4535 12.1702 0.80119C13.3398 0.036411 14.622 -0.143535 15.9041 0.103894C17.1187 0.328829 18.2209 0.91366 18.8057 2.12831C19.2106 2.96057 18.9182 3.38794 18.5133 3.77033C18.086 4.15272 17.2762 4.13023 16.8038 3.68036C16.129 3.02805 15.3642 2.64566 14.4645 2.55568C13.8797 2.5107 13.3398 2.73563 12.8225 3.02805C12.1702 3.41044 11.5853 3.92779 10.7756 4.06275C9.92083 4.19771 9.17855 4.06275 8.48125 3.61288C7.49154 2.98306 6.47933 2.4882 5.24219 2.64566C4.34245 2.75812 3.71263 3.29797 2.99284 3.72535C2.29554 4.13023 1.57576 4.37766 0.721008 4.06275C0.293632 3.90529 0.0237078 3.61288 0.00121439 3.27548C-0.0212791 2.87059 0.271136 2.4882 0.676018 2.28576C1.26085 1.97085 1.95815 1.94836 2.47549 1.54348C2.97035 1.13859 3.5102 0.801192 4.07253 0.486283C4.72484 0.126386 5.39965 -0.00857661 6.16443 0.0589039Z" fill="#3F97F6"/>
</svg>
