<svg width="13" height="13" viewBox="0 0 13 13" fill="none" xmlns="http://www.w3.org/2000/svg">
<path d="M6.49986 12.7398C9.94611 12.7398 12.7399 9.94602 12.7399 6.49977C12.7399 3.05351 9.94611 0.259766 6.49986 0.259766C3.0536 0.259766 0.259857 3.05351 0.259857 6.49977C0.259857 9.94602 3.0536 12.7398 6.49986 12.7398Z" fill="#FFD21F"/>
<path d="M6.49986 12.7398C9.94611 12.7398 12.7399 9.94602 12.7399 6.49977C12.7399 3.05351 9.94611 0.259766 6.49986 0.259766C3.0536 0.259766 0.259857 3.05351 0.259857 6.49977C0.259857 9.94602 3.0536 12.7398 6.49986 12.7398Z" fill="#FFD21F"/>
<path d="M6.49986 12.7398C9.94611 12.7398 12.7399 9.94602 12.7399 6.49977C12.7399 3.05351 9.94611 0.259766 6.49986 0.259766C3.0536 0.259766 0.259857 3.05351 0.259857 6.49977C0.259857 9.94602 3.0536 12.7398 6.49986 12.7398Z" fill="#FFD21F"/>
<path d="M12.7397 6.49977C12.7397 7.77377 12.3757 8.94377 11.7257 9.90577C9.25566 13.6758 3.74366 13.6758 1.27366 9.90577C-1.40434 5.82377 1.48167 0.259766 6.49966 0.259766C9.95766 0.259766 12.7397 3.04177 12.7397 6.49977Z" fill="#FFD21F"/>
<path opacity="0.05" d="M11.2317 10.5553C10.1137 9.20334 8.39767 8.31934 6.49967 8.31934C4.60167 8.31934 2.88567 9.17734 1.76767 10.5553C4.26367 13.4673 8.73567 13.4673 11.2317 10.5553Z" fill="#4A555A"/>
<path opacity="0.5" d="M11.2054 2.39177C10.1134 1.42977 8.68336 0.857766 7.09736 0.857766C1.71536 0.857766 -1.06664 7.22777 2.41736 11.2058C-1.92464 7.46177 0.70136 0.259766 6.49936 0.259766C8.37136 0.259766 10.0614 1.09177 11.2054 2.39177Z" fill="#FAF077"/>
<path d="M6.52592 11.3358C9.06753 11.3358 11.1279 9.27545 11.1279 6.73384C11.1279 4.19222 9.06753 2.13184 6.52592 2.13184C3.98431 2.13184 1.92392 4.19222 1.92392 6.73384C1.92392 9.27545 3.98431 11.3358 6.52592 11.3358Z" fill="#FDE74A"/>
<path opacity="0.2" d="M5.09508 9.82812V11.1281C5.90108 11.3881 6.75908 11.4401 7.61708 11.2321V9.82812H5.09508Z" fill="#FAFDFF"/>
<path d="M6.52548 10.9713C9.05273 10.9713 11.1015 8.92259 11.1015 6.39534C11.1015 3.86808 9.05273 1.81934 6.52548 1.81934C3.99822 1.81934 1.94948 3.86808 1.94948 6.39534C1.94948 8.92259 3.99822 10.9713 6.52548 10.9713Z" fill="#FBB217"/>
<path d="M6.52568 10.7116C8.82318 10.7116 10.6857 8.84911 10.6857 6.5516C10.6857 4.2541 8.82318 2.3916 6.52568 2.3916C4.22817 2.3916 2.36568 4.2541 2.36568 6.5516C2.36568 8.84911 4.22817 10.7116 6.52568 10.7116Z" fill="#FFD21F"/>
<path fill-rule="evenodd" clip-rule="evenodd" d="M6.52015 4.81149C6.52805 5.26002 6.66651 5.69438 6.91558 6.06269L6.47944 6.44674L5.91247 5.80286C5.80464 5.6804 5.61794 5.66854 5.49548 5.77637C5.37301 5.88421 5.36115 6.0709 5.46899 6.19337L6.03595 6.83725L5.61382 7.20896L5.42796 6.99789C5.32013 6.87542 5.13343 6.86356 5.01097 6.9714C4.8885 7.07924 4.87664 7.26593 4.98448 7.3884L5.17033 7.59946L4.92152 7.81855C4.63551 7.80486 4.3501 7.78045 4.06589 7.74535C3.90394 7.72535 3.75645 7.84043 3.73645 8.00237C3.71646 8.16432 3.83153 8.31181 3.99347 8.33181C4.23246 8.36132 4.47226 8.38365 4.71254 8.39877C4.69677 8.63878 4.68838 8.87924 4.68738 9.11981C4.68671 9.28299 4.81844 9.41581 4.98162 9.41649C5.14479 9.41716 5.27761 9.28543 5.27829 9.12226C5.27948 8.83416 5.29184 8.54624 5.31534 8.25913L5.56084 8.04295L5.7467 8.25402C5.85453 8.37648 6.04123 8.38834 6.16369 8.2805C6.28616 8.17267 6.29802 7.98597 6.19018 7.86351L6.00433 7.65244L6.42646 7.28073L6.99343 7.92461C7.10126 8.04707 7.28796 8.05893 7.41042 7.95109C7.53289 7.84326 7.54475 7.65656 7.43691 7.5341L6.86995 6.89022L7.30605 6.50621C7.64492 6.80441 8.06577 6.99809 8.51733 7.05969C8.63815 7.07617 8.75669 7.01673 8.81575 6.91005C9.10213 6.39276 9.21274 5.7595 9.15734 5.02227C9.13491 4.72376 8.91722 4.47665 8.6239 4.41678C7.90648 4.27035 7.26955 4.29842 6.72366 4.51173C6.63088 4.54198 6.55845 4.61686 6.53141 4.71077C6.52198 4.7431 6.51802 4.77715 6.52015 4.81149ZM7.12603 4.99969C7.1711 5.33454 7.31438 5.65034 7.54006 5.90598L7.54061 5.9066C7.7665 6.16392 8.06312 6.34647 8.39114 6.4331C8.54331 6.07077 8.60969 5.62017 8.56809 5.06654C8.56546 5.03154 8.54011 5.00277 8.50573 4.99575C7.9611 4.88459 7.50513 4.8939 7.12603 4.99969ZM7.58197 5.0917C7.70444 4.98387 7.89113 4.99573 7.99897 5.11819L8.00088 5.12036C8.10871 5.24282 8.09685 5.42952 7.97439 5.53735C7.85192 5.64519 7.66523 5.63333 7.55739 5.51086L7.55549 5.5087C7.44765 5.38624 7.45951 5.19954 7.58197 5.0917Z" fill="#C18300"/>
<path opacity="0.05" d="M6.76374 8.09277C5.46374 8.09277 4.26774 8.48277 3.27974 9.15877C4.72701 10.9319 7.68155 11.5228 9.74973 9.15877C8.73573 8.48277 8.06374 8.09277 6.76374 8.09277Z" fill="#4A555A"/>
</svg>
