<svg width="323" height="10" viewBox="0 0 323 10" fill="none" xmlns="http://www.w3.org/2000/svg">
<circle cx="5" cy="5" r="5" transform="matrix(1 0 0 -1 0 10)" fill="white"/>
<circle cx="5" cy="5" r="5" transform="matrix(1 0 0 -1 10 10)" fill="white"/>
<circle cx="5" cy="5" r="5" transform="matrix(1 0 0 -1 20 10)" fill="white"/>
<circle cx="5" cy="5" r="5" transform="matrix(1 0 0 -1 30 10)" fill="white"/>
<circle cx="5" cy="5" r="5" transform="matrix(1 0 0 -1 40 10)" fill="white"/>
<circle cx="5" cy="5" r="5" transform="matrix(1 0 0 -1 50 10)" fill="white"/>
<circle cx="5" cy="5" r="5" transform="matrix(1 0 0 -1 60 10)" fill="white"/>
<circle cx="5" cy="5" r="5" transform="matrix(1 0 0 -1 70 10)" fill="white"/>
<circle cx="5" cy="5" r="5" transform="matrix(1 0 0 -1 80 10)" fill="white"/>
<circle cx="5" cy="5" r="5" transform="matrix(1 0 0 -1 90 10)" fill="white"/>
<circle cx="5" cy="5" r="5" transform="matrix(1 0 0 -1 100 10)" fill="white"/>
<circle cx="5" cy="5" r="5" transform="matrix(1 0 0 -1 110 10)" fill="white"/>
<circle cx="5" cy="5" r="5" transform="matrix(1 0 0 -1 120 10)" fill="white"/>
<circle cx="5" cy="5" r="5" transform="matrix(1 0 0 -1 130 10)" fill="white"/>
<circle cx="5" cy="5" r="5" transform="matrix(1 0 0 -1 140 10)" fill="white"/>
<circle cx="5" cy="5" r="5" transform="matrix(1 0 0 -1 150 10)" fill="white"/>
<circle cx="5" cy="5" r="5" transform="matrix(1 0 0 -1 160 10)" fill="white"/>
<circle cx="5" cy="5" r="5" transform="matrix(1 0 0 -1 170 10)" fill="white"/>
<circle cx="5" cy="5" r="5" transform="matrix(1 0 0 -1 180 10)" fill="white"/>
<circle cx="5" cy="5" r="5" transform="matrix(1 0 0 -1 190 10)" fill="white"/>
<circle cx="5" cy="5" r="5" transform="matrix(1 0 0 -1 200 10)" fill="white"/>
<circle cx="5" cy="5" r="5" transform="matrix(1 0 0 -1 210 10)" fill="white"/>
<circle cx="5" cy="5" r="5" transform="matrix(1 0 0 -1 220 10)" fill="white"/>
<circle cx="5" cy="5" r="5" transform="matrix(1 0 0 -1 230 10)" fill="white"/>
<circle cx="5" cy="5" r="5" transform="matrix(1 0 0 -1 240 10)" fill="white"/>
<circle cx="5" cy="5" r="5" transform="matrix(1 0 0 -1 250 10)" fill="white"/>
<circle cx="5" cy="5" r="5" transform="matrix(1 0 0 -1 260 10)" fill="white"/>
<circle cx="5" cy="5" r="5" transform="matrix(1 0 0 -1 270 10)" fill="white"/>
<circle cx="5" cy="5" r="5" transform="matrix(1 0 0 -1 280 10)" fill="white"/>
<circle cx="5" cy="5" r="5" transform="matrix(1 0 0 -1 290 10)" fill="white"/>
<circle cx="5" cy="5" r="5" transform="matrix(1 0 0 -1 300 10)" fill="white"/>
<circle cx="5" cy="5" r="5" transform="matrix(1 0 0 -1 310 10)" fill="white"/>
</svg>
