<svg width="20" height="20" viewBox="0 0 20 20" fill="none" xmlns="http://www.w3.org/2000/svg">
<path fill-rule="evenodd" clip-rule="evenodd" d="M11.8997 14.584C11.8997 14.2527 12.1684 13.984 12.4997 13.984H18.3331C18.6644 13.984 18.9331 14.2527 18.9331 14.584C18.9331 14.9154 18.6644 15.184 18.3331 15.184H12.4997C12.1684 15.184 11.8997 14.9154 11.8997 14.584Z" fill="white"/>
<path fill-rule="evenodd" clip-rule="evenodd" d="M1.06641 14.584C1.06641 14.2527 1.33504 13.984 1.66641 13.984H4.16641C4.49778 13.984 4.76641 14.2527 4.76641 14.584C4.76641 14.9154 4.49778 15.184 4.16641 15.184H1.66641C1.33504 15.184 1.06641 14.9154 1.06641 14.584Z" fill="white"/>
<path fill-rule="evenodd" clip-rule="evenodd" d="M15.2331 5.41738C15.2331 5.08601 15.5017 4.81738 15.8331 4.81738H18.3331C18.6644 4.81738 18.9331 5.08601 18.9331 5.41738C18.9331 5.74875 18.6644 6.01738 18.3331 6.01738H15.8331C15.5017 6.01738 15.2331 5.74875 15.2331 5.41738Z" fill="white"/>
<path fill-rule="evenodd" clip-rule="evenodd" d="M1.06641 5.41738C1.06641 5.08601 1.33504 4.81738 1.66641 4.81738H7.49974C7.83111 4.81738 8.09974 5.08601 8.09974 5.41738C8.09974 5.74875 7.83111 6.01738 7.49974 6.01738H1.66641C1.33504 6.01738 1.06641 5.74875 1.06641 5.41738Z" fill="white"/>
<path fill-rule="evenodd" clip-rule="evenodd" d="M5.04775 12.9031C4.91197 13.0201 4.76641 13.2496 4.76641 13.7507V15.4174C4.76641 15.9185 4.91197 16.148 5.04775 16.265C5.20013 16.3964 5.45356 16.484 5.83307 16.484H10.8331C11.2126 16.484 11.466 16.3964 11.6184 16.265C11.7542 16.148 11.8997 15.9185 11.8997 15.4174V13.7507C11.8997 13.2496 11.7542 13.0201 11.6184 12.9031C11.466 12.7717 11.2126 12.684 10.8331 12.684H5.83307C5.45356 12.684 5.20013 12.7717 5.04775 12.9031ZM4.26423 11.9942C4.71601 11.6047 5.29592 11.484 5.83307 11.484H10.8331C11.3702 11.484 11.9501 11.6047 12.4019 11.9942C12.8703 12.398 13.0997 13.0018 13.0997 13.7507V15.4174C13.0997 16.1663 12.8703 16.7701 12.4019 17.1739C11.9501 17.5634 11.3702 17.684 10.8331 17.684H5.83307C5.29592 17.684 4.71601 17.5634 4.26423 17.1739C3.79584 16.7701 3.56641 16.1663 3.56641 15.4174V13.7507C3.56641 13.0018 3.79584 12.398 4.26423 11.9942Z" fill="white"/>
<path fill-rule="evenodd" clip-rule="evenodd" d="M8.38109 3.73641C8.24531 3.85347 8.09974 4.08292 8.09974 4.58405V6.25072C8.09974 6.75184 8.24531 6.9813 8.38109 7.09835C8.53346 7.22971 8.78689 7.31738 9.16641 7.31738H14.1664C14.5459 7.31738 14.7993 7.22971 14.9517 7.09835C15.0875 6.9813 15.2331 6.75184 15.2331 6.25072V4.58405C15.2331 4.08292 15.0875 3.85347 14.9517 3.73641C14.7993 3.60505 14.5459 3.51738 14.1664 3.51738H9.16641C8.78689 3.51738 8.53346 3.60505 8.38109 3.73641ZM7.59756 2.82752C8.04935 2.43805 8.62925 2.31738 9.16641 2.31738H14.1664C14.7036 2.31738 15.2835 2.43805 15.7353 2.82752C16.2036 3.2313 16.4331 3.83517 16.4331 4.58405V6.25072C16.4331 6.99959 16.2036 7.60347 15.7353 8.00725C15.2835 8.39672 14.7036 8.51738 14.1664 8.51738H9.16641C8.62925 8.51738 8.04935 8.39672 7.59756 8.00725C7.12917 7.60347 6.89974 6.99959 6.89974 6.25072V4.58405C6.89974 3.83517 7.12917 3.2313 7.59756 2.82752Z" fill="white"/>
</svg>
