<svg width="20" height="20" viewBox="0 0 20 20" fill="none" xmlns="http://www.w3.org/2000/svg">
<path d="M12.0833 7.70866H1.66666C1.32499 7.70866 1.04166 7.42533 1.04166 7.08366C1.04166 6.74199 1.32499 6.45866 1.66666 6.45866H12.0833C12.425 6.45866 12.7083 6.74199 12.7083 7.08366C12.7083 7.42533 12.425 7.70866 12.0833 7.70866ZM6.66666 14.3753H4.99999C4.65832 14.3753 4.37499 14.092 4.37499 13.7503C4.37499 13.4087 4.65832 13.1253 4.99999 13.1253H6.66666C7.00832 13.1253 7.29166 13.4087 7.29166 13.7503C7.29166 14.092 7.00832 14.3753 6.66666 14.3753ZM12.0833 14.3753H8.74999C8.40832 14.3753 8.12499 14.092 8.12499 13.7503C8.12499 13.4087 8.40832 13.1253 8.74999 13.1253H12.0833C12.425 13.1253 12.7083 13.4087 12.7083 13.7503C12.7083 14.092 12.425 14.3753 12.0833 14.3753Z" fill="white"/>
<path d="M14.6333 17.7087H5.36666C2.04999 17.7087 1.04166 16.7087 1.04166 13.4253V6.57533C1.04166 3.29199 2.04999 2.29199 5.36666 2.29199H12.0833C12.425 2.29199 12.7083 2.57533 12.7083 2.91699C12.7083 3.25866 12.425 3.54199 12.0833 3.54199H5.36666C2.74999 3.54199 2.29166 3.99199 2.29166 6.57533V13.417C2.29166 16.0003 2.74999 16.4503 5.36666 16.4503H14.625C17.2417 16.4503 17.7 16.0003 17.7 13.417V11.6837C17.7 11.342 17.9833 11.0587 18.325 11.0587C18.6667 11.0587 18.95 11.342 18.95 11.6837V13.417C18.9583 16.7087 17.95 17.7087 14.6333 17.7087Z" fill="white"/>
<path d="M16.6667 8.54199C16.5011 8.54133 16.3425 8.47527 16.2254 8.35821C16.1084 8.24114 16.0423 8.08255 16.0417 7.91699V2.91699C16.0417 2.57533 16.325 2.29199 16.6667 2.29199C17.0083 2.29199 17.2917 2.57533 17.2917 2.91699V6.40866L17.8917 5.80866C18.1333 5.56699 18.5333 5.56699 18.775 5.80866C19.0167 6.05033 19.0167 6.45033 18.775 6.69199L17.1083 8.35866C16.9912 8.4759 16.8324 8.54185 16.6667 8.54199Z" fill="white"/>
<path d="M16.6667 8.54199C16.5083 8.54199 16.3504 8.48321 16.2254 8.35821L14.5583 6.69199C14.3167 6.45033 14.3167 6.05033 14.5583 5.80866C14.8 5.56699 15.2 5.56699 15.4417 5.80866L17.1083 7.47533C17.35 7.71699 17.35 8.11699 17.1083 8.35866C16.9833 8.48366 16.825 8.54199 16.6667 8.54199Z" fill="white"/>
</svg>
