<svg width="11" height="12" viewBox="0 0 11 12" fill="none" xmlns="http://www.w3.org/2000/svg">
<path d="M10.7322 0.581793C9.9573 1.51172 9.16022 2.44165 8.7174 3.61513C8.51813 4.16866 8.341 4.72219 8.341 5.29786C8.341 6.09494 8.341 6.91416 8.341 7.71124C7.76533 7.37912 7.38894 6.80345 6.83541 6.42705C6.34831 6.07279 6.30402 6.07279 5.88334 6.53776C5.37409 7.09129 4.93127 7.6891 4.55487 8.33119C4.06777 9.12827 3.80208 10.0139 3.60281 10.9217C3.58067 10.966 3.53638 11.0103 3.53638 11.0546C3.40354 11.7409 3.27069 11.8073 2.5179 11.5859C2.45147 11.5859 2.38505 11.5859 2.31862 11.5638C1.98651 11.3202 1.56583 11.5859 1.23371 11.3645C1.16729 11.3645 1.10086 11.3645 1.03444 11.3424C0.901595 11.2095 0.724465 11.2538 0.569477 11.2317C0.0823735 11.2095 -0.0504731 11.0324 0.0159502 10.5453C0.0380913 10.2575 0.148799 9.99178 0.215222 9.70394C0.56948 8.5526 0.923736 7.40126 1.63225 6.42705C1.74296 6.29421 1.80938 6.09494 2.03079 6.09494C2.31862 6.33849 2.54003 6.27207 2.78359 6.00637C3.64709 5.12073 4.53274 4.25722 5.39624 3.37158C6.1269 2.61878 7.01254 2.08739 7.89818 1.556C8.47385 1.20174 9.02737 0.847486 9.64733 0.648216C9.84659 0.626075 9.9573 0.51537 10.0901 0.382523C10.1787 0.293958 10.2451 0.183252 10.3558 0.116828C10.5551 -0.0160187 10.7765 -0.060301 10.9315 0.116828C11.1308 0.360381 10.8429 0.448947 10.7322 0.581793Z" fill="#3A91F8"/>
</svg>
