<svg width="11" height="11" viewBox="0 0 11 11" fill="none" xmlns="http://www.w3.org/2000/svg">
<g filter="url(#filter0_d_0_1171)">
<path d="M5.36339 10.7851C8.2071 10.7851 10.5124 8.47983 10.5124 5.63611C10.5124 2.7924 8.2071 0.487118 5.36339 0.487118C2.51968 0.487118 0.214391 2.7924 0.214391 5.63611C0.214391 8.47983 2.51968 10.7851 5.36339 10.7851Z" fill="#FFD21F"/>
<path d="M5.36339 10.7851C8.2071 10.7851 10.5124 8.47983 10.5124 5.63611C10.5124 2.7924 8.2071 0.487118 5.36339 0.487118C2.51968 0.487118 0.214391 2.7924 0.214391 5.63611C0.214391 8.47983 2.51968 10.7851 5.36339 10.7851Z" fill="#FFD21F"/>
<path d="M5.36339 10.7851C8.2071 10.7851 10.5124 8.47983 10.5124 5.63611C10.5124 2.7924 8.2071 0.487118 5.36339 0.487118C2.51968 0.487118 0.214391 2.7924 0.214391 5.63611C0.214391 8.47983 2.51968 10.7851 5.36339 10.7851Z" fill="#FFD21F"/>
<path d="M10.5123 5.63611C10.5123 6.68737 10.2119 7.6528 9.67557 8.44661C7.63743 11.5575 3.08915 11.5575 1.05101 8.44661C-1.15877 5.07831 1.22264 0.487118 5.36329 0.487118C8.21669 0.487118 10.5123 2.78271 10.5123 5.63611Z" fill="#FFD21F"/>
<path opacity="0.05" d="M9.26837 8.98317C8.34585 7.86756 6.92987 7.13812 5.36372 7.13812C3.79757 7.13812 2.38159 7.8461 1.45906 8.98317C3.51866 11.386 7.20878 11.386 9.26837 8.98317Z" fill="#4A555A"/>
<path opacity="0.5" d="M9.24682 2.24636C8.34575 1.45255 7.16577 0.980564 5.85707 0.980564C1.41606 0.980564 -0.879536 6.23683 1.99532 9.51932C-1.58752 6.42992 0.579346 0.487118 5.36362 0.487118C6.90832 0.487118 8.30284 1.17365 9.24682 2.24636Z" fill="#FAF077"/>
<path d="M5.38504 9.62705C7.48227 9.62705 9.18242 7.9269 9.18242 5.82966C9.18242 3.73243 7.48227 2.03228 5.38504 2.03228C3.2878 2.03228 1.58765 3.73243 1.58765 5.82966C1.58765 7.9269 3.2878 9.62705 5.38504 9.62705Z" fill="#FDE74A"/>
<path opacity="0.2" d="M4.20464 8.38158V9.45428C4.86971 9.66883 5.5777 9.71173 6.28569 9.5401V8.38158H4.20464Z" fill="#FAFDFF"/>
<path d="M5.38453 9.32644C7.46992 9.32644 9.16046 7.6359 9.16046 5.55051C9.16046 3.46512 7.46992 1.77458 5.38453 1.77458C3.29914 1.77458 1.6086 3.46512 1.6086 5.55051C1.6086 7.6359 3.29914 9.32644 5.38453 9.32644Z" fill="#FBB217"/>
<path d="M5.38503 9.11236C7.28084 9.11236 8.8177 7.5755 8.8177 5.67969C8.8177 3.78389 7.28084 2.24703 5.38503 2.24703C3.48922 2.24703 1.95237 3.78389 1.95237 5.67969C1.95237 7.5755 3.48922 9.11236 5.38503 9.11236Z" fill="#FFD21F"/>
<path fill-rule="evenodd" clip-rule="evenodd" d="M5.38078 4.24342C5.3873 4.61353 5.50156 4.97195 5.70708 5.27586L5.34719 5.59276L4.87935 5.06146C4.79037 4.96041 4.63632 4.95062 4.53527 5.0396C4.43421 5.12858 4.42443 5.28264 4.51341 5.38369L4.98125 5.91499L4.63292 6.22171L4.47956 6.04755C4.39057 5.9465 4.23652 5.93671 4.13547 6.02569C4.03441 6.11467 4.02463 6.26873 4.11361 6.36978L4.26697 6.54394L4.06166 6.72473C3.82566 6.71343 3.59015 6.69328 3.35563 6.66432C3.222 6.64782 3.10029 6.74278 3.08379 6.87641C3.06729 7.01004 3.16224 7.13174 3.29587 7.14824C3.49308 7.17259 3.69095 7.19102 3.88922 7.2035C3.8762 7.40155 3.86928 7.59997 3.86846 7.79848C3.8679 7.93312 3.9766 8.04272 4.11125 8.04328C4.24589 8.04384 4.35549 7.93514 4.35605 7.80049C4.35703 7.56277 4.36723 7.32518 4.38662 7.08827L4.5892 6.90989L4.74256 7.08405C4.83155 7.18511 4.9856 7.19489 5.08665 7.10591C5.1877 7.01693 5.19749 6.86288 5.10851 6.76182L4.95515 6.58766L5.30348 6.28094L5.77131 6.81224C5.8603 6.91329 6.01435 6.92308 6.1154 6.8341C6.21645 6.74511 6.22624 6.59106 6.13726 6.49001L5.66942 5.95871L6.02928 5.64184C6.3089 5.8879 6.65617 6.04772 7.02878 6.09855C7.12848 6.11215 7.22629 6.0631 7.27502 5.97507C7.51133 5.54822 7.6026 5.02568 7.55689 4.41735C7.53838 4.17103 7.35875 3.96712 7.11672 3.91772C6.52472 3.79689 5.99916 3.82006 5.54871 3.99607C5.47216 4.02103 5.41239 4.08282 5.39007 4.16031C5.3823 4.18699 5.37903 4.21509 5.38078 4.24342ZM5.88073 4.39871C5.91793 4.67502 6.03616 4.93561 6.22237 5.14655L6.22282 5.14706C6.40922 5.35939 6.65398 5.51002 6.92465 5.58151C7.05021 5.28252 7.10499 4.91071 7.07066 4.45388C7.06849 4.42499 7.04758 4.40126 7.01921 4.39547C6.5698 4.30374 6.19355 4.31142 5.88073 4.39871ZM6.25696 4.47464C6.35801 4.38566 6.51207 4.39545 6.60105 4.4965L6.60262 4.49828C6.6916 4.59934 6.68182 4.75339 6.58076 4.84237C6.47971 4.93135 6.32566 4.92157 6.23668 4.82052L6.2351 4.81873C6.14612 4.71768 6.15591 4.56362 6.25696 4.47464Z" fill="#C18300"/>
<path opacity="0.05" d="M5.58147 6.94955C4.50876 6.94955 3.52187 7.27137 2.70662 7.82917C3.90084 9.29229 6.33881 9.77989 8.04539 7.82917C7.20868 7.27137 6.65418 6.94955 5.58147 6.94955Z" fill="#4A555A"/>
</g>
<defs>
<filter id="filter0_d_0_1171" x="0.208662" y="-0.000476149" width="10.7913" height="10.7862" filterUnits="userSpaceOnUse" color-interpolation-filters="sRGB">
<feFlood flood-opacity="0" result="BackgroundImageFix"/>
<feColorMatrix in="SourceAlpha" type="matrix" values="0 0 0 0 0 0 0 0 0 0 0 0 0 0 0 0 0 0 127 0" result="hardAlpha"/>
<feOffset dx="0.454545" dy="-0.454545"/>
<feComposite in2="hardAlpha" operator="out"/>
<feColorMatrix type="matrix" values="0 0 0 0 0.00392157 0 0 0 0 0.141176 0 0 0 0 0.298039 0 0 0 1 0"/>
<feBlend mode="normal" in2="BackgroundImageFix" result="effect1_dropShadow_0_1171"/>
<feBlend mode="normal" in="SourceGraphic" in2="effect1_dropShadow_0_1171" result="shape"/>
</filter>
</defs>
</svg>
