<svg width="5" height="12" viewBox="0 0 5 12" fill="none" xmlns="http://www.w3.org/2000/svg">
<path d="M4.81834 11.7643C4.59127 12.1276 4.27339 11.9914 4.02362 11.8778C3.66032 11.7189 3.31973 11.4918 2.91102 11.5146C2.66125 11.5146 2.43419 11.3329 2.45689 11.1058C2.50231 10.4928 2.13901 9.94782 2.18442 9.33475C2.22983 8.7671 1.98006 8.24485 1.84382 7.72261C1.68488 7.10954 1.57135 6.47377 1.36699 5.8607C1.04911 4.90704 0.685812 3.95338 0.186276 3.09054C-0.222435 2.38665 0.0954498 2.15959 0.617692 1.81899C0.958285 1.61464 1.18534 1.34216 1.36699 1.00157C1.57135 0.61556 1.13993 0.343085 1.29888 0.0251974C1.63947 -0.0883338 1.70758 0.206847 1.79841 0.411203C2.52501 2.13688 3.31972 3.83984 3.6149 5.70176C3.81926 6.9733 4.15986 8.24485 4.11444 9.56181C4.15986 9.857 4.15986 10.1522 4.13715 10.4247C4.06903 10.9923 4.22798 11.4918 4.81834 11.7643Z" fill="#104579"/>
</svg>
