<svg width="5" height="4" viewBox="0 0 5 4" fill="none" xmlns="http://www.w3.org/2000/svg">
<path d="M2.17905 2.77334C1.73884 2.59725 1.60677 3.03747 1.36465 3.23556C1.12254 3.45567 0.990474 3.58773 0.616294 3.38964C0.0220079 3.05948 0 3.1035 0 2.39916C0 2.37715 0 2.35514 0 2.35514C0.638307 2.02498 0.990476 1.36466 1.65079 1.05651C2.26709 0.748362 2.75132 0.176085 3.43365 0C3.47767 0.176085 3.47767 0.37418 3.76381 0.37418C4.13798 0.37418 4.46815 0.638309 4.82032 0.748362C4.97439 0.792383 5.04042 0.924447 4.97439 1.10053C4.95238 1.12254 4.95238 1.16656 4.90836 1.18857C4.02794 1.69482 3.19153 2.24509 2.35513 2.81736C2.31111 2.83937 2.24508 2.81736 2.17905 2.77334Z" fill="#3377C5"/>
</svg>
