<svg width="7" height="8" viewBox="0 0 7 8" fill="none" xmlns="http://www.w3.org/2000/svg">
<path d="M3.38904 7.21352C2.98589 6.76558 2.96349 6.20564 2.67233 5.7353C2.11239 4.817 1.32849 4.25707 0.320605 3.9659C0.186221 3.92111 0.051838 3.9435 0.0070433 3.74193C-0.0377514 3.49556 0.141422 3.54035 0.253409 3.49556C1.70924 2.91322 2.71712 1.92774 3.09787 0.359921C3.14267 0.203139 3.23226 0.0239599 3.38904 0.00156254C3.61301 -0.0208349 3.50103 0.203139 3.56822 0.315126C3.83699 0.852664 3.94897 1.45739 4.32973 1.95014C4.91206 2.68925 5.67357 3.04761 6.54707 3.29398C6.74864 3.33877 6.97261 3.40597 6.99501 3.58515C7.03981 3.83152 6.77104 3.78672 6.61426 3.85391C5.4272 4.30186 4.32973 4.8842 3.83698 6.18324C3.7026 6.5416 3.6802 6.92236 3.38904 7.21352Z" fill="black"/>
</svg>
