<svg width="198" height="210" viewBox="0 0 198 210" fill="none" xmlns="http://www.w3.org/2000/svg">
<path d="M189.067 91.8232C189.067 91.8232 189.067 91.7801 189.067 91.7084V91.3927C189.067 91.1057 189.067 90.6991 189.067 90.1825C189.067 89.1207 189.067 87.5901 189.029 85.6673L189.101 85.739L165.831 85.7821C165.883 85.7295 165.711 85.9017 165.95 85.6673V88.7859C165.95 89.8095 165.95 90.8235 165.95 91.8136L165.835 91.694L182.418 91.7466L187.312 91.7801H188.637H188.981C189.022 91.776 189.064 91.776 189.105 91.7801H189H188.665H187.369L182.452 91.8901L165.788 91.9427H165.673V91.8279C165.673 90.8378 165.673 89.8238 165.673 88.8002V85.6721L165.792 85.5525L189.062 85.5955H189.148V85.6721C189.148 87.614 189.12 89.159 189.11 90.2304C189.11 90.7422 189.11 91.1392 189.11 91.4262C189.11 91.5505 189.11 91.651 189.11 91.7275C189.1 91.7611 189.085 91.7933 189.067 91.8232Z" fill="#E0E0E0"/>
<path d="M103.315 188.806L98.0536 191.068L98.4076 159.858C98.5702 156.123 96.8531 154.53 95.9204 153.468C87.4495 143.835 74.8173 150.823 74.7072 160.585L74.3916 188.476L69.2688 188.418L69.7758 159.241C69.8141 155.955 72.3683 150.254 74.9464 148.211C89.2001 136.918 103.784 148.584 103.645 160.925L103.315 188.806Z" fill="#F5F5F5"/>
<path d="M103.316 188.806V188.247C103.316 187.878 103.316 187.338 103.316 186.63C103.316 185.195 103.344 183.114 103.364 180.412C103.383 177.709 103.416 174.433 103.45 170.611C103.469 168.698 103.488 166.662 103.507 164.503C103.507 162.341 103.703 160.041 103.258 157.678C102.813 155.203 101.81 152.863 100.326 150.833C100.13 150.57 99.9437 150.302 99.738 150.044C99.5323 149.786 99.2979 149.565 99.0779 149.302C98.6283 148.804 98.1492 148.333 97.643 147.891C97.399 147.657 97.1121 147.47 96.8442 147.255C96.5763 147.04 96.3133 146.82 96.0119 146.648C95.4324 146.262 94.8285 145.913 94.2039 145.605C92.9259 144.962 91.5731 144.48 90.1765 144.17L89.0956 143.993L88.5551 143.902L88.005 143.869L86.8953 143.797C86.5222 143.797 86.1491 143.821 85.7761 143.835C82.6839 143.976 79.6908 144.969 77.1282 146.705C74.4314 148.531 72.3176 151.095 71.0393 154.09C70.3972 155.636 69.9754 157.263 69.7861 158.926C69.6426 160.6 69.6809 162.327 69.6474 164.054C69.5709 170.975 69.4896 178.14 69.4082 185.482C69.4082 186.461 69.3971 187.437 69.3748 188.409L69.2552 188.285L74.3779 188.342L74.2583 188.462C74.3189 182.913 74.3811 177.493 74.4449 172.199C74.4736 169.565 74.5039 166.968 74.5357 164.408C74.5357 163.132 74.5501 161.864 74.5788 160.605C74.6062 159.347 74.8156 158.1 75.2006 156.903C75.9857 154.573 77.4644 152.538 79.4384 151.072C79.6723 150.888 79.9166 150.717 80.1703 150.56L80.9355 150.082C81.4548 149.807 81.9936 149.57 82.5475 149.374C83.0949 149.175 83.656 149.015 84.2263 148.896C84.5085 148.834 84.7955 148.81 85.0777 148.762L85.5034 148.705H85.9339C87.0577 148.642 88.1846 148.737 89.2821 148.987C90.3518 149.244 91.384 149.637 92.3529 150.159C95.1099 151.689 97.167 154.228 98.0926 157.242C98.3629 158.177 98.5234 159.14 98.5709 160.112C98.5709 160.351 98.5709 160.591 98.5948 160.825C98.6187 161.059 98.5948 161.303 98.5948 161.528C98.5948 162.006 98.5948 162.456 98.5948 162.915C98.5948 163.829 98.5948 164.728 98.5613 165.608C98.5135 169.128 98.4752 172.362 98.437 175.28C98.3557 181.11 98.2935 185.673 98.2504 188.706L98.217 188.672L102.082 188.734H103.038H103.349H102.096L98.2122 188.711H98.1787V188.677C98.1787 185.645 98.2456 181.081 98.2983 175.251C98.327 172.333 98.3604 169.095 98.3939 165.575C98.3939 164.694 98.3939 163.795 98.4226 162.882C98.4226 162.403 98.4226 161.963 98.4226 161.495C98.4226 161.265 98.4226 161.016 98.4226 160.796L98.3939 160.093C98.3228 158.133 97.7407 156.225 96.7055 154.559C95.6261 152.775 94.0971 151.305 92.2715 150.297C91.3188 149.787 90.3045 149.401 89.2534 149.149C88.1696 148.906 87.0571 148.816 85.9483 148.882H85.5273L85.1112 148.944C84.829 148.987 84.5468 149.011 84.2694 149.073C83.1456 149.313 82.0595 149.704 81.0408 150.235L80.2898 150.685C80.0416 150.83 79.802 150.99 79.5724 151.163C77.6322 152.606 76.1814 154.609 75.4158 156.903C75.0391 158.079 74.8361 159.303 74.8132 160.538C74.8132 161.794 74.7988 163.062 74.7701 164.341C74.7414 166.892 74.7127 169.489 74.684 172.132C74.6266 177.394 74.5644 182.832 74.5023 188.395V188.514H74.3827L69.2552 188.457H69.1356V188.337C69.1356 187.381 69.1468 186.405 69.1691 185.41C69.2552 178.073 69.3365 170.908 69.4178 163.982C69.4513 162.25 69.4178 160.543 69.5565 158.83C69.7517 157.146 70.1816 155.498 70.8336 153.932C71.5005 152.437 72.3626 151.036 73.3974 149.766C74.4457 148.53 75.6536 147.437 76.9895 146.519C79.5855 144.758 82.6186 143.751 85.7521 143.611C86.13 143.611 86.5079 143.567 86.8857 143.577L88.1724 143.654L88.8803 143.735L89.9517 143.912L90.43 144.017C91.7582 144.328 93.0432 144.8 94.2565 145.423C94.8902 145.734 95.5022 146.087 96.0885 146.48C96.3898 146.657 96.6481 146.897 96.9255 147.097C97.2029 147.298 97.4851 147.504 97.7386 147.738C98.245 148.188 98.7242 148.667 99.1736 149.173L99.8432 149.924C100.049 150.187 100.235 150.46 100.432 150.728C101.929 152.78 102.939 155.147 103.383 157.649C103.828 160.041 103.603 162.356 103.617 164.518C103.631 166.679 103.56 168.736 103.536 170.649C103.483 174.476 103.435 177.767 103.397 180.46C103.359 183.153 103.33 185.243 103.306 186.649C103.306 187.347 103.306 187.888 103.277 188.251C103.249 188.615 103.316 188.806 103.316 188.806Z" fill="#E0E0E0"/>
<path d="M63.4182 170.2L109.811 170.727C110.286 170.732 110.739 170.926 111.07 171.265C111.402 171.604 111.585 172.061 111.58 172.536L111.173 208.392C111.168 208.824 110.992 209.235 110.684 209.537C110.375 209.838 109.96 210.005 109.529 210L62.9918 209.472L63.4374 170.2L63.4182 170.2Z" fill="#E0E0E0"/>
<path d="M63.4183 170.099L104.218 170.507C104.733 170.512 105.225 170.722 105.586 171.09C105.946 171.458 106.146 171.953 106.141 172.469L105.792 207.385C105.785 208.02 105.527 208.625 105.074 209.069C104.621 209.513 104.01 209.759 103.376 209.753L63.0928 209.35C62.56 209.345 62.0511 209.128 61.6782 208.747C61.3052 208.367 61.0986 207.854 61.104 207.321L61.457 172.022C61.4621 171.507 61.6717 171.015 62.0395 170.654C62.4073 170.294 62.9033 170.094 63.4183 170.099Z" fill="#EBEBEB"/>
<path d="M89.5878 186.667C89.5963 185.934 89.4572 185.206 89.1789 184.527C88.9005 183.848 88.4885 183.232 87.9674 182.715C87.4463 182.198 86.8267 181.792 86.1453 181.519C85.464 181.247 84.7348 181.114 84.0011 181.129C82.5898 181.171 81.2479 181.75 80.2495 182.748C79.2512 183.747 78.6717 185.089 78.6297 186.5C78.6076 187.697 78.9796 188.868 79.6883 189.832C80.397 190.797 81.4032 191.502 82.5518 191.838L78.8928 199.357L88.3394 199.639L85.5461 191.857C86.6921 191.549 87.7065 190.875 88.4357 189.939C89.1649 189.003 89.5694 187.854 89.5878 186.667Z" fill="#E0E0E0"/>
<path d="M105.53 206.249C105.463 206.249 105.53 199.414 105.649 190.986C105.769 182.559 105.941 175.719 106.008 175.719C106.075 175.719 106.008 182.554 105.888 190.986C105.769 199.419 105.597 206.254 105.53 206.249Z" fill="#FAFAFA"/>
<path d="M95.5615 171.768C95.5615 171.835 89.5491 171.902 82.1305 171.916C74.7119 171.931 68.6947 171.888 68.6947 171.821C68.6947 171.754 74.7071 171.692 82.1305 171.677C89.5539 171.663 95.5615 171.692 95.5615 171.768Z" fill="white"/>
<path d="M78.4195 189.494C78.3258 189.393 78.2498 189.277 78.1947 189.15C78.023 188.817 77.8852 188.468 77.7833 188.107C77.4411 186.906 77.4729 185.629 77.8745 184.447C78.2761 183.264 79.0285 182.232 80.0314 181.488C80.3295 181.262 80.6501 181.068 80.988 180.909C81.107 180.843 81.2364 180.797 81.3707 180.775C81.3707 180.813 80.8493 181.038 80.1318 181.621C79.1894 182.374 78.4826 183.381 78.0951 184.523C77.7077 185.665 77.6559 186.894 77.946 188.064C78.1803 188.987 78.4578 189.466 78.4195 189.494Z" fill="white"/>
<path d="M80.572 192.116C80.5385 192.173 80.2181 192.034 79.8546 191.81C79.491 191.585 79.228 191.355 79.2614 191.298C79.2949 191.24 79.6202 191.379 79.9837 191.604C80.3472 191.829 80.572 192.058 80.572 192.116Z" fill="white"/>
<path d="M85.1251 145.064C84.8201 145.123 84.5118 145.163 84.202 145.184C83.3666 145.296 82.5414 145.473 81.7339 145.715C79.051 146.493 76.6453 148.02 74.7979 150.115C72.9506 152.211 71.738 154.789 71.3019 157.548C71.158 158.379 71.086 159.221 71.0867 160.064C71.0867 160.657 71.0867 160.992 71.0867 160.992C71.061 160.915 71.0481 160.834 71.0484 160.753C71.0484 160.595 71.0006 160.366 70.9958 160.064C70.962 159.213 71.0101 158.361 71.1393 157.52C71.5384 154.714 72.7502 152.086 74.6253 149.961C76.5004 147.836 78.9566 146.307 81.6909 145.562C82.5089 145.322 83.3483 145.161 84.1972 145.083C84.4938 145.05 84.7281 145.055 84.886 145.05C84.966 145.047 85.0461 145.052 85.1251 145.064Z" fill="white"/>
<path d="M70.8328 165.225C70.7239 164.755 70.6948 164.27 70.7467 163.79C70.714 163.307 70.7642 162.821 70.895 162.355C71.0392 163.308 71.0181 164.279 70.8328 165.225Z" fill="white"/>
<path d="M100.311 31.9917H77.0416V38.1476H100.311V31.9917Z" fill="#F5F5F5"/>
<path d="M90.4727 44.6327C90.4727 44.6327 90.4727 44.5945 90.4727 44.5227V44.207C90.4727 43.9152 90.4727 43.5087 90.4727 42.9921C90.4727 41.9303 90.4727 40.4044 90.4344 38.4768L90.5062 38.5486L67.2363 38.5964C67.2889 38.5438 67.1167 38.7112 67.3559 38.4768V41.5954C67.3559 42.6222 67.3559 43.6315 67.3559 44.6232L67.2411 44.5084L83.8242 44.561L88.7173 44.5945H90.0422H90.3866C90.4279 44.5904 90.4696 44.5904 90.5109 44.5945H90.4057H90.0709H88.7747L83.9055 44.6279L67.2411 44.6805H67.1263V44.5658C67.1263 43.5741 67.1263 42.5648 67.1263 41.538V38.4194L67.2459 38.2999L90.5157 38.3477H90.5875V38.4194C90.5875 40.3614 90.5588 41.9063 90.5492 42.9778C90.5492 43.4896 90.5492 43.8865 90.5492 44.1735C90.5492 44.2979 90.5492 44.3983 90.5492 44.4749C90.5492 44.5514 90.4775 44.6327 90.4727 44.6327Z" fill="#E0E0E0"/>
<path d="M183.987 138.301H160.717V144.457H183.987V138.301Z" fill="#F5F5F5"/>
<path d="M174.148 150.943C174.145 150.904 174.145 150.866 174.148 150.828V150.512C174.148 150.225 174.148 149.819 174.148 149.302C174.148 148.24 174.125 146.714 174.11 144.787L174.182 144.859L150.912 144.906C150.965 144.854 150.792 145.021 151.027 144.787V150.933L150.912 150.818L167.495 150.871L172.388 150.904H173.713H174.058H174.182H174.072H173.742H172.446L167.576 150.938L150.883 151.057H150.764V144.796L150.883 144.677L174.153 144.725H174.225V144.796C174.225 146.738 174.196 148.283 174.187 149.355C174.187 149.866 174.187 150.263 174.187 150.55C174.187 150.675 174.187 150.775 174.187 150.852C174.176 150.883 174.163 150.913 174.148 150.943Z" fill="#E0E0E0"/>
<path d="M31.4296 22.3487C31.4254 22.3122 31.4254 22.2752 31.4296 22.2387C31.4296 22.1574 31.4296 22.0522 31.4296 21.923C31.4296 21.6312 31.4296 21.2295 31.4296 20.7081C31.4296 19.6462 31.4296 18.1204 31.3914 16.1928L31.4631 16.2646L8.15976 16.3172C8.21238 16.2646 8.04018 16.4368 8.27456 16.1976V22.3487L8.15976 22.2339L24.7428 22.2865L29.636 22.32H30.9609H31.3053H31.4296C31.3931 22.3245 31.3561 22.3245 31.3196 22.32H30.9896H29.6886L24.8241 22.3535L8.15976 22.4061H8.04019V16.2024L8.15976 16.0828L31.4296 16.1307H31.5014V16.2024C31.5014 18.1491 31.4727 19.6893 31.4631 20.7607C31.4631 21.2725 31.4631 21.6743 31.4631 21.9565C31.4631 22.0809 31.4631 22.1813 31.4631 22.2626C31.4542 22.2921 31.443 22.3209 31.4296 22.3487Z" fill="#E0E0E0"/>
<path d="M170.188 13.5091C170.188 13.5091 170.188 13.4661 170.188 13.3943V13.0786C170.188 12.7916 170.188 12.3851 170.188 11.8685C170.188 10.8066 170.188 9.27604 170.15 7.35323L170.221 7.42498L146.951 7.46803L147.071 7.35323V10.4814C147.071 11.5114 147.071 12.5206 147.071 13.5091L146.956 13.3943L163.539 13.4469L168.432 13.4756H169.757H170.106C170.146 13.4717 170.186 13.4717 170.226 13.4756H170.121H169.786H168.49L163.621 13.5091L146.956 13.5617H146.841V13.4469C146.841 12.4568 146.841 11.4476 146.841 10.4192V7.3628L146.961 7.24322L170.231 7.29105H170.303V7.3628C170.303 9.30474 170.274 10.8497 170.264 11.9211C170.264 12.4329 170.264 12.8299 170.264 13.1169V13.4182C170.243 13.4521 170.218 13.4827 170.188 13.5091Z" fill="#E0E0E0"/>
<path d="M173.364 7.35344C173.36 7.31366 173.36 7.27365 173.364 7.23387C173.364 7.14777 173.364 7.03776 173.364 6.90862C173.364 6.60728 173.364 6.19593 173.364 5.67457C173.364 4.59359 173.335 3.07255 173.316 1.19757L173.402 1.27889L159.421 1.31237L159.536 1.19757V4.35921C159.536 5.38758 159.536 6.38726 159.536 7.34388L159.426 7.22908L169.428 7.2817L172.34 7.31518H173.125H173.407C173.323 7.32202 173.238 7.32202 173.154 7.31518H172.388L169.518 7.34388L159.44 7.39649H159.326V7.28648C159.326 6.32986 159.326 5.33019 159.326 4.30182V1.20714C159.297 1.20714 159.55 0.982332 159.445 1.08756L173.426 1.12104H173.512V1.20714C173.512 3.12039 173.474 4.64142 173.464 5.73675C173.464 6.24855 173.464 6.65033 173.464 6.95166C173.464 7.253 173.364 7.35823 173.364 7.35344Z" fill="#E0E0E0"/>
<path d="M23.3464 160.289C23.3444 160.253 23.3444 160.216 23.3464 160.179C23.3464 160.098 23.3464 159.993 23.3464 159.864C23.3464 159.572 23.3464 159.17 23.3464 158.653C23.3464 157.592 23.3464 156.061 23.3081 154.133L23.3799 154.205L0.110011 154.253L0.229589 154.133V157.257C0.229589 158.284 0.229589 159.293 0.229589 160.284L0.114796 160.17L16.6979 160.222L21.591 160.256H22.9159H23.2651H23.3847C23.3847 160.256 23.3512 160.256 23.2794 160.256H22.9446H21.6484L16.7792 160.289L0.114796 160.342H0V160.289C0 159.299 0 158.29 0 157.262V154.138C0.239156 153.904 0.0669636 154.076 0.119578 154.023L23.3894 154.066H23.4612V154.138C23.4612 156.085 23.4325 157.625 23.4229 158.701C23.4229 159.213 23.4229 159.61 23.4229 159.897V160.198C23.3512 160.289 23.3512 160.289 23.3464 160.289Z" fill="#E0E0E0"/>
<path d="M26.5223 154.143C26.5185 154.105 26.5185 154.066 26.5223 154.028C26.5223 153.937 26.5223 153.832 26.5223 153.703C26.5223 153.397 26.5223 152.985 26.5223 152.469C26.5223 151.388 26.4936 149.862 26.4745 147.987L26.5606 148.073L12.5795 148.106C12.4743 148.212 12.723 147.963 12.6943 147.987V151.153C12.6943 152.186 12.6943 153.181 12.6943 154.138L12.5843 154.028L22.5858 154.081L25.4987 154.114H26.2832H26.5654C26.481 154.121 26.3962 154.121 26.3119 154.114H25.5466L22.6767 154.148L12.5987 154.2H12.4839V154.085C12.4839 153.129 12.4839 152.134 12.4839 151.101V147.934L12.6034 147.815L26.5223 147.901H26.6084V147.987C26.6084 149.9 26.5701 151.426 26.5606 152.516C26.5606 153.028 26.5606 153.435 26.5606 153.736C26.5606 154.038 26.5223 154.152 26.5223 154.143Z" fill="#E0E0E0"/>
<path d="M96.6237 109.679C96.6195 109.642 96.6195 109.605 96.6237 109.569V109.253C96.6237 108.961 96.6237 108.56 96.6237 108.043C96.6237 106.976 96.5998 105.451 96.5854 103.523L96.6572 103.595L73.3873 103.643C73.4399 103.59 73.2677 103.762 73.5021 103.523V109.669L73.3873 109.555L89.9704 109.607L94.8635 109.641H96.1884H96.5328H96.6572H96.5472H96.2171H94.9161L90.0517 109.669L73.3873 109.722H73.2677V103.456L73.3873 103.337L96.6572 103.384H96.7289V103.456C96.7289 105.403 96.7002 106.943 96.6907 108.019C96.6907 108.526 96.6907 108.928 96.6907 109.21V109.516C96.6766 109.574 96.654 109.628 96.6237 109.679Z" fill="#E0E0E0"/>
<path d="M99.7802 103.523C99.7734 103.485 99.7734 103.446 99.7802 103.408C99.7802 103.317 99.7802 103.212 99.7802 103.078L99.7562 101.844C99.7562 100.767 99.7562 99.2416 99.7132 97.3666L99.7993 97.4527L85.8135 97.4862L85.933 97.3666V100.533C85.933 101.561 85.933 102.561 85.933 103.518L85.8182 103.408L95.8197 103.46L98.7374 103.489H99.5219H99.8041C99.7181 103.495 99.6318 103.495 99.5458 103.489H98.7853L95.9154 103.523L85.8374 103.575H85.7274V103.46C85.7274 102.504 85.7274 101.504 85.7274 100.476V97.3092C85.7274 97.3332 85.957 97.0844 85.8469 97.1897L99.8328 97.2231H99.9189V97.3092C99.9189 99.2225 99.8854 100.748 99.8758 101.839C99.8758 102.351 99.8758 102.757 99.8519 103.054C99.828 103.35 99.7849 103.527 99.7802 103.523Z" fill="#E0E0E0"/>
<path d="M10.4606 183.536L1.8653 195.206L16.339 205.978C17.2956 204.543 11.8572 196.182 11.8572 196.182L17.6735 188.931L10.4606 183.536Z" fill="#455A64"/>
<path d="M7.8681 192.231C7.6979 192.169 7.51077 192.173 7.3429 192.241C7.17503 192.309 7.03836 192.437 6.95931 192.6C6.89208 192.768 6.89177 192.956 6.95844 193.125C7.02511 193.294 7.15373 193.431 7.31804 193.508C7.49838 193.572 7.69584 193.566 7.87243 193.493C8.04902 193.42 8.19228 193.284 8.27467 193.111C8.32751 192.928 8.30719 192.731 8.21798 192.563C8.12877 192.394 7.97762 192.267 7.79635 192.207" fill="white"/>
<path d="M1.84669 195.235L2.76026 193.982L16.2821 204.868C16.2821 204.868 16.7126 205.634 16.2821 206.031L1.84669 195.235Z" fill="#263238"/>
<path d="M12.1734 196.287C12.1207 196.358 11.7429 196.129 11.2167 196.095C10.6906 196.062 10.2936 196.224 10.2601 196.148C10.2266 196.071 10.6284 195.741 11.2502 195.789C11.872 195.837 12.2116 196.234 12.1734 196.287Z" fill="#263238"/>
<path d="M13.2015 198.047C13.1632 198.129 12.771 198.019 12.307 198.138C11.8431 198.258 11.5417 198.526 11.47 198.468C11.3982 198.411 11.6565 197.99 12.2353 197.842C12.814 197.693 13.2493 197.98 13.2015 198.047Z" fill="#263238"/>
<path d="M12.7095 200.506C12.6329 200.472 12.8003 200.028 13.2691 199.793C13.7378 199.559 14.1827 199.635 14.1683 199.717C14.154 199.798 13.7952 199.851 13.4174 200.066C13.0395 200.281 12.786 200.549 12.7095 200.506Z" fill="#263238"/>
<path d="M13.2927 194.489C13.2113 194.532 12.9626 194.192 12.5417 193.924C12.1208 193.657 11.719 193.547 11.7238 193.446C11.7286 193.346 12.2021 193.327 12.7091 193.652C13.2161 193.977 13.3692 194.46 13.2927 194.489Z" fill="#263238"/>
<path d="M45.4542 134.68C45.7125 136.144 46.1238 148.594 46.3869 155.161C46.65 161.729 45.9947 164.957 45.2437 166.43C44.4928 167.904 16.1719 188.772 14.0148 193.771L6.84008 187.988C6.84008 187.988 17.3629 169.099 21.8495 165.665C26.3361 162.231 34.9696 159.079 34.9696 159.079L32.5159 123.114L44.2775 122.473L45.4542 134.68Z" fill="#263238"/>
<path d="M19.133 195.077L19.0086 209.556L37.0458 209.804C36.9644 208.082 27.6804 204.49 27.6804 204.49L28.1587 195.206L19.133 195.077Z" fill="#455A64"/>
<path d="M22.1122 203.653C21.9382 203.703 21.7888 203.816 21.6926 203.969C21.5965 204.123 21.5602 204.307 21.5909 204.485C21.6353 204.661 21.7451 204.813 21.898 204.911C22.0508 205.009 22.2352 205.045 22.4136 205.011C22.5974 204.957 22.7546 204.836 22.8552 204.673C22.9558 204.51 22.9927 204.315 22.9589 204.126C22.8948 203.947 22.7636 203.801 22.5931 203.717C22.4226 203.633 22.2261 203.618 22.0453 203.677" fill="white"/>
<path d="M19.0037 209.608V208.054L36.3425 208.953C36.3425 208.953 37.1365 209.321 37.0361 209.886L19.0037 209.608Z" fill="#263238"/>
<path d="M27.9577 204.423C27.9577 204.514 27.5129 204.548 27.0776 204.825C26.6423 205.103 26.4032 205.466 26.3219 205.433C26.2405 205.399 26.3793 204.887 26.915 204.562C27.4507 204.237 27.996 204.342 27.9577 204.423Z" fill="#263238"/>
<path d="M29.8705 205.251C29.8705 205.337 29.5022 205.48 29.2009 205.849C28.8995 206.217 28.8039 206.614 28.7226 206.604C28.6413 206.595 28.5839 206.102 28.9713 205.648C29.3587 205.193 29.8705 205.15 29.8705 205.251Z" fill="#263238"/>
<path d="M30.8988 207.513C30.8175 207.513 30.7027 207.088 30.9323 206.609C31.1619 206.131 31.5828 205.945 31.6162 206.016C31.6497 206.088 31.3962 206.346 31.2097 206.743C31.0231 207.14 30.9849 207.504 30.8988 207.513Z" fill="#263238"/>
<path d="M27.8428 202.294C27.8045 202.376 27.4027 202.247 26.8862 202.294C26.3696 202.342 25.9965 202.471 25.9295 202.395C25.8626 202.318 26.2596 202.012 26.8479 201.988C27.4362 201.964 27.8858 202.227 27.8428 202.294Z" fill="#263238"/>
<path d="M46.7557 120.987C46.7557 121.833 48.1285 143.266 41.1212 158.773C41.1212 158.773 38.6962 163.623 38.2513 165.742C37.8065 167.861 28.7425 203.008 28.7425 203.008L18.2675 202.625C18.2675 202.625 16.5934 185.018 18.2675 174.825C19.9416 164.633 23.0506 165.828 23.0506 159.247C23.0506 152.665 21.4865 139.019 21.4865 139.019C21.4865 139.019 19.2002 135.293 18.4205 128.066C17.7844 122.197 20.549 115.907 20.549 115.907L23.2802 111.071L46.3874 109.861L46.7557 120.987Z" fill="#263238"/>
<path d="M46.7552 120.987C46.7552 120.987 46.7552 120.738 46.7552 120.255C46.7552 119.772 46.7265 119.055 46.7074 118.112C46.6643 116.223 46.5926 113.439 46.5065 109.842V109.79H46.4491L23.3418 110.966H23.294L23.2653 111.009C22.4187 112.511 21.486 114.152 20.5294 115.845C19.8179 117.561 19.2624 119.338 18.8696 121.154C18.4357 123.066 18.2413 125.025 18.2909 126.985C18.4365 129.032 18.7565 131.062 19.2475 133.055C19.7211 135.147 20.4656 137.168 21.4621 139.067V139.019C21.8591 142.587 22.2274 146.285 22.5383 150.092C22.6913 152.005 22.8253 153.919 22.9209 155.885C22.9688 156.841 23.007 157.846 23.0118 158.836C23.0118 159.314 23.0118 159.826 22.9831 160.318C22.9491 160.812 22.8884 161.304 22.8013 161.792C22.6055 162.774 22.2586 163.719 21.773 164.595C21.2947 165.489 20.8163 166.374 20.338 167.307C19.4718 169.2 18.8405 171.191 18.4583 173.238C17.626 177.351 17.4586 181.627 17.4108 185.937C17.4108 191.624 17.6786 197.211 18.1474 202.611V202.726H18.2574L28.7324 203.108H28.8329L28.8568 203.008C31.894 191.237 34.7257 180.235 37.2224 170.344L38.1264 166.685C38.2843 166.077 38.3847 165.475 38.5713 164.901C38.7578 164.327 38.9683 163.758 39.1883 163.203C39.6379 162.093 40.1449 161.017 40.6232 159.969L40.9963 159.19C41.1288 158.935 41.247 158.673 41.3503 158.405C41.5655 157.874 41.7807 157.353 41.996 156.832C43.4835 152.974 44.5905 148.98 45.3011 144.907C46.3255 139.105 46.8536 133.226 46.8796 127.334C46.9082 123.211 46.7408 120.973 46.7408 120.973C46.7408 120.973 46.7408 121.111 46.7408 121.384C46.7408 121.657 46.7408 122.073 46.7695 122.608C46.7982 123.685 46.8174 125.273 46.7695 127.334C46.7253 133.221 46.1925 139.094 45.1768 144.893C44.4497 148.953 43.3283 152.932 41.8286 156.774L41.1876 158.338C41.0824 158.606 40.9628 158.86 40.8337 159.118C40.7045 159.376 40.5802 159.639 40.4558 159.902C39.9775 160.95 39.4705 162.026 39.0209 163.141C38.7961 163.7 38.5808 164.269 38.3943 164.853C38.2078 165.436 38.0977 166.053 37.9447 166.647C37.6434 167.852 37.342 169.067 37.0311 170.306C34.4913 180.188 31.6645 191.189 28.6367 202.96L28.7611 202.869L18.2861 202.482L18.4104 202.596C17.9321 197.206 17.6547 191.624 17.6738 185.946C17.7217 181.642 17.8891 177.385 18.7166 173.3C19.0976 171.273 19.7224 169.299 20.5772 167.421C21.0077 166.498 21.5338 165.623 22.0121 164.714C22.4946 163.815 22.8365 162.847 23.0261 161.844C23.1168 161.346 23.1791 160.843 23.2127 160.338C23.2127 159.859 23.2605 159.333 23.2414 158.84C23.2414 157.846 23.1983 156.855 23.1505 155.875C23.0548 153.914 22.9161 151.981 22.7583 150.078C22.4394 146.251 22.0775 142.557 21.6725 138.995V138.967C20.6757 137.092 19.928 135.095 19.4484 133.026C18.9602 131.048 18.6401 129.032 18.4918 126.999C18.4402 125.057 18.6298 123.117 19.0562 121.221C19.4416 119.423 19.9841 117.663 20.6776 115.96L23.404 111.119L23.3275 111.167L46.4347 109.919L46.3725 109.866C46.4873 113.458 46.5734 116.242 46.6308 118.131C46.6643 119.088 46.6882 119.786 46.7074 120.274C46.7265 120.762 46.7552 120.987 46.7552 120.987Z" fill="#455A64"/>
<path d="M39.241 77.0962C39.241 77.0962 33.0229 75.996 33.6017 83.9982C33.9652 88.7813 35.3714 96.9891 36.1511 102.227C36.4189 104.039 37.012 107.282 39.4084 109.186L56.5798 121.067L61.999 114.586L46.6644 99.9834L44.2728 85.5384L39.241 77.0962Z" fill="#455A64"/>
<path d="M39.9732 48.2543C40.9589 49.048 41.7386 50.0675 42.2465 51.2265C42.7544 52.3855 42.9755 53.6499 42.8909 54.9124C42.7953 56.1369 42.4557 57.5288 43.2545 58.4615C44.0532 59.3942 45.5838 59.3607 46.3396 60.3078C47.2244 61.427 46.4831 63.0916 46.8179 64.4835C46.9885 65.1336 47.3849 65.7018 47.9361 66.0865C48.4873 66.4712 49.1574 66.6473 49.8265 66.5832C48.2567 67.8678 46.3635 68.6952 44.3546 68.9748L42.7857 67.0185C43.3693 67.7073 43.2114 68.8026 42.6518 69.5057C42.0439 70.1602 41.2599 70.6252 40.3942 70.845C38.3336 71.4789 36.1545 71.6288 34.0265 71.2828C31.8985 70.9369 29.8791 70.1045 28.1255 68.8504" fill="#263238"/>
<path d="M16.9993 59.0497C17.3055 58.0931 17.822 57.2465 18.0277 56.2851C18.4678 54.214 17.4585 51.8798 18.463 50.0144C19.1804 48.6895 20.7015 48.039 22.146 47.5942C23.5905 47.1493 25.1306 46.7762 26.2068 45.7192C26.9913 44.9443 27.4409 43.8729 28.2253 43.098C29.3446 41.9883 30.9995 41.6105 32.5684 41.5148C34.1884 41.3583 35.8213 41.6236 37.3085 42.2849C38.0469 42.6218 38.6958 43.1277 39.2026 43.7616C39.7095 44.3956 40.0601 45.1399 40.2262 45.9344C40.3505 46.7093 40.2549 47.5272 40.5036 48.2781C40.7714 49.1008 41.4172 49.7418 41.8189 50.5119C42.2214 51.3389 42.3378 52.2761 42.1499 53.1764C41.962 54.0767 41.4806 54.8892 40.781 55.4863L29.6937 69.807C27.3644 70.687 21.7203 69.6252 19.9218 67.8937C18.1234 66.1622 16.2293 61.4174 16.9993 59.0497Z" fill="#263238"/>
<path d="M40.4895 53.6685C40.0112 50.416 37.5575 46.5751 34.3289 47.1682L24.3608 50.5164C23.4042 50.6982 24.0834 52.3005 24.1791 53.2906L26.3458 75.7713C26.3458 75.7713 24.997 76.7279 24.5187 76.5461C24.4914 76.5366 24.4619 76.5358 24.4342 76.5439C24.4065 76.5519 24.382 76.5684 24.3641 76.591C24.3462 76.6137 24.3358 76.6413 24.3344 76.6701C24.3329 76.699 24.3405 76.7275 24.3561 76.7518C25.5662 78.4977 31.2055 86.0885 37.0457 83.7591C38.3467 83.2377 36.907 79.1386 37.0457 77.6223L36.8735 73.7432C36.7443 71.763 36.6822 70.9499 36.6822 70.969C36.6822 70.9882 40.8052 69.955 41.25 64.4401C41.4748 61.7089 40.9965 57.2797 40.4895 53.6685Z" fill="#FFBF9D"/>
<path d="M39.7955 58.6717C39.8103 58.8538 39.7537 59.0345 39.6376 59.1755C39.5216 59.3166 39.3552 59.4069 39.1737 59.4275C39.0853 59.4417 38.9949 59.438 38.9079 59.4166C38.8209 59.3953 38.7391 59.3567 38.6673 59.3032C38.5955 59.2497 38.5352 59.1823 38.4899 59.1051C38.4446 59.0278 38.4152 58.9423 38.4036 58.8535C38.3888 58.6714 38.4454 58.4907 38.5614 58.3497C38.6775 58.2086 38.8439 58.1183 39.0254 58.0978C39.1138 58.0836 39.2042 58.0872 39.2911 58.1086C39.3781 58.1299 39.4599 58.1685 39.5317 58.222C39.6035 58.2755 39.6639 58.3429 39.7092 58.4201C39.7545 58.4974 39.7838 58.5829 39.7955 58.6717Z" fill="#263238"/>
<path d="M33.0035 59.0979C33.0196 59.2794 32.9641 59.4601 32.8489 59.6013C32.7336 59.7425 32.5676 59.8331 32.3865 59.8536C32.2982 59.8671 32.208 59.8629 32.1213 59.8413C32.0346 59.8197 31.953 59.7811 31.8814 59.7277C31.8097 59.6743 31.7494 59.6072 31.7039 59.5302C31.6584 59.4533 31.6287 59.3681 31.6164 59.2796C31.6016 59.0976 31.6582 58.9169 31.7742 58.7758C31.8903 58.6348 32.0567 58.5444 32.2382 58.5239C32.3264 58.5097 32.4164 58.5134 32.5031 58.5348C32.5898 58.5562 32.6713 58.5948 32.7427 58.6484C32.8141 58.702 32.874 58.7694 32.9188 58.8466C32.9636 58.9238 32.9924 59.0093 33.0035 59.0979Z" fill="#263238"/>
<path d="M40.0446 56.3663C39.9681 56.4954 39.3176 56.0841 38.5044 56.2037C37.6913 56.3232 37.1699 56.8781 37.0695 56.7776C36.969 56.6772 37.0695 56.5098 37.3039 56.2563C37.5982 55.9259 38.0005 55.7112 38.4388 55.6507C38.8771 55.5902 39.3226 55.6879 39.6954 55.9262C39.9633 56.1128 40.0828 56.3089 40.0446 56.3663Z" fill="#263238"/>
<path d="M32.7407 56.9743C32.645 57.0939 32.0088 56.63 31.1335 56.6682C30.2582 56.7065 29.6364 57.1992 29.536 57.0891C29.4355 56.9791 29.579 56.8309 29.8517 56.6108C30.2095 56.3154 30.6554 56.1472 31.1192 56.1325C31.5808 56.1144 32.0352 56.2507 32.4106 56.52C32.6833 56.7161 32.7837 56.9169 32.7407 56.9743Z" fill="#263238"/>
<path d="M35.4811 62.1254C35.8673 61.9677 36.2726 61.8616 36.6865 61.8097C36.873 61.7762 37.0548 61.7236 37.0739 61.5896C37.0764 61.3897 37.0162 61.194 36.9017 61.03C36.6865 60.5804 36.4616 60.1069 36.2225 59.5951C35.2659 57.5718 34.5723 55.9073 34.6536 55.869C34.7349 55.8308 35.572 57.4379 36.519 59.4564C36.7486 59.9586 36.9687 60.413 37.1743 60.8913C37.3142 61.1133 37.3702 61.3779 37.3322 61.6375C37.3103 61.7074 37.2726 61.7715 37.222 61.8245C37.1714 61.8776 37.1092 61.9183 37.0404 61.9436C36.9368 61.9791 36.8291 62.0016 36.7199 62.0106C36.313 62.0977 35.8971 62.1362 35.4811 62.1254Z" fill="#263238"/>
<path d="M36.6819 70.9787C34.1205 71.2139 31.5441 70.7337 29.2394 69.5916C29.2394 69.5916 31.3678 73.2746 36.7775 72.3467L36.6819 70.9787Z" fill="#FF9A6C"/>
<path d="M33.1902 64.316C33.2755 64.1269 33.4071 63.9624 33.5729 63.8376C33.7757 63.7412 34.0059 63.7192 34.2234 63.7755C34.5464 63.8226 34.8453 63.9737 35.0748 64.2059C35.1874 64.3231 35.2667 64.4682 35.3045 64.6263C35.3424 64.7844 35.3374 64.9497 35.29 65.1052C35.2039 65.4209 34.7352 65.5835 34.4147 65.6504C34.0827 65.6989 33.7442 65.6295 33.4581 65.4543C33.3336 65.3976 33.2249 65.3113 33.1415 65.2029C33.0582 65.0945 33.0026 64.9674 32.9797 64.8325C33.001 64.6442 33.0738 64.4655 33.1902 64.316Z" fill="#FF9A6C"/>
<path d="M33.343 63.259C33.4626 63.259 33.5295 64.0578 34.2709 64.584C35.0123 65.1101 35.8733 64.9523 35.8876 65.0623C35.902 65.1723 35.7106 65.2345 35.3423 65.2727C34.8644 65.3165 34.3865 65.1894 33.9935 64.914C33.6143 64.6523 33.3532 64.252 33.2665 63.7995C33.2186 63.4695 33.2856 63.259 33.343 63.259Z" fill="#263238"/>
<path d="M32.6742 54.0324C32.612 54.238 31.8562 54.1998 30.9809 54.3768C30.1056 54.5537 29.4121 54.8551 29.2829 54.6685C29.2255 54.5872 29.3308 54.3863 29.6034 54.1663C29.9686 53.8942 30.3914 53.7096 30.8392 53.6266C31.287 53.5437 31.7479 53.5647 32.1863 53.688C32.5211 53.7836 32.6981 53.9319 32.6742 54.0324Z" fill="#263238"/>
<path d="M39.5803 53.6263C39.4416 53.808 38.839 53.6789 38.1454 53.7267C37.4519 53.7745 36.8396 53.942 36.6866 53.7745C36.6196 53.6932 36.6866 53.5115 36.9496 53.3297C37.2955 53.1018 37.6979 52.9743 38.1119 52.9614C38.5234 52.9318 38.9348 53.0197 39.2981 53.2149C39.5469 53.3584 39.6425 53.5306 39.5803 53.6263Z" fill="#263238"/>
<path d="M22.1558 51.3008C22.6341 50.526 23.562 50.129 24.423 49.7989C28.1413 48.3632 32.0174 47.3757 35.9694 46.8573C36.4477 47.6657 36.0077 48.7706 35.2663 49.3589C34.5249 49.9472 33.5683 50.1816 32.6834 50.5116C31.7985 50.8417 30.885 51.3582 30.5167 52.2335C30.1484 53.1089 30.4593 54.2616 30.1149 55.2086C29.5266 56.8445 27.245 57.3706 26.6758 59.0017C26.2358 60.2405 26.9533 61.5558 27.1541 62.8569C27.246 63.5171 27.196 64.1894 27.0074 64.8288C26.8188 65.4682 26.496 66.0601 26.0605 66.5648C25.625 67.0696 25.0869 67.4756 24.482 67.7559C23.8771 68.0361 23.2194 68.1841 22.5528 68.19C22.2849 63.5058 22.0155 58.8247 21.7444 54.1468C21.6631 53.171 21.6249 52.1188 22.1558 51.3008Z" fill="#263238"/>
<path d="M12.7233 63.1296C13.4647 62.4647 14.3927 61.8908 14.6844 60.9437C15.1149 59.5614 14.0052 57.9399 14.7227 56.682C15.3732 55.534 17.2912 55.5962 17.8987 54.4243C18.377 53.506 17.8269 52.6976 18.0039 51.8941C18.1809 51.0905 19.3288 50.3874 20.142 50.483L26.5226 59.7479C27.1157 62.857 27.7136 64.531 27.0488 66.3295C26.609 67.2978 26.277 68.3116 26.0587 69.3524C25.9152 70.4047 26.1878 71.5957 27.044 72.2223C23.2175 72.5236 19.6397 70.5243 16.3298 68.5871L12.8429 66.54C12.4612 66.3573 12.1321 66.0808 11.8863 65.7364C11.3649 64.885 11.9867 63.7897 12.7233 63.1296Z" fill="#263238"/>
<path d="M16.2489 67.645C16.3824 67.6879 16.5204 67.7152 16.6602 67.7263C17.0592 67.7644 17.4618 67.7353 17.8512 67.6402C18.4728 67.4913 19.0448 67.1831 19.511 66.7458C20.1267 66.1532 20.513 65.362 20.6015 64.5121C20.659 64.0192 20.6167 63.5198 20.4772 63.0436C20.3056 62.5361 20.0676 62.0536 19.7692 61.6087C19.4529 61.1571 19.2062 60.6605 19.0374 60.1355C18.9478 59.8671 18.9197 59.582 18.9553 59.3013C18.9909 59.0206 19.0893 58.7515 19.2431 58.514C19.5875 58.0357 20.2332 57.9353 20.8359 57.6961C21.1614 57.5791 21.4445 57.3676 21.649 57.0887C21.8373 56.7904 21.9292 56.4413 21.9121 56.089C21.8294 55.4136 21.6836 54.7475 21.4768 54.0992C21.4034 53.7846 21.4034 53.4572 21.4768 53.1426C21.5611 52.8253 21.7562 52.5487 22.0269 52.3629C22.6089 52.0274 23.2683 51.8493 23.9401 51.8464C24.6354 51.8234 25.3135 51.6243 25.9108 51.2676C26.492 50.9133 26.9638 50.4051 27.274 49.7992C27.5285 49.2174 27.69 48.5992 27.7523 47.9673C27.8186 47.3822 27.9436 46.8054 28.1254 46.2453C28.3268 45.736 28.6332 45.2748 29.0246 44.8917C29.7465 44.2067 30.6785 43.7854 31.6696 43.6959C32.4961 43.6253 33.3255 43.7912 34.0612 44.1742C34.6145 44.4574 35.1133 44.8363 35.5344 45.2935C35.8863 45.6925 36.1912 46.1307 36.4432 46.5993C36.4432 46.5993 36.4432 46.5658 36.4097 46.4988C36.3705 46.4039 36.3257 46.3112 36.2758 46.2214C36.0932 45.8742 35.87 45.5499 35.6109 45.2552C35.1902 44.7797 34.6881 44.3829 34.1282 44.0834C33.3848 43.6748 32.54 43.4872 31.6936 43.5429C30.6548 43.6189 29.6737 44.0495 28.9146 44.7626C28.4963 45.1666 28.17 45.656 27.9579 46.1975C27.7683 46.7679 27.6369 47.356 27.5657 47.9529C27.4994 48.5641 27.338 49.1612 27.0874 49.7227C26.7957 50.2872 26.3559 50.7618 25.8151 51.0954C25.2452 51.4297 24.6005 51.6156 23.9401 51.6359C23.2204 51.6344 22.5134 51.826 21.893 52.1908C21.5825 52.4019 21.3584 52.7177 21.2616 53.0804C21.1778 53.4342 21.1778 53.8028 21.2616 54.1566C21.4641 54.7927 21.6082 55.4459 21.6921 56.1081C21.7118 56.4157 21.6349 56.7217 21.472 56.9834C21.2873 57.2261 21.0365 57.4104 20.7498 57.5144C20.4676 57.6339 20.1615 57.7153 19.8649 57.8396C19.5561 57.9562 19.2838 58.1526 19.0757 58.4088C18.9068 58.6729 18.7985 58.9712 18.7588 59.2822C18.7191 59.5932 18.7489 59.9092 18.8461 60.2073C19.0252 60.7491 19.2831 61.2616 19.6114 61.7283C19.9027 62.1512 20.136 62.6113 20.305 63.0963C20.4405 63.5486 20.486 64.0231 20.4389 64.4929C20.3605 65.311 19.9984 66.0758 19.4153 66.6549C18.969 67.0871 18.4187 67.3968 17.8177 67.5541C17.3059 67.6878 16.7727 67.7187 16.2489 67.645Z" fill="#455A64"/>
<path d="M11.1493 61.0592C11.0868 61.1531 11.0444 61.259 11.025 61.3701C10.9614 61.6982 11.0192 62.0381 11.1876 62.3267C11.3043 62.5328 11.4682 62.7082 11.6659 62.8385C11.9123 62.9876 12.1959 63.0639 12.4838 63.0586C12.8337 63.0509 13.1748 62.9474 13.47 62.7593C13.7652 62.5713 14.0031 62.3058 14.1579 61.9919C14.3399 61.6316 14.4333 61.2332 14.4306 60.8296C14.419 60.3959 14.3282 59.9679 14.1627 59.5669C13.8614 58.7394 13.3065 57.931 13.297 56.9649C13.2789 56.727 13.3089 56.4879 13.3854 56.2619C13.4618 56.0359 13.583 55.8276 13.7418 55.6495C14.1296 55.3293 14.6279 55.1746 15.1289 55.219C15.6864 55.2598 16.2467 55.2015 16.7838 55.0468C17.0653 54.9323 17.3031 54.7313 17.463 54.4729C17.617 54.216 17.7133 53.9288 17.7453 53.631C17.7728 53.0598 17.7262 52.4874 17.6065 51.9282C17.5209 51.4034 17.5519 50.8661 17.6974 50.3546C17.9685 49.3782 18.6036 48.5428 19.472 48.0204C20.2962 47.6006 21.2113 47.3903 22.1362 47.4082C22.9581 47.4101 23.7751 47.2809 24.5564 47.0255C25.1916 46.7924 25.7738 46.4347 26.2688 45.9733C26.6478 45.6231 26.9705 45.2165 27.2254 44.7679C27.4498 44.3958 27.6038 43.9856 27.6798 43.5578C27.5374 43.9616 27.3597 44.3522 27.1489 44.7249C26.5463 45.7306 25.6181 46.5001 24.5181 46.906C23.7434 47.143 22.9367 47.2591 22.1266 47.2503C21.1748 47.2235 20.2313 47.4339 19.3811 47.8626C18.4679 48.3981 17.7938 49.2621 17.4965 50.2781C17.3435 50.8175 17.3092 51.3838 17.3961 51.9378C17.508 52.4787 17.5546 53.0312 17.5348 53.5832C17.5235 53.8457 17.4403 54.1 17.2944 54.3184C17.1485 54.5369 16.9454 54.7111 16.7073 54.822C16.1962 54.9671 15.6634 55.0205 15.1337 54.9799C14.5789 54.9313 14.0273 55.1032 13.5983 55.4582C13.4231 55.6577 13.2903 55.8907 13.2081 56.1432C13.1259 56.3956 13.0959 56.6622 13.12 56.9266C13.1411 57.4232 13.2597 57.9108 13.4691 58.3615C13.6557 58.792 13.8614 59.1938 14.0192 59.5956C14.1797 59.9765 14.2704 60.3831 14.2871 60.7961C14.2936 61.1733 14.2117 61.5468 14.0479 61.8867C13.9091 62.1799 13.6926 62.4295 13.4219 62.6082C13.1512 62.787 12.8367 62.8882 12.5125 62.9007C12.2466 62.9102 11.9833 62.8457 11.752 62.7142C11.554 62.5986 11.3892 62.4339 11.2737 62.2359C11.106 61.9697 11.0367 61.6533 11.0776 61.3414C11.1015 61.1692 11.1637 61.064 11.1493 61.0592Z" fill="#263238"/>
<path d="M51.4381 63.3403C51.5519 63.6639 51.5519 64.0165 51.4381 64.34C51.375 64.5257 51.2708 64.6949 51.1334 64.8348C50.9959 64.9747 50.8287 65.0819 50.6441 65.1484C50.398 65.2209 50.1366 65.2236 49.8891 65.156C49.6416 65.0884 49.4178 64.9533 49.2427 64.7657C49.0418 64.5449 48.925 64.2604 48.9127 63.9621C48.9035 63.6369 48.9537 63.3127 49.0609 63.0055C49.2618 62.3598 49.678 61.6567 49.6158 60.8101C49.5856 60.3808 49.4662 59.9626 49.2652 59.5821C49.0643 59.2016 48.7862 58.8672 48.4487 58.6003C48.0953 58.3174 47.691 58.1047 47.2577 57.9737C46.815 57.851 46.3586 57.7851 45.8993 57.7776C45.4542 57.7739 45.0105 57.7275 44.5744 57.6389C44.1672 57.5549 43.8029 57.3296 43.546 57.0027C43.3185 56.6673 43.1908 56.2742 43.1777 55.8691C43.1564 55.4744 43.1886 55.0786 43.2734 54.6925C43.4833 53.9641 43.599 53.2118 43.6177 52.454C43.5792 51.7811 43.3411 51.135 42.9338 50.5981C42.5893 50.1721 42.1673 49.815 41.6901 49.5458C41.3415 49.3395 41.0075 49.1094 40.6905 48.8571C40.4305 48.6345 40.2189 48.361 40.0687 48.0535C40.0687 48.0535 40.0687 48.0535 40.0687 48.1205C40.0875 48.1852 40.1132 48.2477 40.1452 48.307C40.2645 48.5395 40.4268 48.7472 40.6235 48.9192C40.9336 49.1891 41.2646 49.4339 41.6136 49.6511C42.0699 49.9225 42.4721 50.276 42.7998 50.6938C43.179 51.2085 43.3955 51.8248 43.4216 52.4635C43.3932 53.2042 43.2727 53.9385 43.0629 54.6494C42.9704 55.0539 42.9333 55.469 42.9529 55.8835C42.9707 56.3298 43.1132 56.7623 43.3642 57.1319C43.6494 57.5008 44.0561 57.7568 44.5122 57.8541C44.9609 57.9462 45.4173 57.9959 45.8754 58.0024C46.3181 58.0082 46.7584 58.0692 47.1859 58.1841C47.5918 58.3103 47.9711 58.5097 48.3052 58.7725C48.6196 59.0203 48.8792 59.3306 49.0677 59.6838C49.2562 60.0369 49.3696 60.4253 49.4005 60.8244C49.4675 61.5945 49.0848 62.2594 48.8744 62.9529C48.7638 63.2856 48.7152 63.6358 48.7309 63.9861C48.7517 64.3203 48.8888 64.6367 49.1183 64.8805C49.3148 65.0863 49.5652 65.2327 49.841 65.3029C50.1167 65.3731 50.4066 65.3643 50.6776 65.2775C50.8756 65.2007 51.0534 65.0798 51.1976 64.924C51.3418 64.7682 51.4486 64.5816 51.5099 64.3783C51.5966 64.129 51.6099 63.86 51.5482 63.6034C51.5274 63.5099 51.4901 63.4208 51.4381 63.3403Z" fill="#263238"/>
<path d="M46.8657 100.807V95.5167C47.4588 92.5464 47.1766 89.026 45.7943 86.314C44.7915 84.566 43.6829 82.8808 42.4748 81.2678L37.2134 74.4327C34.3148 76.5421 29.7756 75.0163 25.8822 73.6005C25.8822 73.6005 22.0557 75.729 20.2477 77.7283C18.3679 79.8329 24.7964 106.164 24.7964 106.164C21.8835 111.99 18.124 117.165 17.5548 122.474L47.9754 123.646L46.684 109.699L46.8657 100.807Z" fill="#455A64"/>
<path d="M46.4448 109.846C46.4146 109.649 46.4066 109.448 46.4209 109.249C46.4209 108.813 46.4209 108.292 46.4209 107.627C46.4448 106.192 46.4735 104.341 46.507 102.28C46.5405 100.218 46.6027 98.3 46.6696 96.932C46.7031 96.2481 46.7366 95.6932 46.7653 95.3106C46.7686 95.1122 46.7943 94.9148 46.8418 94.7222C46.8612 94.9195 46.8612 95.1181 46.8418 95.3153C46.8418 95.7506 46.8418 96.272 46.8418 96.9368C46.8179 98.3718 46.7844 100.223 46.751 102.284C46.7175 104.346 46.6601 106.264 46.5931 107.632C46.5596 108.316 46.5262 108.871 46.4927 109.253C46.5002 109.452 46.4841 109.651 46.4448 109.846Z" fill="#263238"/>
<path d="M60.3397 114.659C60.3397 114.659 63.3053 114.821 65.1229 115.969C66.9404 117.117 69.906 118.906 71.1257 121.121C71.6853 122.139 70.0925 122.355 69.3033 121.766C68.5141 121.178 67.3135 120.059 66.7156 119.925L66.1177 119.786C66.6636 121.022 67.2718 122.228 67.9401 123.402C68.5571 124.359 69.0928 125.947 67.237 126.019C67.237 126.019 65.9886 127.645 64.7259 126.439C64.7259 126.439 63.7405 127.917 62.1525 125.87C62.1525 125.87 61.2246 127.042 60.842 126.592C60.4593 126.143 59.1918 125.435 58.8235 123.971C58.2709 122.268 57.6323 120.593 56.9102 118.954L60.3397 114.659Z" fill="#FFBF9D"/>
<path d="M126.734 73.5525C127.064 73.5525 140.643 72.1175 140.643 72.1175C140.643 72.1175 141.796 66.5978 141.733 65.1629C141.671 63.7279 140.705 54.2335 140.705 54.2335L145.79 51.8419C145.79 51.8419 152.586 74.7626 151.104 76.6663C149.621 78.57 146.832 80.2775 146.593 80.2871C146.354 80.2967 133.435 86.0268 124.447 83.047C115.46 80.0671 126.734 73.5525 126.734 73.5525Z" fill="#FFBF9D"/>
<path d="M114.833 85.926C116.833 87.911 120.277 89.5612 126.026 88.1262C137.391 85.2851 145.909 82.8648 149.296 81.0472C152.682 79.2296 151.362 71.1079 151.649 70.7396C152.505 69.6299 151.563 67.2479 150.343 66.8748C146.866 65.8225 140.815 66.2387 140.509 66.5544C138.725 68.4293 140.351 70.7061 140.351 70.7061L125.366 72.672C123.524 72.5856 121.677 72.7027 119.861 73.0211" fill="#455A64"/>
<path d="M119.86 73.0212L120.219 72.9447C120.458 72.9016 120.812 72.8394 121.281 72.782C122.637 72.6113 124.005 72.5537 125.371 72.6098L140.351 70.6009L140.28 70.7683C139.787 70.0443 139.546 69.1793 139.591 68.305C139.632 67.8529 139.779 67.4168 140.021 67.0327C140.143 66.8398 140.28 66.6574 140.433 66.4874C140.493 66.4431 140.559 66.4077 140.629 66.3822L140.801 66.3392C140.916 66.3105 141.026 66.3009 141.136 66.277C142.992 66.063 144.864 66.0246 146.727 66.1622C147.705 66.2218 148.678 66.3561 149.635 66.564C149.874 66.6166 150.114 66.6883 150.362 66.7505C150.617 66.8319 150.851 66.9691 151.046 67.1523C151.427 67.5137 151.717 67.9593 151.893 68.4533C152.083 68.9481 152.15 69.4814 152.089 70.0078C152.045 70.2818 151.942 70.5429 151.788 70.7731C151.745 70.821 151.749 70.9501 151.745 71.0745V71.4571C151.778 72.4855 151.826 73.533 151.797 74.5853C151.805 76.0791 151.561 77.5635 151.075 78.9762C150.826 79.6839 150.397 80.315 149.831 80.8081C149.538 81.0371 149.217 81.2268 148.875 81.3725C148.559 81.5399 148.224 81.6691 147.918 81.8221C146.608 82.3817 145.292 82.8409 143.996 83.2571C142.7 83.6732 141.427 84.075 140.17 84.4433C135.166 85.8782 130.603 87.0405 126.806 87.9923C125.898 88.2322 124.978 88.4222 124.05 88.5615C123.219 88.6774 122.379 88.7222 121.539 88.6955C120.191 88.6666 118.861 88.3775 117.622 87.8441C116.845 87.5012 116.12 87.0504 115.47 86.5048C115.24 86.3195 115.026 86.1164 114.829 85.8973C114.829 85.8973 115.049 86.1078 115.503 86.4665C116.162 86.9923 116.889 87.4267 117.665 87.758C118.896 88.2661 120.212 88.5371 121.544 88.5568C122.374 88.5767 123.205 88.5255 124.027 88.4037C124.948 88.2583 125.862 88.0635 126.762 87.8202C130.589 86.8635 135.114 85.6869 140.103 84.2232C141.351 83.8549 142.623 83.4627 143.929 83.0323C145.235 82.6018 146.531 82.1474 147.827 81.5973C148.143 81.449 148.473 81.3199 148.784 81.1525C149.103 81.0119 149.404 80.8319 149.678 80.6168C150.212 80.1528 150.616 79.5577 150.85 78.8901C151.321 77.496 151.556 76.0329 151.544 74.5614C151.572 73.5139 151.544 72.4759 151.491 71.4428V71.0505C151.491 70.9836 151.491 70.9166 151.491 70.8449C151.487 70.8067 151.487 70.7682 151.491 70.7301C151.502 70.7005 151.515 70.6718 151.529 70.644L151.553 70.6057C151.688 70.4096 151.776 70.1856 151.812 69.9504C151.868 69.4641 151.804 68.9714 151.625 68.5155C151.464 68.0587 151.199 67.6459 150.85 67.3101C150.681 67.1513 150.478 67.032 150.257 66.961C150.018 66.8988 149.779 66.8318 149.544 66.7744C148.599 66.5695 147.64 66.4368 146.675 66.3774C144.831 66.2365 142.978 66.2717 141.141 66.4827C141.03 66.4827 140.92 66.5114 140.815 66.5401L140.662 66.5735C140.629 66.5866 140.597 66.6026 140.567 66.6214C140.422 66.7784 140.293 66.9481 140.179 67.1284C139.951 67.4803 139.813 67.8827 139.777 68.3002C139.736 69.1223 139.961 69.9359 140.418 70.6201L140.514 70.7683H140.347L125.356 72.6816C123.999 72.6127 122.637 72.6511 121.286 72.7964C120.807 72.8442 120.458 72.8968 120.219 72.9303C119.98 72.9638 119.86 73.0212 119.86 73.0212Z" fill="#263238"/>
<path d="M79.2866 88.599L73.1827 77.6324L188.633 13.3735C189.963 12.6331 191.533 12.4515 192.997 12.8685C194.461 13.2856 195.699 14.2671 196.44 15.5972L196.963 16.5376C197.704 17.8677 197.885 19.4375 197.468 20.9015C197.051 22.3655 196.07 23.6039 194.739 24.3443L79.2889 88.6032L79.2866 88.599Z" fill="#1B176E"/>
<path d="M176.097 30.6006L161.961 5.20266C161.893 5.07972 161.849 4.94451 161.833 4.80474C161.817 4.66498 161.828 4.52339 161.867 4.38807C161.905 4.25275 161.97 4.12635 162.058 4.01609C162.145 3.90582 162.253 3.81385 162.376 3.74542L168.863 0.135164C168.985 0.0667362 169.121 0.0231899 169.26 0.00701815C169.4 -0.00915361 169.542 0.00236014 169.677 0.0409064C169.812 0.0794527 169.939 0.144279 170.049 0.231673C170.159 0.319069 170.251 0.427326 170.32 0.550265L184.456 25.9482L176.097 30.6006Z" fill="#1B176E"/>
<path d="M148.288 18.7744L158.59 37.2847C159.007 38.0326 159.95 38.3014 160.698 37.8851L166.349 34.7401C167.096 34.3239 167.365 33.3802 166.949 32.6323L156.646 14.122C156.23 13.3741 155.286 13.1053 154.538 13.5215L148.888 16.6666C148.14 17.0828 147.871 18.0265 148.288 18.7744Z" fill="#1B176E"/>
<path d="M157.384 17.6929L163.762 29.1527L176.743 21.9275L170.365 10.4677L157.384 17.6929Z" fill="#1B176E"/>
<path d="M186.944 14.3373C186.977 14.3947 164.32 27.0699 136.348 42.6438C108.376 58.2176 85.647 70.7972 85.647 70.735C85.647 70.6728 108.266 58.0023 136.248 42.4237C164.229 26.8451 186.91 14.2751 186.944 14.3373Z" fill="#263238"/>
<path d="M32.5307 109.784C41.0447 125.09 58.9957 131.308 72.6276 123.727C86.2595 116.146 90.4208 97.5874 81.9068 82.3006C73.3929 67.0138 55.4466 60.7766 41.81 68.3578C28.1733 75.9391 24.0216 94.4976 32.5307 109.784ZM74.5217 86.4141C80.4863 97.1283 77.5733 110.124 68.0167 115.438C58.46 120.752 45.8852 116.395 39.9206 105.671C33.9561 94.9472 36.869 81.961 46.4209 76.6422C55.9728 71.3234 68.5572 75.6999 74.5217 86.4141Z" fill="#1B176E"/>
<path d="M92.6172 66.683L98.9166 78.0007C99.7542 79.5056 101.653 80.0466 103.158 79.209L103.668 78.9252C105.173 78.0875 105.714 76.1885 104.876 74.6835L98.577 63.3658C97.7393 61.8609 95.8403 61.3199 94.3354 62.1576L93.8255 62.4414C92.3205 63.279 91.7796 65.1781 92.6172 66.683Z" fill="#1B176E"/>
<path d="M104.715 59.9497L111.015 71.2674C111.852 72.7723 113.751 73.3133 115.256 72.4757L115.766 72.1919C117.271 71.3542 117.812 69.4552 116.974 67.9502L110.675 56.6325C109.837 55.1276 107.938 54.5866 106.433 55.4243L105.923 55.7081C104.419 56.5457 103.878 58.4448 104.715 59.9497Z" fill="#1B176E"/>
<path d="M98.4417 63.1918C98.5038 63.1583 99.9627 65.7268 101.709 68.9315C103.454 72.1362 104.818 74.7478 104.755 74.7812C104.693 74.8147 103.234 72.251 101.489 69.0415C99.7427 65.832 98.3795 63.1918 98.4417 63.1918Z" fill="#263238"/>
<path d="M92.8886 67.1379C92.9507 67.1044 94.3761 69.5582 96.0789 72.6098C97.7817 75.6614 99.1066 78.1725 99.0492 78.206C98.9918 78.2395 97.5617 75.7858 95.878 72.7581C94.1944 69.7303 92.8312 67.1714 92.8886 67.1379Z" fill="#263238"/>
<path d="M110.615 56.529C110.677 56.4955 112.164 59.0497 113.939 62.2352C115.714 65.4208 117.101 68.0372 117.038 68.0706C116.976 68.1041 115.494 65.5452 113.719 62.3596C111.944 59.174 110.557 56.5625 110.615 56.529Z" fill="#263238"/>
<path d="M104.774 60.0548C104.832 60.0214 106.291 62.5612 108.022 65.7276C109.754 68.894 111.117 71.4674 111.055 71.52C110.992 71.5726 109.543 69.0136 107.807 65.8472C106.071 62.6808 104.712 60.0883 104.774 60.0548Z" fill="#263238"/>
<path d="M139.466 42.8017C140.023 42.8673 140.585 42.7233 141.041 42.3976C141.498 42.072 141.817 41.5881 141.936 41.0402C142.056 40.4923 141.967 39.9195 141.687 39.4335C141.407 38.9474 140.957 38.5829 140.423 38.4108C140.768 38.0576 140.993 37.6047 141.067 37.1165C141.14 36.6282 141.058 36.1292 140.832 35.6901C140.606 35.251 140.248 34.8941 139.808 34.6699C139.368 34.4457 138.869 34.3656 138.381 34.4409C138.361 33.9552 138.215 33.483 137.959 33.0702C137.702 32.6573 137.343 32.3179 136.916 32.0849C136.49 31.8519 136.01 31.7332 135.524 31.7403C135.038 31.7475 134.562 31.8803 134.143 32.1258C133.596 31.6786 132.915 31.4272 132.208 31.4116C131.502 31.396 130.811 31.6171 130.245 32.0397C129.769 31.9489 129.276 32.0138 128.84 32.2249C128.405 32.4359 128.048 32.7818 127.824 33.2113C127.6 33.6408 127.521 34.131 127.598 34.6092C127.674 35.0874 127.903 35.5282 128.25 35.8662" fill="#263238"/>
<path d="M129.761 34.2685H130.24C132.651 34.2705 134.974 35.1807 136.745 36.8178C138.516 38.4549 139.605 40.6988 139.796 43.1029C140.155 47.7378 140.49 52.8605 140.451 55.3477C140.361 60.5135 135.224 61.2788 135.224 61.2788L135.64 67.4681L123.141 67.0616L122.103 44.6287C121.663 39.2764 124.404 34.5651 129.761 34.2685Z" fill="#FFBF9D"/>
<path d="M135.267 61.279C132.876 61.2725 130.537 60.5803 128.527 59.2845C128.527 59.2845 130.182 63.1827 135.319 62.7331L135.267 61.279Z" fill="#FF9A6C"/>
<path d="M136.97 47.9577C136.971 48.1494 136.897 48.3339 136.764 48.4716C136.631 48.6094 136.449 48.6893 136.257 48.6943C136.164 48.7008 136.07 48.6887 135.982 48.6587C135.893 48.6287 135.811 48.5815 135.741 48.5196C135.67 48.4578 135.613 48.3826 135.572 48.2985C135.531 48.2144 135.507 48.1229 135.502 48.0295C135.502 47.8377 135.576 47.6534 135.709 47.5151C135.841 47.3769 136.023 47.2955 136.214 47.2881C136.308 47.2816 136.402 47.2939 136.491 47.3242C136.58 47.3545 136.662 47.4022 136.733 47.4645C136.803 47.5268 136.86 47.6025 136.901 47.6872C136.942 47.7719 136.965 47.8639 136.97 47.9577Z" fill="#263238"/>
<path d="M138.683 45.6338C138.592 45.7295 138.032 45.3181 137.248 45.3181C136.463 45.3181 135.875 45.7104 135.789 45.6147C135.703 45.519 135.841 45.3995 136.095 45.2129C136.438 44.9771 136.846 44.8535 137.262 44.859C137.673 44.8572 138.074 44.9881 138.405 45.232C138.644 45.4186 138.726 45.5956 138.683 45.6338Z" fill="#263238"/>
<path d="M129.838 47.6136C129.842 47.8082 129.769 47.9964 129.634 48.1371C129.5 48.2778 129.315 48.3596 129.12 48.3646C129.027 48.3711 128.933 48.359 128.845 48.329C128.756 48.299 128.674 48.2517 128.604 48.1899C128.534 48.1281 128.476 48.0529 128.435 47.9688C128.394 47.8846 128.37 47.7932 128.365 47.6997C128.363 47.5076 128.437 47.3226 128.57 47.1841C128.703 47.0456 128.885 46.9646 129.077 46.9584C129.17 46.9512 129.264 46.9625 129.353 46.9916C129.441 47.0207 129.523 47.067 129.594 47.1279C129.665 47.1888 129.723 47.2631 129.764 47.3464C129.806 47.4298 129.831 47.5206 129.838 47.6136Z" fill="#263238"/>
<path d="M130.905 45.7573C130.814 45.8529 130.254 45.4416 129.47 45.4416C128.686 45.4416 128.097 45.8338 128.011 45.7381C127.925 45.6425 128.064 45.5229 128.317 45.3364C128.66 45.1006 129.068 44.9769 129.484 44.9824C129.896 44.9807 130.296 45.1115 130.628 45.3555C130.867 45.542 130.948 45.7142 130.905 45.7573Z" fill="#263238"/>
<path d="M133.756 51.6364C134.173 51.5052 134.605 51.428 135.042 51.4068C135.243 51.4068 135.434 51.3494 135.473 51.2107C135.49 51.0025 135.443 50.794 135.339 50.6128L134.746 49.0727C133.923 46.8772 133.311 45.074 133.416 45.0453C133.521 45.0166 134.243 46.7624 135.066 48.9531C135.262 49.4936 135.454 50.0102 135.635 50.5028C135.759 50.748 135.795 51.0285 135.736 51.2968C135.706 51.3677 135.66 51.4308 135.602 51.4813C135.544 51.5319 135.475 51.5685 135.401 51.5886C135.291 51.6213 135.176 51.6374 135.061 51.6364C134.628 51.6906 134.189 51.6906 133.756 51.6364Z" fill="#263238"/>
<path d="M131.598 42.716C131.493 42.9169 130.818 42.716 129.981 42.6681C129.144 42.6203 128.446 42.7781 128.369 42.5677C128.336 42.4672 128.484 42.2903 128.786 42.1276C129.174 41.9356 129.606 41.8467 130.039 41.8694C130.468 41.8846 130.886 42.0133 131.249 42.2424C131.521 42.429 131.646 42.6251 131.598 42.716Z" fill="#263238"/>
<path d="M138.73 42.376C138.562 42.553 137.907 42.376 137.122 42.376C136.338 42.376 135.688 42.4956 135.52 42.3042C135.453 42.2134 135.558 42.0316 135.85 41.8642C136.252 41.6535 136.703 41.5528 137.156 41.5724C137.607 41.5785 138.048 41.7057 138.433 41.9407C138.71 42.1033 138.801 42.2851 138.73 42.376Z" fill="#263238"/>
<path d="M139.309 40.7588C139.309 40.7588 137.96 37.5302 136.406 36.7745C134.526 35.8561 133.713 37.9176 131.919 37.4106C130.125 36.9036 128.332 36.0283 126.495 37.4106C124.486 38.9221 125.424 39.9887 125.29 42.2751C124.763 51.5352 123.061 54.1468 122.597 49.7846C122.544 49.3062 121.219 48.9236 121.028 46.9147C120.779 44.2983 120.688 41.1176 121.281 39.2617C121.76 37.6976 122.673 36.6166 124.276 35.4352C126.811 33.5602 130.283 33.522 132.641 33.7755C134.999 34.029 139.534 36.7219 139.309 40.7588Z" fill="#263238"/>
<path d="M122.921 49.6414C122.916 49.4524 122.873 49.2665 122.793 49.0949C122.714 48.9232 122.601 48.7695 122.46 48.6429C122.32 48.5164 122.155 48.4196 121.976 48.3586C121.797 48.2975 121.608 48.2734 121.419 48.2877C120.463 48.3786 119.387 48.9191 119.444 50.9041C119.545 54.4245 123.06 53.597 123.065 53.4918C123.07 53.3865 122.979 51.1146 122.921 49.6414Z" fill="#FFBF9D"/>
<path d="M122.256 52.191C122.256 52.191 122.199 52.2389 122.094 52.2867C121.951 52.3523 121.788 52.3608 121.639 52.3106C121.407 52.1732 121.216 51.9761 121.085 51.7397C120.955 51.5033 120.89 51.2364 120.898 50.9666C120.88 50.6662 120.929 50.3655 121.042 50.0865C121.072 49.9762 121.129 49.875 121.207 49.7916C121.285 49.7083 121.383 49.6453 121.491 49.6082C121.561 49.5868 121.637 49.5909 121.704 49.6198C121.772 49.6487 121.827 49.7005 121.859 49.766C121.907 49.8617 121.888 49.9334 121.907 49.9382C121.926 49.943 121.979 49.876 121.946 49.7325C121.927 49.6452 121.875 49.5684 121.802 49.5173C121.754 49.4818 121.699 49.4563 121.641 49.4423C121.582 49.4283 121.522 49.4262 121.462 49.436C121.318 49.4684 121.185 49.5374 121.075 49.6362C120.966 49.735 120.883 49.8605 120.836 50.0004C120.694 50.3085 120.63 50.6469 120.649 50.9857C120.692 51.6936 121.075 52.3489 121.606 52.4828C121.701 52.5078 121.8 52.5108 121.896 52.4918C121.992 52.4727 122.083 52.432 122.161 52.3728C122.256 52.2771 122.271 52.191 122.256 52.191Z" fill="#FF9A6C"/>
<path d="M123.012 42.8205C123.443 43.1715 123.954 43.4098 124.5 43.514C124.774 43.557 125.054 43.4992 125.289 43.3515C125.524 43.2038 125.697 42.9761 125.777 42.7105C125.82 42.4665 125.777 42.1795 125.921 41.993C126.064 41.8064 126.471 41.8399 126.762 41.8734C127.786 41.9834 128.986 40.8546 129.25 39.8597C129.382 40.0505 129.583 40.1834 129.811 40.2314C130.038 40.2794 130.275 40.2389 130.474 40.118C130.799 39.9192 131.088 39.6651 131.325 39.3671C131.464 39.1773 131.646 39.0238 131.857 38.9197C132.068 38.8156 132.301 38.764 132.536 38.7692C132.783 38.8547 133.04 38.9109 133.301 38.9366C133.779 38.8983 133.99 38.3578 134.061 37.8986C134.133 37.4395 134.191 36.9085 134.583 36.6598C134.985 36.5021 135.43 36.4902 135.841 36.6263C136.266 36.6933 136.797 36.5928 136.926 36.1767C136.944 36.0655 136.939 35.9519 136.912 35.8426C136.885 35.7334 136.836 35.6307 136.769 35.5406C136.484 35.1139 136.064 34.7958 135.576 34.6379C135.088 34.4799 134.561 34.4912 134.08 34.67C133.911 34.0814 133.571 33.5564 133.102 33.162C132.633 32.7677 132.058 32.5217 131.449 32.4556C130.84 32.3894 130.225 32.506 129.683 32.7905C129.14 33.0749 128.695 33.5145 128.403 34.053C128.03 33.7118 127.581 33.4658 127.093 33.3359C126.605 33.206 126.092 33.196 125.599 33.3069C125.107 33.4178 124.648 33.6462 124.262 33.9727C123.877 34.2991 123.576 34.714 123.385 35.1818C122.955 35.067 122.5 35.0813 122.077 35.223C121.655 35.3647 121.283 35.6275 121.009 35.9788C120.735 36.33 120.57 36.7542 120.535 37.1985C120.5 37.6427 120.596 38.0875 120.812 38.4774C120.484 38.6393 120.203 38.8818 119.995 39.1821C119.786 39.4825 119.658 39.8308 119.621 40.1945C119.621 40.9216 120.315 41.6295 121.018 41.4573C120.872 41.7438 120.841 42.0752 120.932 42.3836C121.023 42.6919 121.229 42.9537 121.507 43.1153C121.784 43.2769 122.114 43.326 122.427 43.2525C122.74 43.179 123.012 42.9884 123.189 42.72" fill="#263238"/>
<path d="M134.339 35.7037C134.339 35.7037 134.339 35.7037 134.339 35.7707C134.339 35.8377 134.339 35.8759 134.315 35.9572C134.265 36.1959 134.178 36.4252 134.056 36.6364C133.862 36.9674 133.596 37.2503 133.277 37.4639C132.855 37.7514 132.352 37.8941 131.842 37.8705L131.899 37.794C132.003 38.1098 131.977 38.4537 131.828 38.7506C131.669 39.0653 131.466 39.3553 131.225 39.6115C131.108 39.7609 130.974 39.8973 130.828 40.0181C130.568 40.1893 130.255 40.2626 129.946 40.2249C129.637 40.1872 129.351 40.0411 129.139 39.8124L129.269 39.7742C129.219 40.1397 129.094 40.4907 128.9 40.8046C128.706 41.1186 128.449 41.3883 128.145 41.5965C127.81 41.8452 127.404 41.9779 126.987 41.9744C126.596 41.9531 126.212 41.8674 125.849 41.7209L125.944 41.6778C125.76 42.1038 125.472 42.477 125.107 42.7636C124.941 42.9063 124.744 43.01 124.532 43.0671C124.321 43.1242 124.099 43.1333 123.883 43.0937C123.513 43.0132 123.175 42.8263 122.909 42.5561C122.644 42.2859 122.464 41.944 122.39 41.5726L122.472 41.6109C122.1 41.8036 121.673 41.8644 121.262 41.7831C120.955 41.7247 120.667 41.5952 120.42 41.4052C120.266 41.2846 120.133 41.1391 120.028 40.9747C119.989 40.9177 119.96 40.8547 119.941 40.7882C120.075 41.0081 120.249 41.2012 120.453 41.3574C120.697 41.5337 120.979 41.65 121.276 41.697C121.667 41.7709 122.071 41.7067 122.419 41.5152L122.486 41.477V41.5535C122.559 41.8992 122.73 42.2163 122.98 42.466C123.23 42.7157 123.547 42.8873 123.892 42.9597C124.09 42.9942 124.292 42.9841 124.485 42.9303C124.678 42.8765 124.856 42.7804 125.007 42.6488C125.35 42.3764 125.619 42.023 125.791 41.6204L125.82 41.5583H125.887C126.233 41.6975 126.6 41.7783 126.973 41.7974C127.358 41.8005 127.734 41.678 128.044 41.4483C128.331 41.2515 128.573 40.9972 128.756 40.7016C128.939 40.4059 129.058 40.0754 129.106 39.7311V39.5637L129.216 39.6929C129.34 39.8303 129.497 39.9352 129.671 39.9986C129.845 40.0619 130.032 40.0818 130.216 40.0564C130.387 40.0335 130.551 39.9713 130.694 39.8746C130.832 39.7633 130.957 39.6365 131.067 39.4967C131.304 39.2527 131.503 38.9756 131.66 38.674C131.731 38.5398 131.774 38.3928 131.787 38.2417C131.8 38.0906 131.783 37.9384 131.737 37.794L131.708 37.7079H131.799C132.287 37.7382 132.772 37.6089 133.181 37.3396C133.495 37.1375 133.76 36.8678 133.956 36.5503C134.133 36.293 134.262 36.0063 134.339 35.7037Z" fill="#455A64"/>
<path d="M133.746 54.262C133.717 54.1328 132.861 54.3433 132.067 53.7598C131.273 53.1762 131.143 52.2387 131.024 52.2626C130.904 52.2865 130.904 52.5114 130.99 52.8988C131.108 53.4043 131.401 53.8517 131.818 54.1615C132.216 54.4579 132.713 54.5883 133.205 54.5251C133.573 54.4677 133.765 54.3194 133.746 54.262Z" fill="#263238"/>
<path d="M160.273 188.089L163.669 199.659C163.669 199.659 176.584 200.09 177.411 202.171L155.189 209.556L149.152 191.739L160.273 188.089Z" fill="#455A64"/>
<path d="M156.485 200.983C156.293 201.12 156.158 201.322 156.106 201.551C156.054 201.781 156.089 202.021 156.203 202.227C156.331 202.424 156.531 202.564 156.759 202.618C156.988 202.672 157.229 202.637 157.432 202.519C157.635 202.374 157.778 202.159 157.832 201.915C157.885 201.671 157.847 201.416 157.724 201.199C157.568 201.007 157.344 200.883 157.099 200.853C156.854 200.822 156.606 200.888 156.408 201.036" fill="#E0E0E0"/>
<path d="M176.158 201.333C176.158 201.333 177.292 201.434 177.411 202.17L155.189 209.555L154.653 207.733L176.139 201.324" fill="#263238"/>
<path d="M163.99 199.424C164.023 199.534 163.511 199.764 163.081 200.29C162.65 200.816 162.531 201.366 162.416 201.357C162.301 201.347 162.258 200.668 162.775 200.041C163.291 199.415 163.98 199.319 163.99 199.424Z" fill="white"/>
<path d="M166.639 199.611C166.701 199.712 166.295 200.051 166.075 200.63C165.855 201.209 165.917 201.735 165.807 201.764C165.697 201.792 165.424 201.204 165.707 200.487C165.989 199.769 166.606 199.511 166.639 199.611Z" fill="white"/>
<path d="M168.893 201.96C168.802 202.017 168.472 201.525 168.553 200.841C168.634 200.157 169.06 199.745 169.137 199.822C169.213 199.898 169.003 200.3 168.945 200.884C168.888 201.467 168.998 201.903 168.893 201.96Z" fill="white"/>
<path d="M162.923 196.875C162.923 196.99 162.363 197.004 161.765 197.248C161.167 197.492 160.751 197.846 160.665 197.774C160.579 197.703 160.909 197.162 161.622 196.88C162.335 196.598 162.952 196.77 162.923 196.875Z" fill="white"/>
<path d="M108.453 188.189L103.617 199.238C103.617 199.238 113.226 207.848 112.533 209.991L90.7697 201.381L97.5952 183.856L108.453 188.189Z" fill="#455A64"/>
<path d="M97.2603 195.637C97.0262 195.618 96.7935 195.686 96.6065 195.828C96.4195 195.97 96.2913 196.176 96.2462 196.407C96.2195 196.64 96.2828 196.875 96.4232 197.063C96.5636 197.252 96.7706 197.38 97.002 197.421C97.2505 197.439 97.497 197.365 97.6946 197.214C97.8922 197.062 98.0271 196.843 98.0734 196.598C98.0734 196.12 97.6381 195.574 97.1694 195.641" fill="#E0E0E0"/>
<path d="M112.107 208.546C112.107 208.546 112.911 209.355 112.533 209.981L90.7697 201.372L91.5303 199.636L112.098 208.532" fill="#263238"/>
<path d="M104.009 199.267C103.966 199.372 103.416 199.21 102.756 199.344C102.096 199.477 101.642 199.822 101.56 199.736C101.479 199.65 101.881 199.104 102.68 198.956C103.478 198.808 104.076 199.176 104.009 199.267Z" fill="white"/>
<path d="M105.922 201.114C105.922 201.224 105.377 201.224 104.836 201.53C104.296 201.836 104.009 202.271 103.88 202.228C103.751 202.185 103.947 201.554 104.621 201.185C105.296 200.817 105.961 201.013 105.922 201.114Z" fill="white"/>
<path d="M106.143 204.356C106.037 204.356 106.1 203.754 106.621 203.28C107.142 202.807 107.712 202.768 107.721 202.874C107.731 202.979 107.3 203.17 106.894 203.567C106.487 203.964 106.253 204.39 106.143 204.356Z" fill="white"/>
<path d="M104.837 196.641C104.755 196.717 104.325 196.383 103.708 196.163C103.091 195.942 102.55 195.971 102.531 195.861C102.512 195.751 103.11 195.545 103.832 195.785C104.554 196.024 104.923 196.564 104.837 196.641Z" fill="white"/>
<path d="M116.599 127.491L108.975 158.419C108.975 158.419 95.2231 181.569 92.8937 193.154L105.473 198.1C105.473 198.1 114.623 175.786 117.307 171.692C118.514 169.857 119.902 168.148 121.449 166.589C122.455 165.591 123.176 164.342 123.539 162.973L129.312 140.908L116.599 127.491Z" fill="#263238"/>
<path d="M113.35 122.546C113.35 122.546 114.412 130.83 122.386 134.504L139.184 161.863C139.184 161.863 140.499 170.76 143.01 178.255C145.522 185.75 150.596 200.195 150.596 200.195L164.415 195.029L155.609 164.924L154.174 154.483L140.466 119.566L128.69 112.506L113.35 122.546Z" fill="#263238"/>
<path d="M113.35 122.546L113.604 122.374L114.364 121.867L117.349 119.896L128.666 112.459L128.704 112.435L128.742 112.459L140.528 119.504V119.533L154.265 154.416V154.44C154.719 157.74 155.222 161.275 155.7 164.882C158.092 173.013 160.627 181.713 163.248 190.677C163.672 192.121 164.093 193.556 164.51 194.982L164.544 195.092L164.434 195.13L150.616 200.296L150.496 200.339L150.458 200.219C148.066 193.279 145.751 186.597 143.565 180.259C143.015 178.676 142.475 177.107 142.025 175.538C141.575 173.97 141.169 172.41 140.801 170.87C140.074 167.79 139.49 164.781 139.031 161.863V161.902L122.328 134.533L122.357 134.557C120.337 133.612 118.543 132.245 117.095 130.548C116.035 129.303 115.164 127.907 114.513 126.406C114.109 125.48 113.789 124.519 113.556 123.536C113.475 123.211 113.427 122.958 113.398 122.785C113.369 122.613 113.365 122.527 113.365 122.527C113.365 122.527 113.365 122.613 113.417 122.781C113.47 122.948 113.499 123.202 113.589 123.532C113.836 124.502 114.166 125.449 114.575 126.363C115.235 127.849 116.108 129.229 117.167 130.462C118.62 132.141 120.413 133.492 122.429 134.423L139.26 161.763V161.787C139.739 164.695 140.313 167.699 141.04 170.774C141.408 172.31 141.81 173.864 142.264 175.428C142.719 176.992 143.254 178.552 143.804 180.135C146 186.473 148.31 193.155 150.711 200.09L150.553 200.018L164.372 194.853L164.295 195.001C163.881 193.576 163.46 192.141 163.032 190.696L155.494 164.896C155.016 161.289 154.509 157.755 154.059 154.454V154.483L140.375 119.566L140.413 119.609L128.647 112.535H128.718L117.402 119.939L114.388 121.881L113.613 122.384L113.35 122.546Z" fill="#455A64"/>
<path d="M120.75 63.4405C120.75 63.4405 116.723 66.54 114.767 70.0029C112.423 74.1499 112.169 80.2962 112.098 89.8433C112.026 98.6729 113.346 101.127 112.839 104.456C111.839 110.956 111.098 132.772 111.098 132.772C111.098 132.772 124.012 127.812 126.519 125.597L129.039 123.406L145.202 128.749L141.94 108.89L139.701 84.137L136.831 71.0074L136.353 65.856L122.472 60.2789L120.75 63.4405Z" fill="#455A64"/>
<path d="M135.831 65.5838C135.999 65.6173 135.434 66.7509 134.439 68.4154L134.396 68.4824L134.32 68.4537C132.918 67.9084 131.062 67.2244 129.034 66.483C126.748 65.6508 124.682 64.8759 123.204 64.2732C122.462 63.9719 121.869 63.7184 121.463 63.5318C121.247 63.4483 121.039 63.3459 120.841 63.2257C121.068 63.2763 121.289 63.3501 121.501 63.4457L123.266 64.1106L129.12 66.2486C131.148 66.99 133 67.6836 134.382 68.2767L134.267 68.315C135.31 66.6839 135.927 65.6077 135.831 65.5838Z" fill="#263238"/>
<path d="M152.534 55.2706C152.534 55.2706 151.51 53.6778 150.544 52.2094C149.578 50.741 148.114 50.0187 147.88 49.2534C147.645 48.4881 146.359 45.0778 146.153 44.2312C145.974 43.4112 145.891 42.5734 145.904 41.7344C145.904 41.7344 146.961 41.2848 147.468 42.7962C147.774 43.705 148.75 46.7901 148.961 46.9432C149.171 47.0962 149.439 46.8714 149.439 46.8714C149.005 45.7163 148.629 44.5397 148.315 43.3463C148.267 42.7867 148.463 39.075 148.463 39.075C148.725 39.0221 148.998 39.0649 149.231 39.1957C149.465 39.3264 149.644 39.5364 149.736 39.7876C150.238 40.7443 150.257 43.1358 150.257 43.1358L151.017 45.8048L150.75 43.1645L151.132 38.3097C151.504 38.3626 151.85 38.5288 152.124 38.7856C152.398 39.0423 152.586 39.3772 152.663 39.7446C152.983 41.0552 152.558 42.8823 152.773 43.2698C152.988 43.6572 153.222 46.0009 153.222 46.0009C153.222 46.0009 153.486 40.309 154.093 40.1464C154.7 39.9838 155.198 40.5864 155.112 41.7344C155.026 42.8823 155.002 45.3121 155.317 46.3836C155.633 47.455 158.871 51.645 158.608 53.4817C158.447 54.5915 158.346 55.7092 158.307 56.8299H152.758L152.534 55.2706Z" fill="#FFBF9D"/>
<path d="M133.071 69.6059C133.382 69.7255 146.636 73.0067 146.636 73.0067C146.636 73.0067 149.597 68.2236 150.032 66.8365C150.467 65.4493 152.797 56.2084 152.797 56.2084L158.398 55.6822C158.398 55.6822 156.963 79.5452 154.935 80.8319C152.907 82.1185 149.673 82.769 149.463 82.6973C149.252 82.6255 135.137 83.6061 127.7 77.7467C120.262 71.8874 133.071 69.6059 133.071 69.6059Z" fill="#FFBF9D"/>
<g opacity="0.3">
<path d="M123.572 82.2392C124.995 83.8494 126.893 84.9651 128.991 85.4248C132.507 86.1997 139.993 87.5724 139.993 87.5724L139.629 83.899L123.366 82.1579" fill="black"/>
</g>
<path d="M117.67 77.1868C118.875 79.7314 121.554 82.4483 127.442 83.0653C139.098 84.2706 147.923 84.9116 151.735 84.3376C155.547 83.7636 157.063 75.6945 157.475 75.4458C158.661 74.6996 158.584 72.1359 157.561 71.3706C154.653 69.1942 148.822 67.5441 148.43 67.721C146.11 68.8738 146.866 71.5715 146.866 71.5715L132.086 68.3094C130.384 67.6013 128.608 67.0847 126.791 66.7692" fill="#455A64"/>
<path d="M126.791 66.7693C126.791 66.7693 126.915 66.7693 127.154 66.8172C127.394 66.865 127.752 66.9224 128.211 67.0228C129.544 67.3252 130.85 67.738 132.114 68.2569L146.885 71.4711L146.76 71.6051C146.542 70.7574 146.609 69.8612 146.952 69.0557C147.141 68.6432 147.426 68.2823 147.784 68.0034C147.965 67.862 148.159 67.7371 148.363 67.6303C148.433 67.6095 148.505 67.5982 148.578 67.5968H148.755C148.875 67.5968 148.98 67.6351 149.095 67.6542C150.912 68.084 152.685 68.6846 154.389 69.4479C155.288 69.8392 156.156 70.2964 156.987 70.8159C157.192 70.9498 157.398 71.0981 157.604 71.2415C157.816 71.4032 157.99 71.6109 158.111 71.849C158.344 72.3187 158.465 72.8361 158.465 73.3605C158.477 73.8912 158.359 74.4167 158.12 74.8911C157.988 75.1357 157.802 75.3468 157.575 75.5081C157.518 75.5368 157.479 75.6611 157.432 75.7759L157.307 76.1347C156.991 77.0913 156.676 78.1149 156.293 79.1002C155.792 80.5132 155.058 81.8324 154.122 83.0032C153.782 83.4482 153.349 83.8133 152.853 84.0728C152.358 84.3323 151.811 84.4799 151.252 84.5051C150.893 84.5577 150.534 84.5673 150.18 84.596C148.745 84.6821 147.368 84.663 146.005 84.6247C144.641 84.5864 143.307 84.5147 142.011 84.4334C136.811 84.0986 132.148 83.625 128.235 83.2185C127.301 83.1366 126.371 83.0025 125.452 82.8167C124.635 82.6421 123.835 82.3989 123.06 82.0897C121.804 81.6017 120.653 80.8775 119.669 79.9564C119.055 79.3686 118.527 78.6971 118.1 77.9618C117.947 77.7095 117.814 77.4456 117.703 77.1726C117.703 77.1726 117.837 77.4453 118.143 77.9379C118.585 78.6548 119.121 79.3095 119.736 79.8846C120.719 80.7858 121.865 81.4904 123.113 81.9605C123.889 82.2601 124.689 82.4953 125.504 82.6636C126.421 82.8395 127.348 82.9656 128.278 83.0415C132.191 83.4289 136.855 83.8833 142.044 84.2086C143.345 84.2851 144.675 84.3521 146.033 84.3856C147.392 84.419 148.784 84.4382 150.19 84.3569C150.539 84.3234 150.898 84.3138 151.247 84.2612C151.595 84.2428 151.94 84.1768 152.271 84.0651C152.931 83.8102 153.515 83.3883 153.964 82.8406C154.88 81.6924 155.598 80.3991 156.087 79.0141C156.47 78.0575 156.781 77.0483 157.097 76.0629L157.231 75.6898C157.231 75.6325 157.278 75.5703 157.307 75.5033C157.325 75.4664 157.345 75.4312 157.369 75.3981C157.388 75.375 157.408 75.3542 157.432 75.3359L157.465 75.3072C157.663 75.1698 157.827 74.988 157.943 74.7763C158.167 74.3319 158.275 73.8385 158.259 73.3413C158.26 72.8574 158.151 72.3796 157.939 71.9447C157.834 71.7393 157.685 71.5596 157.503 71.4185C157.298 71.2798 157.101 71.1315 156.896 71.0024C156.077 70.4867 155.22 70.0342 154.332 69.6488C152.646 68.8889 150.893 68.2899 149.095 67.8599C148.985 67.8599 148.875 67.8121 148.769 67.8025H148.611H148.506C148.318 67.9031 148.139 68.0199 147.971 68.1517C147.637 68.403 147.37 68.7312 147.191 69.1083C146.874 69.8649 146.809 70.7033 147.004 71.4998L147.047 71.6672L146.88 71.629L132.134 68.3286C130.881 67.8015 129.588 67.3729 128.269 67.0468C127.791 66.9367 127.46 66.8602 127.221 66.8124C126.982 66.7646 126.791 66.7693 126.791 66.7693Z" fill="#263238"/>
<path d="M151.735 76.1878C151.395 76.1036 151.072 75.9629 150.779 75.7717C150.045 75.3626 149.37 74.8575 148.77 74.2698C148.167 73.6843 147.64 73.0255 147.201 72.3087C147.001 72.015 146.848 71.6924 146.746 71.3521C147.402 72.3182 148.136 73.2285 148.942 74.0737C149.808 74.8605 150.743 75.568 151.735 76.1878Z" fill="#263238"/>
<path d="M47.6735 115.581C47.6735 115.581 50.6391 115.739 52.4567 116.892C54.2742 118.045 57.2398 119.824 58.4595 122.043C59.0191 123.062 57.4263 123.277 56.6419 122.684C55.8574 122.091 54.6473 120.982 54.0494 120.843L53.4515 120.709C53.9967 121.943 54.6049 123.148 55.2739 124.32C55.8909 125.277 56.4266 126.865 54.5756 126.941C54.5756 126.941 53.3224 128.568 52.0597 127.362C52.0597 127.362 51.0743 128.835 49.4863 126.793C49.4863 126.793 48.5632 127.96 48.1758 127.515C47.7883 127.071 46.5256 126.358 46.1573 124.894C45.6077 123.189 44.9691 121.515 44.244 119.877L47.6735 115.581Z" fill="#FFBF9D"/>
<path d="M22.4377 76.5846C20.9176 77.0741 19.6056 78.0593 18.7117 79.3827C17.5733 81.1333 17.2241 84.1658 17.5494 86.4234C18.2382 91.1826 20.4193 99.2135 21.6485 104.37C22.0694 106.149 22.9352 109.335 25.475 111.023L43.5982 121.89L48.4435 114.716L31.9226 101.251L28.6558 82.7978L22.4377 76.5846Z" fill="#455A64"/>
<path d="M19.3055 94.7225C19.3303 94.7828 19.3495 94.8452 19.3629 94.909L19.5159 95.4686C19.6451 95.9757 19.8268 96.7027 20.066 97.6354C20.5443 99.5486 21.2235 102.265 22.0701 105.647C22.5616 107.489 23.6027 109.138 25.0548 110.373C25.8842 111.037 26.771 111.626 27.7046 112.133L30.6175 113.893L43.6707 121.776L43.5032 121.814L45.2491 119.226L48.3485 114.62L48.3725 114.788L31.9998 101.304H31.9711V101.271C30.8902 96.7218 30.1057 92.9958 29.6083 90.4033C29.3643 89.1071 29.1922 88.0979 29.0821 87.4091C29.0343 87.0743 28.9961 86.8112 28.9674 86.6247C28.9387 86.4381 28.9339 86.3568 28.9339 86.3568C28.9598 86.4432 28.9806 86.531 28.996 86.6199C29.0295 86.8064 29.0774 87.0647 29.1348 87.3995C29.2639 88.0835 29.4504 89.0928 29.7183 90.3842C30.2397 92.9671 31.0528 96.6836 32.1577 101.228L32.1242 101.175L48.5255 114.596L48.6116 114.668L48.5494 114.759L45.45 119.365L43.7041 121.953L43.642 122.048L43.5367 121.991L30.5027 114.085L27.5946 112.32C26.6548 111.807 25.7617 111.213 24.9256 110.545C23.4485 109.28 22.395 107.592 21.9075 105.709C21.0896 102.318 20.4343 99.5773 19.9942 97.6784C19.779 96.7218 19.6068 96.0091 19.4872 95.5021L19.3485 94.9138C19.3297 94.8511 19.3153 94.7872 19.3055 94.7225Z" fill="#263238"/>
<path d="M19.6013 79.1349C19.7138 79.061 19.8385 79.0075 19.9696 78.977C20.3168 78.8698 20.6718 78.7898 21.0315 78.7379C22.2312 78.5529 23.4588 78.719 24.5662 79.2162C25.6365 79.7742 26.5456 80.5977 27.2065 81.6077C27.4069 81.913 27.5676 82.2425 27.6848 82.5883C27.7361 82.7113 27.7653 82.8425 27.7709 82.9757C27.5642 82.5366 27.326 82.113 27.0582 81.7082C26.3774 80.7656 25.4865 79.9943 24.4562 79.4553C23.3875 78.9817 22.2124 78.8002 21.0506 78.9292C20.1562 79.0009 19.6157 79.1779 19.6013 79.1349Z" fill="#263238"/>
</svg>
