<svg width="38" height="8" viewBox="0 0 38 8" fill="none" xmlns="http://www.w3.org/2000/svg">
<path d="M6.27258 6.98551H6.2277H6.18283C4.56729 7.14257 2.95175 7.14257 1.33621 6.98551C1.13427 6.78357 0.865015 6.89576 0.640634 6.87332C0.438692 6.85088 0.214316 6.91819 0.0348117 6.76113C-0.0773784 6.49187 0.10212 6.44699 0.281625 6.42456C0.461129 6.40212 0.640637 6.44699 0.797703 6.31237C0.820141 6.31237 0.865016 6.31237 0.887454 6.31237C1.11183 6.1553 1.35866 6.24505 1.60547 6.22261C1.80742 6.20017 2.03179 6.28993 2.2113 6.11042C2.48055 5.88604 2.83956 6.13286 3.10882 5.90848C4.07365 5.57191 5.06093 5.28021 6.00332 4.85389C7.43936 4.22562 8.71833 3.30566 10.0646 2.52033C11.6128 1.62281 13.1611 0.770159 14.9337 0.388711C16.0556 0.141892 17.1775 -0.0824862 18.2994 0.0297042C19.6905 0.186771 21.0817 0.411149 22.4055 0.949663C24.3801 1.75743 26.1302 2.96909 27.9926 4.00124C29.3164 4.71926 30.73 5.28021 32.1885 5.70653C33.445 6.06554 34.7016 6.26749 36.003 6.40212C36.6537 6.46943 37.3493 6.46943 38 6.64894C37.4614 6.73869 36.9454 6.91819 36.3844 7.00794C35.083 7.23233 33.7816 7.25476 32.4802 7.18745C30.6403 7.0977 28.8228 6.78356 27.0502 6.1553C25.5693 5.61678 24.1108 5.01096 22.6523 4.40513C20.6778 3.59736 18.6135 3.5076 16.5268 3.75442C15.5395 3.86661 14.5522 4.24806 13.6323 4.62951C11.8372 5.36997 10.0422 6.13286 8.20225 6.71625C7.97787 6.78356 7.73105 6.76113 7.50667 6.78356C7.10279 7.03038 6.63159 6.71625 6.27258 6.98551Z" fill="#4198F7"/>
</svg>
