<svg width="24" height="24" viewBox="0 0 24 24" fill="none" xmlns="http://www.w3.org/2000/svg">
<path fill-rule="evenodd" clip-rule="evenodd" d="M6.92234 5.65546C7.11263 5.85558 7.10466 6.17206 6.90454 6.36234L5.19144 7.99129H15.26C18.2721 7.99129 20.76 10.3217 20.76 13.2456C20.76 16.1696 18.2721 18.5 15.26 18.5H7.26C6.98386 18.5 6.76 18.2761 6.76 18C6.76 17.7239 6.98386 17.5 7.26 17.5H15.26C17.7679 17.5 19.76 15.5705 19.76 13.2456C19.76 10.9208 17.7679 8.99129 15.26 8.99129H5.31144L6.90454 10.5061C7.10466 10.6964 7.11263 11.0129 6.92234 11.213C6.73206 11.4131 6.41558 11.4211 6.21546 11.2308L3.65546 8.79657C3.55619 8.70219 3.5 8.57121 3.5 8.43423C3.5 8.29726 3.55619 8.16628 3.65546 8.07189L6.21546 5.63766C6.41558 5.44737 6.73206 5.45534 6.92234 5.65546Z" fill="black"/>
</svg>
