<svg width="24" height="24" viewBox="0 0 24 24" fill="none" xmlns="http://www.w3.org/2000/svg">
<path d="M14.0743 17.0499L17.0872 15.2957C20.9709 13.0437 20.9709 9.34561 17.0872 7.09359L14.0743 5.33938L11.0614 3.58517C7.17764 1.33315 4 3.15848 4 7.68623V11.1946V14.7031" stroke="black" stroke-width="1.2" stroke-miterlimit="10" stroke-linecap="round" stroke-linejoin="round"/>
<path d="M9.10588 17V14C9.10588 13.8409 9.17095 13.6883 9.28678 13.5757C9.40261 13.4632 9.55971 13.4 9.72352 13.4C9.88733 13.4 10.0444 13.4632 10.1603 13.5757C10.2761 13.6883 10.3412 13.8409 10.3412 14V17.4L10.9465 16.812C11.0677 16.6944 11.226 16.6194 11.396 16.5991C11.5661 16.5788 11.7383 16.6143 11.8853 16.7C12.0233 16.7804 12.1235 16.9098 12.1647 17.0609C12.2059 17.2119 12.1849 17.3726 12.106 17.5088C11.3323 18.8448 10.8814 19.6084 10.7529 19.8L10.6722 19.92C10.4472 20.2519 10.1408 20.5244 9.7806 20.7129C9.42039 20.9014 9.01762 21.0001 8.60846 21H8.69411H7.87058C7.21534 21 6.58694 20.7471 6.12361 20.2971C5.66029 19.847 5.39999 19.2365 5.39999 18.6V16.8C5.39999 16.6409 5.46507 16.4883 5.5809 16.3757C5.69673 16.2632 5.85383 16.2 6.01764 16.2C6.18145 16.2 6.33855 16.2632 6.45438 16.3757C6.57021 16.4883 6.63529 16.6409 6.63529 16.8M9.10588 16.8V16C9.10588 15.8409 9.0408 15.6883 8.92497 15.5757C8.80914 15.4632 8.65204 15.4 8.48823 15.4C8.32442 15.4 8.16732 15.4632 8.05149 15.5757C7.93566 15.6883 7.87058 15.8409 7.87058 16V17M7.87058 16.4C7.87058 16.2409 7.80551 16.0883 7.68968 15.9757C7.57385 15.8632 7.41675 15.8 7.25294 15.8C7.08913 15.8 6.93202 15.8632 6.81619 15.9757C6.70036 16.0883 6.63529 16.2409 6.63529 16.4V17M11.5765 13.4L11.9882 13M11.9882 15H12.4M7.87058 13.4L7.45882 13M7.45882 14.6H7.04705" stroke="black" stroke-width="0.8" stroke-linecap="round" stroke-linejoin="round"/>
</svg>
