<svg width="6" height="7" viewBox="0 0 6 7" fill="none" xmlns="http://www.w3.org/2000/svg">
<path d="M5.72171 7.00024C4.98359 6.76213 4.24548 6.57165 3.50736 6.38117C2.88829 6.23831 2.34066 6.04783 2.12636 5.524C1.7454 4.61921 1.17395 3.85727 0.816797 2.95248C0.483453 2.14293 0.197724 1.35719 0.0072413 0.500019C-0.0403793 0.261915 0.150103 0 0.483447 0C0.626309 0 0.792987 0.0238089 0.935848 0.0952399C1.38824 0.309533 1.86444 0.547639 2.38827 0.500019C2.55494 0.476208 2.6978 0.500017 2.74542 0.71431C2.84067 1.45243 3.24544 2.09531 3.62641 2.71438C4.26929 3.73822 4.74549 4.8335 5.29313 5.88115C5.41218 6.11926 5.53123 6.35736 5.69791 6.57166C5.76934 6.71452 5.86457 6.85738 5.72171 7.00024Z" fill="#1A5184"/>
</svg>
