<svg width="9" height="13" viewBox="0 0 9 13" fill="none" xmlns="http://www.w3.org/2000/svg">
<path d="M5.62655 0C5.58117 0.521819 5.80805 0.930199 6.10299 1.33858C6.71556 2.24609 7.10125 3.28973 7.44157 4.33336C7.9407 5.92151 8.21295 7.55503 8.41714 9.21123C8.55327 10.3683 8.48521 11.5027 8.53058 12.6598C8.53058 12.7959 8.57595 12.9774 8.34908 13.0001C8.39445 12.206 8.21295 11.4346 8.07683 10.6859C7.89533 9.80111 7.7592 8.8936 7.50963 7.98609C7.10126 6.4887 6.44331 5.12743 5.8988 3.69811C5.85343 3.58467 5.80805 3.49392 5.67193 3.49392C5.55849 2.99479 5.44505 2.94941 5.12742 3.28973C4.51486 3.97036 3.83422 4.56024 2.97209 4.92324C2.63178 5.05937 2.26877 5.15012 1.90577 5.26356C1.45201 5.49044 0.975567 5.377 0.499126 5.33162C0.15881 5.30894 0 4.96862 0 4.62831C0 4.2653 0.272251 4.24261 0.544504 4.24261C0.703318 4.24261 0.884821 4.24261 1.02095 4.15186C1.76964 4.12917 2.38221 3.72079 2.99477 3.35779C4.08378 2.67716 4.74173 1.63352 5.37698 0.567194C5.49042 0.385692 5.26355 0.0680633 5.62655 0Z" fill="#4391E2"/>
</svg>
