<svg width="15" height="15" viewBox="0 0 15 15" fill="none" xmlns="http://www.w3.org/2000/svg">
<path d="M7.35504 0C8.68572 3.83416 11.2569 6.24743 14.888 7.62322C12.2267 8.61559 10.1066 10.1267 8.64061 12.4723C8.23464 13.1264 7.87378 13.8255 7.64824 14.5924C7.60314 14.7503 7.49037 14.9758 7.3776 14.9983C7.21972 15.0209 7.1295 14.7954 7.06184 14.6375C6.04692 12.0212 4.31027 10.0139 1.87446 8.63815C1.33316 8.34494 0.791872 8.05174 0.228025 7.75854C0.115256 7.71343 -0.0200672 7.71343 0.00248663 7.533C0.0250405 7.35257 0.160364 7.37512 0.250579 7.30746C1.31061 6.81128 2.37064 6.31509 3.29535 5.57081C4.96433 4.24013 6.22735 2.61625 7.0844 0.654062C7.1295 0.563846 7.19717 0.473631 7.24227 0.383416C7.26483 0.360862 7.26483 0.248093 7.35504 0Z" fill="white"/>
</svg>
