<svg width="24" height="24" viewBox="0 0 24 24" fill="none" xmlns="http://www.w3.org/2000/svg">
<path fill-rule="evenodd" clip-rule="evenodd" d="M7.71403 4.60039C7.4774 4.60039 7.25234 4.61813 7.03827 4.65271L7.02097 4.65525C5.94886 4.79651 5.09368 5.2802 4.50244 6.00854C3.90849 6.74022 3.55207 7.75538 3.55207 9.00039V12.0469C4.20959 11.6373 4.98022 11.4009 5.80947 11.4009C8.27287 11.4009 10.219 13.4874 10.219 16.0009C10.219 16.8549 9.99199 17.6676 9.58764 18.3586C9.57983 18.3725 9.57195 18.3865 9.56399 18.4004H17.2379C18.5211 18.4004 19.5481 17.9547 20.2559 17.2116C20.9488 16.484 21.3786 15.4257 21.3991 14.1004H19.1427C17.7365 14.1004 16.6379 12.9038 16.6379 11.5004C16.6379 10.0969 17.7365 8.90039 19.1427 8.90039H21.3991C21.3803 7.69236 21.021 6.70564 20.434 5.99135C19.8334 5.26068 18.9654 4.77853 17.8795 4.64596C17.8692 4.6447 17.859 4.64318 17.8488 4.6414C17.6706 4.61021 17.4726 4.60039 17.2379 4.60039H7.71403ZM21.3999 10.1004H19.1427C18.4537 10.1004 17.8379 10.7038 17.8379 11.5004C17.8379 12.2969 18.4537 12.9004 19.1427 12.9004H21.3999V10.1004ZM22.5999 9.00039C22.5999 7.51403 22.1674 6.21053 21.361 5.22941C20.555 4.24867 19.4047 3.62678 18.04 3.45665C17.7663 3.41017 17.4937 3.40039 17.2379 3.40039H7.71403C7.42037 3.40039 7.13404 3.42219 6.85559 3.46667C5.50289 3.64692 4.36596 4.27265 3.57077 5.25224C2.77661 6.23056 2.35207 7.5254 2.35207 9.00039V13.1453C1.75431 13.9335 1.3999 14.9283 1.3999 16.0009C1.3999 16.8558 1.62742 17.6692 2.03256 18.3607C2.78783 19.6907 4.18696 20.6009 5.80947 20.6009C6.85382 20.6009 7.80562 20.2238 8.55274 19.6004H17.2379C18.8119 19.6004 20.1659 19.046 21.1248 18.0392C22.0813 17.035 22.5999 15.6282 22.5999 14.0004V9.00039ZM8.2194 18.2399C8.12527 18.3524 8.02411 18.4562 7.9175 18.5501C7.88971 18.5746 7.86461 18.6012 7.84229 18.6296C7.28918 19.1134 6.57995 19.4009 5.80947 19.4009C4.65265 19.4009 3.63391 18.7529 3.07434 17.7651L3.06966 17.757C2.7715 17.2494 2.5999 16.6443 2.5999 16.0009C2.5999 15.1509 2.8908 14.3829 3.36795 13.7929C3.38335 13.7781 3.39807 13.7623 3.41203 13.7457C3.75927 13.3311 4.19798 13.0084 4.69373 12.8128C5.0427 12.6756 5.41902 12.6009 5.80947 12.6009C7.55564 12.6009 9.01903 14.0943 9.01903 16.0009C9.01903 16.6443 8.84743 17.2494 8.54928 17.757L8.5446 17.7651C8.44905 17.9338 8.34012 18.0925 8.2194 18.2399ZM7.11425 8.00088C7.11425 7.66951 7.38288 7.40088 7.71425 7.40088H13.4286C13.76 7.40088 14.0286 7.66951 14.0286 8.00088C14.0286 8.33225 13.76 8.60088 13.4286 8.60088H7.71425C7.38288 8.60088 7.11425 8.33225 7.11425 8.00088ZM5.80925 13.9204C6.14062 13.9204 6.40925 14.189 6.40925 14.5204V15.3804H7.22831C7.55968 15.3804 7.82831 15.649 7.82831 15.9804C7.82831 16.3117 7.55968 16.5804 7.22831 16.5804H6.40925V17.5104C6.40925 17.8418 6.14062 18.1104 5.80925 18.1104C5.47787 18.1104 5.20925 17.8418 5.20925 17.5104V16.5804H4.39018C4.05881 16.5804 3.79018 16.3117 3.79018 15.9804C3.79018 15.649 4.05881 15.3804 4.39018 15.3804H5.20925V14.5204C5.20925 14.189 5.47787 13.9204 5.80925 13.9204Z" fill="#080450"/>
</svg>
