<svg width="5" height="7" viewBox="0 0 5 7" fill="none" xmlns="http://www.w3.org/2000/svg">
<path d="M3.4473 6.71136C2.63245 5.56549 2.17411 4.24137 1.46112 3.04457C0.977312 2.22973 0.544431 1.38942 0.111546 0.549115C-0.0157726 0.31994 -0.0921655 0.141696 0.2134 0.0143768C0.289791 0.0143768 0.366181 0.0143744 0.442572 0.0398383C0.849993 0.218085 1.28288 0.218085 1.71576 0.0398383C2.35236 0.0143744 3.09081 -0.189334 3.37091 0.650973C3.49823 1.05839 3.57462 1.46581 3.67648 1.87323C3.82926 2.63715 4.16029 3.3756 4.28761 4.13952C4.41492 4.8525 4.66956 5.54003 4.66956 6.27848C4.69503 6.966 4.44039 7.14425 3.80379 6.88961C3.70194 6.86415 3.60008 6.71136 3.4473 6.71136Z" fill="#2F9DF1"/>
</svg>
