<svg width="24" height="24" viewBox="0 0 24 24" fill="none" xmlns="http://www.w3.org/2000/svg">
<path d="M12 13C9.24348 13 7 10.7565 7 8C7 5.24348 9.24348 3 12 3C14.7565 3 17 5.24348 17 8C17 10.7565 14.7565 13 12 13ZM12 4.30435C9.96522 4.30435 8.30435 5.96522 8.30435 8C8.30435 10.0348 9.96522 11.6957 12 11.6957C14.0348 11.6957 15.6957 10.0348 15.6957 8C15.6957 5.96522 14.0348 4.30435 12 4.30435Z" fill="#E9E9F2"/>
<path d="M19.3576 21C19.0064 21 18.7152 20.72 18.7152 20.3824C18.7152 17.5412 15.7002 15.2353 12 15.2353C8.29978 15.2353 5.2848 17.5412 5.2848 20.3824C5.2848 20.72 4.99358 21 4.6424 21C4.29122 21 4 20.72 4 20.3824C4 16.8659 7.58886 14 12 14C16.4111 14 20 16.8659 20 20.3824C20 20.72 19.7088 21 19.3576 21Z" fill="#E9E9F2"/>
</svg>
