<svg width="5" height="2" viewBox="0 0 5 2" fill="none" xmlns="http://www.w3.org/2000/svg">
<path d="M3.54834 0.602467C3.50252 0.83155 3.31926 0.785732 3.1589 0.80864C2.95272 0.831548 2.63201 0.717006 2.67782 1.08354C2.70073 1.38135 2.81528 1.70206 3.22763 1.70206C3.63997 1.70206 4.02941 1.70206 4.44176 1.70206C4.0065 2.16023 3.4338 1.97696 2.99854 1.88533C1.96767 1.70206 1.00553 1.31262 0.249554 0.533741C0.180829 0.465016 0.0891908 0.373382 0.0433743 0.281748C-0.00244223 0.213023 -0.0253505 0.0984841 0.0433743 0.0297592C0.112099 -0.0389656 0.180828 0.0297572 0.226644 0.0526654C1.28042 0.579556 2.40293 0.671191 3.54834 0.602467Z" fill="#265B92"/>
</svg>
