<svg width="18" height="5" viewBox="0 0 18 5" fill="none" xmlns="http://www.w3.org/2000/svg">
<path d="M0 0.0604249C0.426621 -0.119205 0.71852 0.150241 1.01042 0.240056C2.35764 0.666678 3.70487 1.04839 5.05209 1.43011C6.0176 1.69955 7.02802 1.90164 8.06089 1.969C9.00395 2.03636 9.92455 2.19354 10.8676 2.14863C12.7313 2.08127 14.55 1.76691 16.3014 1.11575C16.8628 0.913668 17.3792 0.666676 17.9855 0.442139C17.9855 1.3852 18.0304 2.30581 17.963 3.22641C17.9405 3.60813 17.469 3.72039 17.1771 3.83266C16.0544 4.28174 14.9317 4.641 13.7192 4.82063C12.7088 4.9778 11.6984 5.02271 10.688 4.95535C9.09377 4.86554 7.54446 4.55118 6.04006 3.94493C4.37848 3.27132 2.98635 2.21599 1.57176 1.20557C1.05533 0.868763 0.53889 0.487047 0 0.0604249Z" fill="#4198F7"/>
</svg>
