<svg width="7" height="2" viewBox="0 0 7 2" fill="none" xmlns="http://www.w3.org/2000/svg">
<path d="M1.9786 1.83634C1.39003 1.45965 0.77791 1.10651 0.000999363 1.29485C-0.0225434 1.01234 0.377685 0.965256 0.377685 0.682742C0.683741 0.517942 0.966255 0.306057 1.34294 0.235428C1.41357 0.58857 1.74316 0.494398 1.88442 0.423769C2.7555 0.0706273 3.65013 0.258971 4.54476 0.235428C5.03915 0.211885 5.51001 0 5.98087 0C6.21629 0 6.45172 -7.19171e-07 6.66361 0.0470849C6.78132 0.0706277 6.94612 0.211886 6.9932 0.3296C7.04029 0.494399 6.8284 0.612112 6.71069 0.635655C6.19275 0.729826 6.0044 1.41257 5.43938 1.36548C5.36875 1.20068 5.76898 1.08297 5.53355 0.941712C5.32166 0.823998 5.15687 0.941713 5.01561 1.1536C4.85081 1.43611 4.63893 1.648 4.28579 1.57737C3.95619 1.29485 3.62659 1.55382 3.32053 1.60091C3.03802 1.648 2.77905 1.76571 2.49653 1.85988C2.30819 1.95405 2.11985 2.02468 1.9786 1.83634Z" fill="#5BA6F2"/>
</svg>
