<svg width="22" height="22" viewBox="0 0 22 22" fill="none" xmlns="http://www.w3.org/2000/svg">
<path fill-rule="evenodd" clip-rule="evenodd" d="M7.33346 1.2373C7.66253 1.2373 7.9293 1.50407 7.9293 1.83314V2.6123H14.071V1.83314C14.071 1.50407 14.3377 1.2373 14.6668 1.2373C14.9959 1.2373 15.2626 1.50407 15.2626 1.83314V2.63318C16.6934 2.73624 17.8152 3.21984 18.5982 4.06312C19.4795 5.01216 19.846 6.32513 19.846 7.79147V15.5831C19.846 17.0495 19.4795 18.3624 18.5982 19.3115C17.7095 20.2685 16.3845 20.7623 14.6668 20.7623H7.33346C5.61573 20.7623 4.29073 20.2685 3.40205 19.3115C2.52079 18.3624 2.1543 17.0495 2.1543 15.5831V7.79147C2.1543 6.32513 2.52079 5.01216 3.40205 4.06312C4.18509 3.21984 5.30689 2.73624 6.73763 2.63318V1.83314C6.73763 1.50407 7.00439 1.2373 7.33346 1.2373ZM6.73763 3.82831C5.5793 3.92681 4.79205 4.31748 4.27529 4.87399C3.67568 5.51972 3.35522 6.47982 3.34616 7.73647H18.6541C18.645 6.47982 18.3246 5.51972 17.725 4.87399C17.2082 4.31748 16.421 3.92681 15.2626 3.82831V4.58314C15.2626 4.91221 14.9959 5.17897 14.6668 5.17897C14.3377 5.17897 14.071 4.91221 14.071 4.58314V3.80397H7.9293V4.58314C7.9293 4.91221 7.66253 5.17897 7.33346 5.17897C7.00439 5.17897 6.73763 4.91221 6.73763 4.58314V3.82831ZM18.6543 8.92813H3.34596V15.5831C3.34596 16.8668 3.66697 17.8455 4.27529 18.5006C4.8762 19.1477 5.84286 19.5706 7.33346 19.5706H14.6668C16.1574 19.5706 17.1241 19.1477 17.725 18.5006C18.3333 17.8455 18.6543 16.8668 18.6543 15.5831V8.92813ZM7.00742 12.5581C7.00742 12.2291 7.27418 11.9623 7.60325 11.9623H7.61148C7.94055 11.9623 8.20732 12.2291 8.20732 12.5581C8.20732 12.8872 7.94055 13.154 7.61148 13.154H7.60325C7.27418 13.154 7.00742 12.8872 7.00742 12.5581ZM10.4002 12.5581C10.4002 12.2291 10.6669 11.9623 10.996 11.9623H11.0042C11.3333 11.9623 11.6001 12.2291 11.6001 12.5581C11.6001 12.8872 11.3333 13.154 11.0042 13.154H10.996C10.6669 13.154 10.4002 12.8872 10.4002 12.5581ZM13.7911 12.5581C13.7911 12.2291 14.0579 11.9623 14.3869 11.9623H14.3952C14.7242 11.9623 14.991 12.2291 14.991 12.5581C14.991 12.8872 14.7242 13.154 14.3952 13.154H14.3869C14.0579 13.154 13.7911 12.8872 13.7911 12.5581ZM7.00742 15.3081C7.00742 14.9791 7.27418 14.7123 7.60325 14.7123H7.61148C7.94055 14.7123 8.20732 14.9791 8.20732 15.3081C8.20732 15.6372 7.94055 15.904 7.61148 15.904H7.60325C7.27418 15.904 7.00742 15.6372 7.00742 15.3081ZM10.4002 15.3081C10.4002 14.9791 10.6669 14.7123 10.996 14.7123H11.0042C11.3333 14.7123 11.6001 14.9791 11.6001 15.3081C11.6001 15.6372 11.3333 15.904 11.0042 15.904H10.996C10.6669 15.904 10.4002 15.6372 10.4002 15.3081ZM13.7911 15.3081C13.7911 14.9791 14.0579 14.7123 14.3869 14.7123H14.3952C14.7242 14.7123 14.991 14.9791 14.991 15.3081C14.991 15.6372 14.7242 15.904 14.3952 15.904H14.3869C14.0579 15.904 13.7911 15.6372 13.7911 15.3081Z" fill="#BBBBBB"/>
</svg>
