<svg width="24" height="24" viewBox="0 0 24 24" fill="none" xmlns="http://www.w3.org/2000/svg">
<path d="M11.75 22.49C11.05 22.49 10.34 22.22 9.81 21.69L8.1 20C7.68 19.58 7.1 19.35 6.51 19.35H5.75C3.68 19.35 2 17.68 2 15.63V4.72C2 2.67 3.68 1 5.75 1H17.75C19.82 1 21.5 2.67 21.5 4.72V15.63C21.5 17.68 19.82 19.35 17.75 19.35H16.99C16.3959 19.3532 15.8262 19.5861 15.4 20L13.69 21.69C13.16 22.22 12.45 22.49 11.75 22.49ZM5.75 2.49C4.51 2.49 3.5 3.49 3.5 4.71V15.62C3.5 16.85 4.51 17.84 5.75 17.84H6.51C7.5 17.84 8.46 18.24 9.16 18.93L10.87 20.62C11.36 21.1 12.15 21.1 12.64 20.62L14.35 18.93C15.05 18.24 16.01 17.84 17 17.84H17.75C18.99 17.84 20 16.84 20 15.62V4.71C20 3.48 18.99 2.49 17.75 2.49H5.75Z" fill="#292D32"/>
<path d="M11.75 10.4897C10.05 10.4897 8.67004 9.10973 8.67004 7.40973C8.69052 6.60646 9.024 5.84296 9.59938 5.28205C10.1748 4.72115 10.9465 4.40723 11.75 4.40723C12.5536 4.40723 13.3253 4.72115 13.9007 5.28205C14.4761 5.84296 14.8096 6.60646 14.83 7.40973C14.83 9.10973 13.45 10.4897 11.75 10.4897ZM11.75 5.82973C10.88 5.82973 10.17 6.53973 10.17 7.40973C10.17 8.27973 10.88 8.98973 11.75 8.98973C12.62 8.98973 13.33 8.27973 13.33 7.40973C13.33 6.53973 12.62 5.82973 11.75 5.82973Z" fill="#292D32"/>
<path d="M15.75 16.1496C15.34 16.1496 15 15.8096 15 15.3996C15 14.0196 13.54 12.8896 11.75 12.8896C9.96 12.8896 8.5 14.0196 8.5 15.3996C8.5 15.8096 8.16 16.1496 7.75 16.1496C7.34 16.1496 7 15.8096 7 15.3996C7 13.1896 9.13 11.3896 11.75 11.3896C14.37 11.3896 16.5 13.1896 16.5 15.3996C16.5 15.8096 16.16 16.1496 15.75 16.1496Z" fill="#292D32"/>
</svg>
