<svg width="39" height="10" viewBox="0 0 39 10" fill="none" xmlns="http://www.w3.org/2000/svg">
<path d="M22.4686 3.95787C22.3356 3.95787 22.2027 3.93571 22.0476 3.93571C21.6709 3.73628 21.2499 3.84708 20.851 3.84708C20.3192 3.86924 19.7653 3.73628 19.2335 3.93571C18.1255 4.06866 17.0619 4.42319 16.0426 4.86636C14.4029 5.59759 12.8297 6.43961 11.1678 7.10436C10.2815 7.4589 9.32867 7.68048 8.3537 7.85775C6.51456 8.21228 4.67541 8.07933 2.83627 7.9907C1.99425 7.96854 1.13008 7.7248 0.332375 7.37026C0.0886334 7.25947 0 7.0822 0 6.8163C0 6.19587 0.0221584 5.55327 0 4.93284C0 4.60046 0.13295 4.51183 0.421009 4.55614C1.28518 4.6891 2.1272 4.88852 2.99138 4.955C4.03282 5.02147 5.07426 5.04363 6.11571 4.955C7.20147 4.86636 8.26507 4.5783 9.30651 4.22377C11.5223 3.47038 13.4501 2.09656 15.5773 1.18807C16.6188 0.744901 17.7045 0.368207 18.8568 0.168781C19.7653 0.0358305 20.6737 -0.030644 21.5822 0.0136728C23.3327 0.124465 24.9946 0.589793 26.59 1.36534C28.407 2.25167 29.9138 3.49254 31.4427 4.75557C32.9495 5.99644 34.5227 7.12652 36.3175 7.90207C36.8493 8.12365 37.4255 8.2566 37.9794 8.41171C38.1567 8.58897 38.4447 8.43387 38.6442 8.61113C38.7328 8.74408 39.0209 8.72193 38.9987 8.94351C38.9544 9.29804 38.5555 9.07646 38.4226 9.25373C38.3561 9.25373 38.2896 9.25373 38.2232 9.27588C38.0459 9.40884 37.8465 9.36452 37.647 9.36452C36.805 9.36452 35.9408 9.36452 35.0988 9.36452C34.8994 9.36452 34.7 9.38668 34.5227 9.27588C34.3898 9.27588 34.2568 9.25373 34.1017 9.25373C33.8358 9.03214 33.4813 9.27588 33.2375 9.0543C33.0603 8.85488 32.7722 9.03214 32.5728 8.85487C31.3762 8.56681 30.3126 7.9907 29.2933 7.3481C27.8309 6.43961 26.5014 5.30953 24.8838 4.66694C24.3742 4.46751 23.8424 4.26809 23.3106 4.06866C23.089 3.93571 22.7345 4.17945 22.4686 3.95787Z" fill="#3E97F8"/>
</svg>
