<svg width="5" height="8" viewBox="0 0 5 8" fill="none" xmlns="http://www.w3.org/2000/svg">
<path d="M1.32366 0C1.41459 0.59107 1.11906 1.13667 1.02812 1.70501C0.868991 2.50068 0.709857 3.29635 1.14179 4.02382C1.64193 4.84222 1.892 5.7743 2.41486 6.56997C2.61946 6.8655 2.7786 7.2065 2.9832 7.50204C3.256 7.88851 3.6652 7.75211 4.05166 7.75211C4.18806 7.75211 4.30173 7.75211 4.43813 7.75211C4.39267 7.93397 4.25627 7.95671 4.09713 7.97944C2.96046 8.04764 1.86926 7.97944 0.937193 7.22924C0.527992 6.91097 0.186988 6.50177 0.209721 5.93343C0.232455 5.61516 -0.0403447 5.36509 0.00512207 5.09229C0.118789 4.52396 0.164252 3.95562 0.277919 3.38728C0.437052 2.59161 0.664388 1.81868 0.868988 1.04574C0.982655 0.682005 0.982655 0.272801 1.32366 0Z" fill="#12548E"/>
</svg>
