<svg width="20" height="20" viewBox="0 0 20 20" fill="none" xmlns="http://www.w3.org/2000/svg">
<g id="Frame">
<path id="Vector" d="M5.15248 13.6503H2.45059C2.33116 13.6503 2.21662 13.6977 2.13217 13.7821C2.04772 13.8666 2.00027 13.9811 2.00027 14.1006V18.5497C2.00027 18.6691 2.04772 18.7837 2.13217 18.8681C2.21662 18.9526 2.33116 19 2.45059 19H5.15248C5.27191 19 5.38645 18.9526 5.4709 18.8681C5.55535 18.7837 5.6028 18.6691 5.6028 18.5497V14.1006C5.6028 13.8511 5.40195 13.6503 5.15248 13.6503ZM4.70217 18.0994H2.9009V14.5509H4.70217V18.0994ZM18.1837 14.5356C17.9675 13.8142 16.7796 12.7082 16.0384 12.7082C15.8986 12.7061 15.761 12.7432 15.6412 12.8154L11.3299 15.4515H10.1059V14.1006C10.1059 13.9811 10.0585 13.8666 9.97405 13.7821C9.8896 13.6977 9.77506 13.6503 9.65563 13.6503H6.95374C6.83431 13.6503 6.71977 13.6977 6.63532 13.7821C6.55087 13.8666 6.50343 13.9811 6.50343 14.1006V18.5497C6.50343 18.6691 6.55087 18.7837 6.63532 18.8681C6.71977 18.9526 6.83431 19 6.95374 19H12.2738C12.3615 19.0004 12.4474 18.9747 12.5205 18.9261L17.9243 15.3777C18.1918 15.202 18.2882 14.8877 18.1837 14.5356ZM12.1396 18.0994H7.40406V14.5509H9.20532V15.9018C9.20532 16.0213 9.25276 16.1358 9.33721 16.2203C9.42166 16.3047 9.5362 16.3521 9.65563 16.3521H11.4569C11.5398 16.3522 11.6211 16.3294 11.692 16.2864L16.0384 13.6088C16.3302 13.6133 17.1264 14.3347 17.2948 14.7139L12.1396 18.0994ZM8.755 7.30441C8.63557 7.30441 8.52103 7.35186 8.43658 7.43631C8.35213 7.52076 8.30469 7.6353 8.30469 7.75473C8.30469 7.87416 8.35213 7.9887 8.43658 8.07315C8.52103 8.1576 8.63557 8.20504 8.755 8.20504H11.0066V10.4566C11.0066 10.576 11.054 10.6906 11.1385 10.775C11.2229 10.8595 11.3375 10.9069 11.4569 10.9069C11.5763 10.9069 11.6909 10.8595 11.7753 10.775C11.8598 10.6906 11.9072 10.576 11.9072 10.4566V8.20504H14.1588C14.2782 8.20504 14.3928 8.1576 14.4772 8.07315C14.5617 7.9887 14.6091 7.87416 14.6091 7.75473C14.6091 7.6353 14.5617 7.52076 14.4772 7.43631C14.3928 7.35186 14.2782 7.30441 14.1588 7.30441H11.9072V5.05284C11.9072 4.93341 11.8598 4.81887 11.7753 4.73442C11.6909 4.64997 11.5763 4.60252 11.4569 4.60252C11.3375 4.60252 11.2229 4.64997 11.1385 4.73442C11.054 4.81887 11.0066 4.93341 11.0066 5.05284V7.30441H8.755ZM14.1588 3.70189H15.5097V5.05284C15.5097 5.17227 15.5572 5.28681 15.6416 5.37126C15.7261 5.45571 15.8406 5.50315 15.96 5.50315C16.0795 5.50315 16.194 5.45571 16.2785 5.37126C16.3629 5.28681 16.4104 5.17227 16.4104 5.05284V3.70189H17.7613C17.8807 3.70189 17.9953 3.65445 18.0797 3.57C18.1642 3.48555 18.2116 3.37101 18.2116 3.25158C18.2116 3.13214 18.1642 3.01761 18.0797 2.93315C17.9953 2.8487 17.8807 2.80126 17.7613 2.80126H16.4104V1.45032C16.4104 1.33088 16.3629 1.21634 16.2785 1.13189C16.194 1.04744 16.0795 1 15.96 1C15.8406 1 15.7261 1.04744 15.6416 1.13189C15.5572 1.21634 15.5097 1.33088 15.5097 1.45032V2.80126H14.1588C14.0394 2.80126 13.9248 2.8487 13.8404 2.93315C13.7559 3.01761 13.7085 3.13214 13.7085 3.25158C13.7085 3.37101 13.7559 3.48555 13.8404 3.57C13.9248 3.65445 14.0394 3.70189 14.1588 3.70189ZM6.95374 3.70189H7.40406V4.15221C7.40406 4.27164 7.4515 4.38618 7.53595 4.47063C7.6204 4.55508 7.73494 4.60252 7.85437 4.60252C7.9738 4.60252 8.08834 4.55508 8.17279 4.47063C8.25724 4.38618 8.30469 4.27164 8.30469 4.15221V3.70189H8.755C8.87443 3.70189 8.98897 3.65445 9.07342 3.57C9.15787 3.48555 9.20532 3.37101 9.20532 3.25158C9.20532 3.13214 9.15787 3.01761 9.07342 2.93315C8.98897 2.8487 8.87443 2.80126 8.755 2.80126H8.30469V2.35095C8.30469 2.23151 8.25724 2.11698 8.17279 2.03252C8.08834 1.94807 7.9738 1.90063 7.85437 1.90063C7.73494 1.90063 7.6204 1.94807 7.53595 2.03252C7.4515 2.11698 7.40406 2.23151 7.40406 2.35095V2.80126H6.95374C6.83431 2.80126 6.71977 2.8487 6.63532 2.93315C6.55087 3.01761 6.50343 3.13214 6.50343 3.25158C6.50343 3.37101 6.55087 3.48555 6.63532 3.57C6.71977 3.65445 6.83431 3.70189 6.95374 3.70189Z" fill="white"/>
</g>
</svg>
