<svg width="24" height="24" viewBox="0 0 24 24" fill="none" xmlns="http://www.w3.org/2000/svg">
<g id="Notification-1">
<g id="Vector">
<path d="M12.0149 18.3981C10.2674 18.3981 8.5199 18.1206 6.8624 17.5656C6.2324 17.3481 5.7524 16.9056 5.5424 16.3281C5.3249 15.7506 5.3999 15.1131 5.7449 14.5431L6.6074 13.1106C6.7874 12.8106 6.9524 12.2106 6.9524 11.8581V9.69055C6.9524 6.90055 9.2249 4.62805 12.0149 4.62805C14.8049 4.62805 17.0774 6.90055 17.0774 9.69055V11.8581C17.0774 12.2031 17.2424 12.8106 17.4224 13.1181L18.2774 14.5431C18.5999 15.0831 18.6599 15.7356 18.4424 16.3281C18.2249 16.9206 17.7524 17.3706 17.1599 17.5656C15.5099 18.1206 13.7624 18.3981 12.0149 18.3981ZM12.0149 5.75305C9.8474 5.75305 8.0774 7.51555 8.0774 9.69055V11.8581C8.0774 12.4056 7.8524 13.2156 7.5749 13.6881L6.7124 15.1206C6.5474 15.3981 6.5024 15.6906 6.5999 15.9381C6.6899 16.1931 6.9149 16.3881 7.2224 16.4931C10.3574 17.5431 13.6799 17.5431 16.8149 16.4931C17.0849 16.4031 17.2949 16.2006 17.3924 15.9306C17.4899 15.6606 17.4674 15.3681 17.3174 15.1206L16.4549 13.6881C16.1699 13.2006 15.9524 12.3981 15.9524 11.8506V9.69055C15.9524 7.51555 14.1899 5.75305 12.0149 5.75305Z" fill="white"/>
<path d="M13.4099 5.95574C13.3574 5.95574 13.3049 5.94824 13.2524 5.93324C13.0349 5.87324 12.8249 5.82824 12.6224 5.79824C11.9849 5.71574 11.3699 5.76074 10.7924 5.93324C10.5824 6.00074 10.3574 5.93324 10.2149 5.77574C10.0724 5.61824 10.0274 5.39324 10.1099 5.19074C10.4174 4.40324 11.1674 3.88574 12.0224 3.88574C12.8774 3.88574 13.6274 4.39574 13.9349 5.19074C14.0099 5.39324 13.9724 5.61824 13.8299 5.77574C13.7174 5.89574 13.5599 5.95574 13.4099 5.95574Z" fill="white"/>
<path d="M12.0149 20.1082C11.2724 20.1082 10.5524 19.8082 10.0274 19.2832C9.50242 18.7582 9.20242 18.0382 9.20242 17.2957H10.3274C10.3274 17.7382 10.5074 18.1732 10.8224 18.4882C11.1374 18.8032 11.5724 18.9832 12.0149 18.9832C12.9449 18.9832 13.7024 18.2257 13.7024 17.2957H14.8274C14.8274 18.8482 13.5674 20.1082 12.0149 20.1082Z" fill="white"/>
</g>
</g>
</svg>
