<svg width="14" height="16" viewBox="0 0 14 16" fill="none" xmlns="http://www.w3.org/2000/svg">
<g id="Security user">
<g id="Vector">
<path d="M7.00375 16C6.18727 16 5.37828 15.7618 4.74157 15.2929L1.5206 12.9038C0.666666 12.2712 0 10.9538 0 9.89697V4.36702C0 3.22084 0.846442 2.00023 1.93258 1.59833L5.67041 0.206536C6.41198 -0.0688452 7.58052 -0.0688452 8.3221 0.206536L12.0674 1.59833C13.1536 2.00023 14 3.22084 14 4.36702V9.89697C14 10.9538 13.3333 12.2712 12.4794 12.9038L9.25843 15.2929C8.62921 15.7618 7.82023 16 7.00375 16ZM6.06742 1.24852L2.32959 2.64031C1.68539 2.87847 1.1236 3.68229 1.1236 4.36702V9.89697C1.1236 10.604 1.62547 11.5939 2.18727 12.0107L5.40824 14.3998C6.26966 15.0399 7.73034 15.0399 8.59176 14.3998L11.8127 12.0107C12.382 11.5865 12.8764 10.5966 12.8764 9.89697V4.36702C12.8764 3.68973 12.3146 2.88592 11.6704 2.64031L7.93258 1.24852C7.4382 1.06245 6.56929 1.06245 6.06742 1.24852Z" fill="#080450"/>
<path d="M7.00375 7.74602H6.95131C5.86517 7.71625 5.07116 6.8901 5.07116 5.88534C5.07116 4.85824 5.9176 4.01721 6.95131 4.01721C7.98502 4.01721 8.83146 4.85824 8.83146 5.88534C8.83103 6.36918 8.64197 6.83405 8.30398 7.18237C7.96599 7.53068 7.50535 7.73537 7.01873 7.75346C7.01124 7.74602 7.01124 7.74602 7.00375 7.74602ZM6.95131 5.13362C6.53184 5.13362 6.19476 5.46854 6.19476 5.88534C6.19476 6.29469 6.51685 6.62217 6.92135 6.63705H7.00375C7.19582 6.62559 7.37609 6.54113 7.50718 6.40118C7.63828 6.26122 7.71013 6.07651 7.70786 5.88534C7.70887 5.78634 7.68998 5.68815 7.65232 5.59649C7.61465 5.50484 7.55896 5.42158 7.48851 5.35157C7.41806 5.28157 7.33425 5.22624 7.24201 5.18881C7.14977 5.15139 7.05094 5.13263 6.95131 5.13362Z" fill="#080450"/>
<path d="M7.00375 11.9735C6.35955 11.9735 5.70787 11.8023 5.20599 11.4674C4.70412 11.1399 4.41948 10.6561 4.41948 10.1426C4.41948 9.62903 4.70412 9.14525 5.20599 8.81033C6.21723 8.14048 7.79775 8.14792 8.8015 8.81033C9.30337 9.13781 9.58801 9.62158 9.58801 10.1351C9.58801 10.6487 9.30337 11.1325 8.8015 11.4674C8.29963 11.8023 7.64794 11.9735 7.00375 11.9735ZM5.82772 9.73322C5.64045 9.85231 5.53558 10.0012 5.54307 10.1351C5.54307 10.2691 5.64794 10.418 5.82772 10.537C6.45693 10.9538 7.55056 10.9538 8.17978 10.537C8.36704 10.418 8.47191 10.2691 8.47191 10.1351C8.47191 10.0012 8.36704 9.85231 8.18727 9.73322C7.55805 9.32388 6.45693 9.32388 5.82772 9.73322Z" fill="#080450"/>
</g>
</g>
</svg>
