<svg width="25" height="24" viewBox="0 0 25 24" fill="none" xmlns="http://www.w3.org/2000/svg">
<g id="Send">
<path id="Vector" fill-rule="evenodd" clip-rule="evenodd" d="M12.2551 1.50483C12.5284 1.23146 12.9716 1.23146 13.245 1.50483L15.245 3.50483C15.5184 3.7782 15.5184 4.22141 15.245 4.49478C14.9716 4.76815 14.5284 4.76815 14.2551 4.49478L13.45 3.68975V8.9998C13.45 9.3864 13.1366 9.6998 12.75 9.6998C12.3634 9.6998 12.05 9.3864 12.05 8.9998V3.68975L11.245 4.49478C10.9716 4.76815 10.5284 4.76815 10.2551 4.49478C9.98169 4.22141 9.98169 3.7782 10.2551 3.50483L12.2551 1.50483ZM8.4426 5.02807C8.49878 5.41057 8.23426 5.76619 7.85176 5.82237C6.20421 6.06439 5.15376 6.6488 4.49012 7.56824C3.80797 8.51333 3.45003 9.92641 3.45003 11.9998V12.2998H7.14003C7.78505 12.2998 8.3675 12.6595 8.65613 13.2368L9.82613 15.5768C10.0486 16.0217 10.4975 16.2998 10.99 16.2998H14.52C15.0126 16.2998 15.4615 16.0217 15.6839 15.5768L16.8539 13.2368C17.1443 12.656 17.739 12.2998 18.37 12.2998H22.05V11.9998C22.05 9.92641 21.6921 8.51333 21.0099 7.56824C20.3463 6.6488 19.2959 6.06439 17.6483 5.82237C17.2658 5.76619 17.0013 5.41057 17.0575 5.02807C17.1136 4.64558 17.4693 4.38105 17.8518 4.43724C19.7442 4.71522 21.1938 5.43081 22.1451 6.74887C23.078 8.04128 23.45 9.8032 23.45 11.9998V14.9998C23.45 17.5688 22.9405 19.5493 21.62 20.8698C20.2995 22.1903 18.3191 22.6998 15.75 22.6998H9.75003C7.18099 22.6998 5.20056 22.1903 3.88005 20.8698C2.55955 19.5493 2.05003 17.5688 2.05003 14.9998V13.1666C2.03696 13.1132 2.03003 13.0573 2.03003 12.9998C2.03003 12.9423 2.03696 12.8864 2.05003 12.833V11.9998C2.05003 9.8032 2.42209 8.04128 3.35494 6.74887C4.3063 5.43081 5.75585 4.71522 7.6483 4.43724C8.03079 4.38105 8.38641 4.64558 8.4426 5.02807ZM3.45003 13.6998V14.9998C3.45003 17.4308 3.94051 18.9503 4.87 19.8798C5.7995 20.8093 7.31907 21.2998 9.75003 21.2998H15.75C18.181 21.2998 19.7006 20.8093 20.6301 19.8798C21.5596 18.9503 22.05 17.4308 22.05 14.9998V13.6998H18.37C18.2611 13.6998 18.1557 13.7636 18.1061 13.8629L16.9361 16.2029C16.4786 17.1179 15.5475 17.6998 14.52 17.6998H10.99C9.96257 17.6998 9.03146 17.1179 8.57393 16.2029L7.40393 13.8629C7.35256 13.7601 7.25501 13.6998 7.14003 13.6998H3.45003Z" fill="#080450"/>
</g>
</svg>
