<svg width="24" height="24" viewBox="0 0 24 24" fill="none" xmlns="http://www.w3.org/2000/svg">
<g id="Setting">
<path id="Vector" fill-rule="evenodd" clip-rule="evenodd" d="M9.8189 3.6432C9.48372 3.08266 8.76799 2.89695 8.22565 3.21961L8.21837 3.22393L6.48834 4.21387C5.82009 4.59573 5.59086 5.45849 5.97293 6.11977C6.48131 6.99685 6.59103 7.90828 6.17321 8.6333C5.75545 9.35825 4.91153 9.7199 3.9 9.7199C3.12785 9.7199 2.5 10.3543 2.5 11.1199V12.8799C2.5 13.6455 3.12785 14.2799 3.9 14.2799C4.91153 14.2799 5.75545 14.6416 6.17321 15.3665C6.59095 16.0914 6.481 17.0032 5.97287 17.8802C5.59089 18.5414 5.81986 19.4039 6.48807 19.7858L8.22568 20.7801C8.76802 21.1028 9.48371 20.9172 9.81889 20.3566L9.92729 20.1694C10.4355 19.2925 11.1722 18.7424 12.0087 18.7424C12.8458 18.7424 13.5799 19.2928 14.0832 20.1703C14.0834 20.1706 14.0836 20.1709 14.0838 20.1712L14.1911 20.3566C14.5263 20.9171 15.242 21.1029 15.7844 20.7802L15.7916 20.7759L17.5217 19.7859C18.189 19.4046 18.4201 18.5517 18.0365 17.879C17.5289 17.0024 17.4192 16.0911 17.8368 15.3665C18.2546 14.6416 19.0985 14.2799 20.11 14.2799C20.8821 14.2799 21.51 13.6455 21.51 12.8799V11.1199C21.51 10.3478 20.8756 9.7199 20.11 9.7199C19.0985 9.7199 18.2546 9.35825 17.8368 8.6333C17.419 7.90837 17.529 6.99649 18.0372 6.11951C18.4191 5.45827 18.1901 4.59583 17.5219 4.21403L15.7843 3.21967C15.242 2.897 14.5263 3.08266 14.1911 3.64323L14.0827 3.83042C13.5745 4.7073 12.8378 5.2574 12.0012 5.2574C11.1642 5.2574 10.4301 4.70701 9.92678 3.82955C9.92659 3.82922 9.9264 3.8289 9.92622 3.82857L9.8189 3.6432ZM7.71823 2.3579C8.75455 1.74424 10.075 2.1179 10.6797 3.13426L10.6827 3.13937L10.7927 3.32939L10.7938 3.33124C11.1905 4.02321 11.6461 4.2574 12.0012 4.2574C12.3572 4.2574 12.8157 4.0223 13.2174 3.32917L13.3303 3.13424C13.9349 2.11788 15.2555 1.74424 16.2918 2.35791L18.0181 3.34578C19.1698 4.00393 19.5609 5.48132 18.9029 6.62004C18.5013 7.31295 18.526 7.82653 18.7032 8.13401C18.8804 8.44156 19.3115 8.7199 20.11 8.7199C21.4244 8.7199 22.51 9.79205 22.51 11.1199V12.8799C22.51 14.1943 21.4379 15.2799 20.11 15.2799C19.3115 15.2799 18.8804 15.5582 18.7032 15.8658C18.526 16.1733 18.501 16.6863 18.9026 17.3792L18.9041 17.3818C19.5596 18.529 19.1704 19.9955 18.0181 20.654L16.2917 21.6419C15.2554 22.2556 13.935 21.8819 13.3303 20.8656L13.3273 20.8604L13.2173 20.6704L13.2162 20.6686C12.8195 19.9766 12.3639 19.7424 12.0087 19.7424C11.6528 19.7424 11.1943 19.9775 10.7926 20.6706L10.6797 20.8656C10.0751 21.8819 8.75459 22.2556 7.71828 21.6419L5.99193 20.654C4.84018 19.9959 4.44914 18.5185 5.10707 17.3798C5.50869 16.6869 5.48397 16.1733 5.30679 15.8658C5.12955 15.5582 4.69847 15.2799 3.9 15.2799C2.57215 15.2799 1.5 14.1943 1.5 12.8799V11.1199C1.5 9.80547 2.57215 8.7199 3.9 8.7199C4.69847 8.7199 5.12955 8.44156 5.30679 8.13401C5.48397 7.82653 5.50904 7.31355 5.10741 6.62064C4.44953 5.482 4.84012 4.00416 5.99166 3.34594L7.71823 2.3579ZM12 9.4999C10.6193 9.4999 9.5 10.6192 9.5 11.9999C9.5 13.3806 10.6193 14.4999 12 14.4999C13.3807 14.4999 14.5 13.3806 14.5 11.9999C14.5 10.6192 13.3807 9.4999 12 9.4999ZM8.5 11.9999C8.5 10.0669 10.067 8.4999 12 8.4999C13.933 8.4999 15.5 10.0669 15.5 11.9999C15.5 13.9329 13.933 15.4999 12 15.4999C10.067 15.4999 8.5 13.9329 8.5 11.9999Z" fill="black"/>
</g>
</svg>
